<svg width="114" height="22" viewBox="0 0 114 22" fill="none" xmlns="http://www.w3.org/2000/svg">
<g clip-path="url(#clip0_3733_6829)">
<mask id="mask0_3733_6829" style="mask-type:luminance" maskUnits="userSpaceOnUse" x="0" y="0" width="114" height="22">
<path d="M114 0H0V22H114V0Z" fill="white"/>
</mask>
<g mask="url(#mask0_3733_6829)">
<path fill-rule="evenodd" clip-rule="evenodd" d="M44.9837 17.2093C40.7709 20.3368 34.6632 22 29.4035 22C22.0326 22 15.3947 19.259 10.3713 14.6963C9.97737 14.3377 10.3287 13.8485 10.8027 14.1259C16.222 17.2983 22.9245 19.209 29.8459 19.209C34.5153 19.209 39.6484 18.2338 44.3714 16.2185C45.0838 15.9151 45.6812 16.6908 44.9837 17.2093Z" fill="#F79C34"/>
<path fill-rule="evenodd" clip-rule="evenodd" d="M46.7377 15.1953C46.1985 14.5014 43.1759 14.8666 41.8177 15.0303C41.4063 15.0803 41.3424 14.7184 41.7131 14.4566C44.1247 12.7525 48.0766 13.2443 48.5357 13.8154C48.9982 14.3903 48.4137 18.3761 46.1545 20.2777C45.8064 20.5701 45.4758 20.4141 45.6301 20.0282C46.139 18.7503 47.277 15.8904 46.7377 15.1953Z" fill="#F79C34"/>
<path fill-rule="evenodd" clip-rule="evenodd" d="M41.9126 2.4194V0.76402C41.9139 0.511945 42.1025 0.344329 42.3298 0.344979L49.7066 0.344329C49.9423 0.344329 50.1322 0.516493 50.1322 0.762071V2.18161C50.1296 2.42005 49.9301 2.73059 49.5768 3.2237L45.7554 8.71216C47.1736 8.67903 48.6739 8.89277 49.963 9.62106C50.2536 9.78543 50.3318 10.0291 50.3544 10.2675V12.034C50.3544 12.2776 50.0896 12.5589 49.8106 12.4127C47.5405 11.216 44.5276 11.0854 42.0166 12.427C41.7602 12.5647 41.4922 12.2867 41.4922 12.0431V10.3636C41.4922 10.0953 41.4974 9.63535 41.7667 9.22606L46.1932 2.83714L42.3389 2.83649C42.1031 2.83649 41.9139 2.66757 41.9126 2.4194Z" fill="#333E47"/>
<path fill-rule="evenodd" clip-rule="evenodd" d="M15.0054 12.7603H12.7611C12.5473 12.7467 12.3768 12.5855 12.3594 12.3789L12.3613 0.791956C12.3613 0.560671 12.5551 0.375513 12.7947 0.375513L14.8846 0.374863C15.1029 0.385908 15.2786 0.552225 15.2921 0.764019V2.27647H15.3347C15.8792 0.813395 16.9054 0.130585 18.2882 0.130585C19.6916 0.130585 20.5718 0.813395 21.2002 2.27647C21.7447 0.813395 22.9808 0.130585 24.3003 0.130585C25.2432 0.130585 26.2694 0.52104 26.8978 1.39875C27.6102 2.37457 27.4642 3.78826 27.4642 5.03174L27.4616 12.3439C27.4616 12.5745 27.2685 12.7603 27.0289 12.7603H24.7879C24.5618 12.746 24.3849 12.5667 24.3849 12.3445L24.3842 6.20181C24.3842 5.71455 24.4262 4.49576 24.3209 4.03254C24.1537 3.25163 23.6512 3.03204 23.0021 3.03204C22.457 3.03204 21.8913 3.39781 21.6607 3.98252C21.4302 4.56853 21.4515 5.54304 21.4515 6.20181V12.3439C21.4515 12.5745 21.2577 12.7603 21.0188 12.7603H18.7771C18.5517 12.746 18.3741 12.5667 18.3741 12.3445L18.3715 6.20181C18.3715 4.90961 18.5814 3.00865 16.9894 3.00865C15.3761 3.00865 15.4394 4.86088 15.4394 6.20181L15.4381 12.3439C15.4381 12.5745 15.2443 12.7603 15.0054 12.7603Z" fill="#333E47"/>
<path fill-rule="evenodd" clip-rule="evenodd" d="M56.5028 2.49606C54.8481 2.49606 54.7435 4.76278 54.7435 6.17713C54.7435 7.59147 54.7228 10.6151 56.4828 10.6151C58.2213 10.6151 58.3053 8.17683 58.3053 6.68972C58.3053 5.71456 58.2627 4.54384 57.9695 3.6174C57.7182 2.81245 57.2151 2.49606 56.5028 2.49606ZM56.4828 0.130585C59.8133 0.130585 61.6146 3.00865 61.6146 6.66568C61.6146 10.1999 59.6248 13.0046 56.4828 13.0046C53.2142 13.0046 51.4336 10.1272 51.4336 6.54354C51.4336 2.93459 53.2348 0.130585 56.4828 0.130585Z" fill="#333E47"/>
<path fill-rule="evenodd" clip-rule="evenodd" d="M65.9357 12.7603H63.6992C63.4751 12.746 63.2968 12.5667 63.2968 12.3445L63.293 0.753625C63.3123 0.54118 63.4983 0.375513 63.7244 0.375513L65.8059 0.374863C66.0023 0.385258 66.1637 0.519091 66.2051 0.699052V2.47137H66.247C66.8761 0.886159 67.7551 0.130585 69.3051 0.130585C70.3106 0.130585 71.2955 0.496353 71.9239 1.4962C72.5104 2.42264 72.5104 3.98252 72.5104 5.10451V12.3958C72.4858 12.6011 72.3024 12.7603 72.0802 12.7603H69.8308C69.6228 12.7473 69.4555 12.5933 69.431 12.3958V6.10501C69.431 4.83684 69.5783 2.98331 68.0276 2.98331C67.4832 2.98331 66.9801 3.34908 66.7288 3.90975C66.4143 4.61725 66.3723 5.3241 66.3723 6.10501V12.3439C66.3684 12.5745 66.1747 12.7603 65.9357 12.7603Z" fill="#333E47"/>
<path fill-rule="evenodd" clip-rule="evenodd" d="M38.295 12.7317C38.1471 12.8655 37.9334 12.8746 37.7654 12.7843C37.0201 12.1613 36.8864 11.8735 36.4789 11.2797C35.2473 12.542 34.3748 12.9208 32.7789 12.9208C30.8898 12.9208 29.4199 11.7475 29.4199 9.40212C29.4199 7.56938 30.4074 6.3233 31.8134 5.71261C33.0308 5.17467 34.7313 5.07722 36.0333 4.9304V4.63739C36.0333 4.09881 36.0753 3.46473 35.7601 3.00021C35.4869 2.58441 34.9625 2.41355 34.5007 2.41355C33.6443 2.41355 32.8842 2.85468 32.6969 3.76877C32.6575 3.97212 32.5103 4.17417 32.3075 4.18457L30.1316 3.94744C29.9482 3.90521 29.7441 3.75708 29.7964 3.47512C30.2905 0.857573 32.6142 0.0415793 34.7261 0.0194902H34.8928C35.9739 0.0331335 37.3547 0.331335 38.1956 1.14278C39.2877 2.16927 39.1818 3.53749 39.1818 5.0285V8.5452C39.1818 9.60352 39.619 10.0674 40.0291 10.6372C40.1731 10.8431 40.2048 11.0867 40.022 11.2375C39.5634 11.624 38.749 12.3354 38.3015 12.7369L38.295 12.7317ZM36.0333 7.22765C36.0333 8.10732 36.054 8.84015 35.6135 9.62236C35.2564 10.2571 34.6893 10.6482 34.0596 10.6482C33.1994 10.6482 32.6956 9.98878 32.6956 9.01102C32.6956 7.08797 34.4097 6.73845 36.0333 6.73845V7.22765Z" fill="#333E47"/>
<path fill-rule="evenodd" clip-rule="evenodd" d="M8.87574 12.7317C8.7272 12.8655 8.51278 12.8746 8.34551 12.7843C7.59957 12.1613 7.46588 11.8735 7.059 11.2797C5.82675 12.542 4.95487 12.9208 3.359 12.9208C1.46993 12.9208 0 11.7475 0 9.40212C0 7.56938 0.986194 6.3233 2.39347 5.71261C3.61088 5.17467 5.31137 5.07722 6.61273 4.9304V4.63739C6.61273 4.09881 6.65536 3.46473 6.34019 3.00021C6.067 2.58441 5.54193 2.41355 5.0808 2.41355C4.22442 2.41355 3.46298 2.85468 3.27698 3.76877C3.23823 3.97212 3.09033 4.17417 2.88689 4.18457L0.711713 3.94744C0.527649 3.90521 0.323565 3.75708 0.376523 3.47512C0.869297 0.857573 3.19367 0.0415793 5.3062 0.0194902H5.47283C6.55396 0.0331335 7.93476 0.331335 8.77564 1.14278C9.86711 2.16927 9.76183 3.53749 9.76183 5.0285V8.5452C9.76183 9.60352 10.1991 10.0674 10.6092 10.6372C10.7519 10.8431 10.7848 11.0867 10.6021 11.2375C10.1435 11.624 9.32848 12.3354 8.88091 12.7369L8.87574 12.7317ZM6.61273 7.22765C6.61273 8.10732 6.63404 8.84015 6.19294 9.62236C5.83643 10.2571 5.26939 10.6482 4.63905 10.6482C3.7788 10.6482 3.27504 9.98878 3.27504 9.01102C3.27504 7.08797 4.98974 6.73845 6.61273 6.73845V7.22765Z" fill="#333E47"/>
<path fill-rule="evenodd" clip-rule="evenodd" d="M103.187 16.9169C103.187 16.6233 103.187 16.3595 103.187 16.0659C103.187 15.8235 103.305 15.6566 103.557 15.6715C104.025 15.7384 104.689 15.8053 105.16 15.7079C105.774 15.5792 106.216 15.1407 106.476 14.5398C106.844 13.6939 107.087 13.0117 107.241 12.5641L102.572 0.929688C102.494 0.732186 102.47 0.365768 102.862 0.365768H104.494C104.806 0.365768 104.932 0.564569 105.002 0.759473L108.387 10.2097L111.618 0.759473C111.684 0.565869 111.816 0.365768 112.125 0.365768H113.664C114.053 0.365768 114.031 0.731536 113.954 0.929688L109.323 12.9273C108.723 14.5242 107.925 17.0677 106.127 17.5094C105.225 17.7466 104.088 17.6608 103.42 17.3795C103.252 17.2944 103.187 17.067 103.187 16.9169Z" fill="#333E47"/>
<path fill-rule="evenodd" clip-rule="evenodd" d="M101.01 12.0515C101.01 12.2678 100.834 12.4452 100.618 12.4452H99.4669C99.2182 12.4452 99.0484 12.2646 99.0167 12.0515L98.9011 11.2634C98.3722 11.7137 97.7231 12.1093 97.0192 12.3848C95.6655 12.9136 94.1051 13.0013 92.7825 12.184C91.826 11.5935 91.3184 10.439 91.3184 9.24815C91.3184 8.32691 91.6006 7.41346 92.2264 6.75014C93.0615 5.84384 94.2718 5.39881 95.7333 5.39881C96.6162 5.39881 97.8794 5.50341 98.7984 5.80551V4.21965C98.7984 2.60715 98.1235 1.9094 96.3443 1.9094C94.9841 1.9094 93.9437 2.116 92.4957 2.56882C92.2639 2.57662 92.1282 2.39926 92.1282 2.18291V1.27856C92.1282 1.06157 92.3123 0.851726 92.5119 0.788058C93.5458 0.334584 95.0106 0.0519741 96.5677 0C98.5976 0 101.01 0.460621 101.01 3.60116V12.0515ZM98.7984 9.73605V7.3433C98.026 7.13085 96.7479 7.0425 96.2532 7.0425C95.4717 7.0425 94.616 7.2283 94.1691 7.71231C93.8352 8.06704 93.6841 8.57638 93.6841 9.06884C93.6841 9.70552 93.903 10.3442 94.4145 10.6599C95.0087 11.0659 95.9303 11.0166 96.7963 10.769C97.6288 10.5313 98.4103 10.1109 98.7984 9.73605Z" fill="#333E47"/>
<path fill-rule="evenodd" clip-rule="evenodd" d="M84.0405 1.94513C86.5941 1.94513 87.2897 3.96498 87.2897 6.27783C87.3039 7.83705 87.0191 9.22736 86.2163 10.0232C85.6157 10.619 84.9447 10.7814 83.9346 10.7814C83.0356 10.7814 81.8531 10.3097 80.9695 9.6529V3.03984C81.8892 2.32909 83.0627 1.94513 84.0405 1.94513ZM80.5782 17.3321H79.0366C78.8208 17.3321 78.6445 17.1547 78.6445 16.9384C78.6445 11.5526 78.6445 6.16608 78.6445 0.780262C78.6445 0.56392 78.8208 0.386558 79.0366 0.386558H80.2165C80.4645 0.386558 80.6344 0.567168 80.666 0.780262L80.79 1.62679C81.895 0.639932 83.3178 0.00714684 84.6734 0.00714684C88.4703 0.00714684 89.7187 3.15418 89.7187 6.4266C89.7187 9.92771 87.809 12.7408 84.5791 12.7408C83.219 12.7408 81.9473 12.236 80.9695 11.3589V16.9384C80.9695 17.1547 80.7932 17.3321 80.5782 17.3321Z" fill="#333E47"/>
</g>
</g>
<defs>
<clipPath id="clip0_3733_6829">
<rect width="114" height="22" fill="white"/>
</clipPath>
</defs>
</svg>
