<svg width="32" height="31" viewBox="0 0 32 31" fill="none" xmlns="http://www.w3.org/2000/svg">
<path fill-rule="evenodd" clip-rule="evenodd" d="M1.37898 0.253834C1.08296 0.332673 0.673173 0.692798 0.536095 0.994623C0.429103 1.23023 0.424754 1.74411 0.423847 14.3494C0.423122 23.3148 0.442878 27.5312 0.486194 27.6872C0.565517 27.973 0.853809 28.3062 1.15406 28.4594C1.34914 28.559 1.51171 28.5767 2.22785 28.5767C3.13991 28.5767 3.2202 28.5511 3.29958 28.235C3.32556 28.1314 3.29952 28.0316 3.21791 27.922C3.10095 27.7651 3.07847 27.7604 2.29878 27.7309C1.59768 27.7044 1.489 27.6863 1.4139 27.5835C1.34074 27.4832 1.32836 25.5717 1.32836 14.3715V1.27669L1.46266 1.18269C1.58324 1.09817 3.05249 1.08863 15.9015 1.08863C30.1254 1.08863 30.2066 1.08929 30.3268 1.20945C30.444 1.32672 30.4476 1.41081 30.4476 4.03988C30.4476 5.7761 30.4704 6.81479 30.511 6.93139C30.5721 7.10658 30.7778 7.25079 30.9667 7.25079C31.0165 7.25079 31.1239 7.18403 31.2055 7.10248L31.3538 6.95422V4.11008C31.3538 0.946715 31.362 1.01722 30.9441 0.588403C30.5173 0.150346 31.7021 0.181761 15.8619 0.188648C6.80918 0.192635 1.51944 0.216438 1.37898 0.253834ZM3.59386 2.82019C3.32852 2.96005 3.14402 3.14365 3.01407 3.39702C2.90364 3.61233 2.8991 3.83018 2.8991 8.91276C2.8991 14.7543 2.87337 14.3587 3.28182 14.789C3.66158 15.1891 2.8512 15.1649 15.888 15.1649C28.9248 15.1649 28.1144 15.1891 28.4941 14.789C28.9026 14.3587 28.8769 14.7543 28.8769 8.91216C28.8769 4.15787 28.867 3.60031 28.7792 3.42662C28.6413 3.15374 28.4593 2.96797 28.1996 2.83475C27.9815 2.72287 27.6529 2.71985 15.8753 2.7222C4.96192 2.72438 3.75734 2.73398 3.59386 2.82019ZM27.9058 3.72476C28.0303 3.88293 28.0311 3.91627 28.0311 8.95052C28.0311 13.9366 28.0291 14.019 27.9102 14.1379C27.7903 14.2579 27.7089 14.2587 15.888 14.2587C4.06708 14.2587 3.9857 14.2579 3.86572 14.1379C3.74682 14.019 3.74489 13.9366 3.74489 8.95052C3.74489 3.91627 3.74568 3.88293 3.87013 3.72476L3.99531 3.56557H15.888H27.7807L27.9058 3.72476ZM9.23037 6.44361C8.95603 6.55749 8.99995 6.44494 8.18715 9.11642C7.7036 10.7058 7.5693 11.2199 7.61528 11.3058C7.70324 11.4702 7.99352 11.6006 8.27149 11.6006C8.56588 11.6006 8.63705 11.5072 8.7914 10.9192L8.89888 10.5097L9.65423 10.5265L10.4096 10.5433L10.5359 10.9968C10.7092 11.619 10.7093 11.6191 11.0934 11.5873C11.4293 11.5594 11.7195 11.3752 11.7195 11.1897C11.7195 11.0409 10.3852 6.74549 10.2951 6.60437C10.2079 6.46771 9.87244 6.34314 9.60499 6.34803C9.52192 6.34954 9.35337 6.39256 9.23037 6.44361ZM13.6259 6.5393C13.5003 6.71855 13.5064 7.08616 13.6376 7.24312C13.7283 7.35168 13.8206 7.37192 14.287 7.38575L14.8307 7.40182L14.8456 9.39547C14.8601 11.3426 14.8634 11.3916 14.9882 11.4948C15.0705 11.5629 15.2187 11.6006 15.4047 11.6006C15.5906 11.6006 15.7388 11.5629 15.8211 11.4948C15.9459 11.3916 15.9492 11.3426 15.9637 9.39547L15.9786 7.40182L16.5223 7.38575C16.9888 7.37192 17.0811 7.35168 17.1718 7.24312C17.3029 7.08616 17.309 6.71855 17.1834 6.5393C17.0901 6.40597 17.0772 6.405 15.4047 6.405C13.7322 6.405 13.7193 6.40597 13.6259 6.5393ZM20.0519 6.58159L19.8753 6.75818V9.05854C19.8753 11.2784 19.8795 11.3631 19.9961 11.4797C20.1774 11.661 20.7389 11.6359 20.9627 11.4365C20.9793 11.4216 21.0065 10.7823 21.0231 10.0157L21.0533 8.62187L21.4003 9.25881C21.7466 9.89442 21.8179 9.96939 22.0759 9.96939C22.2563 9.96939 22.3695 9.83582 22.7545 9.16819L23.0764 8.61009L23.0768 9.9845C23.0772 11.2781 23.0843 11.366 23.198 11.4797C23.371 11.6527 23.9077 11.6498 24.0955 11.4749L24.2303 11.3492L24.2126 9.02284L24.1948 6.6965L24.0253 6.55072C23.8958 6.43932 23.7856 6.405 23.5581 6.405C23.1652 6.405 23.002 6.55803 22.5591 7.34141C22.3713 7.67368 22.1778 8.00904 22.1291 8.08661C22.0428 8.22417 22.0291 8.20786 21.5702 7.42249C21.0551 6.54105 20.9115 6.40585 20.4899 6.4053C20.2812 6.40506 20.1928 6.44065 20.0519 6.58159ZM9.9079 8.70754C10.0393 9.18559 10.1472 9.59713 10.1477 9.62202C10.1483 9.64691 9.91473 9.66733 9.62873 9.66733C9.2085 9.66733 9.11498 9.65114 9.14114 9.58299C9.15896 9.53659 9.27622 9.11636 9.40182 8.64906C9.52742 8.18182 9.63888 7.80829 9.64958 7.81892C9.66021 7.82961 9.77644 8.22949 9.9079 8.70754ZM30.6204 9.23912L30.4778 9.35457L30.4476 18.4471C30.431 23.448 30.4038 27.5518 30.3872 27.5667C30.2136 27.7222 29.8717 27.7309 23.9941 27.7309C18.2733 27.7309 17.8872 27.7375 17.77 27.8366C17.5774 27.9997 17.5509 28.2219 17.7013 28.4132L17.83 28.5767H24.111C30.2092 28.5767 30.3987 28.5733 30.6219 28.4594C30.9222 28.3062 31.2104 27.973 31.2898 27.6872C31.3327 27.5328 31.3533 24.547 31.3534 18.4396L31.3538 9.42017L31.2055 9.27192C31.0276 9.094 30.8144 9.08204 30.6204 9.23912ZM3.74489 17.5915C3.44131 17.6786 3.15906 17.9129 3.01298 18.1993C2.84093 18.5364 2.87131 19.1066 3.07732 19.4073C3.34967 19.8048 3.57289 19.9049 4.23865 19.9282C4.74171 19.9458 4.83263 19.9642 4.83415 20.049C4.83511 20.104 4.61285 22.2424 4.34014 24.8009C4.03494 27.6643 3.86161 29.5208 3.88916 29.6299C3.95386 29.8858 4.33888 30.2446 4.634 30.3241C4.81197 30.372 6.5314 30.3868 10.5825 30.3752C16.0126 30.3597 16.2914 30.3536 16.5084 30.2458C16.8234 30.0892 16.9923 29.8297 17.0212 29.4583C17.0343 29.289 16.8255 27.1105 16.5571 24.617C16.2888 22.1235 16.0692 20.0534 16.0692 20.0169C16.0692 19.976 16.253 19.9421 16.5472 19.9287C16.9746 19.9093 17.0497 19.8872 17.257 19.7202C17.9606 19.1536 17.9267 18.1907 17.1869 17.7325L16.8943 17.5513L10.4253 17.5411C6.24679 17.5345 3.88149 17.5524 3.74489 17.5915ZM20.5076 17.6418C20.052 17.8673 20.0263 17.9673 20.0263 19.5147C20.0263 21.5354 19.9994 21.5085 22.019 21.5081C23.5033 21.5079 23.6122 21.4821 23.8629 21.0709C23.9733 20.8898 23.983 20.7645 23.9831 19.5085C23.9834 18.1893 23.9787 18.1361 23.8462 17.9378C23.5905 17.555 23.4426 17.5212 22.0199 17.5212C20.8737 17.5212 20.7278 17.5328 20.5076 17.6418ZM25.4635 17.6064C25.3638 17.6507 25.2143 17.7605 25.1312 17.8504L24.9802 18.0139L24.9621 19.4811L24.9441 20.9483L25.1053 21.1399C25.4018 21.4922 25.4808 21.5083 26.9128 21.5083C28.0792 21.5083 28.2411 21.4961 28.4442 21.3925C28.8636 21.1786 28.888 21.0658 28.866 19.444C28.8467 18.0146 28.8466 18.0138 28.6956 17.8503C28.4177 17.5493 28.2614 17.5209 26.9003 17.5234C25.9893 17.5252 25.595 17.5479 25.4635 17.6064ZM5.01291 18.533C5.01255 18.5911 4.99539 18.7407 4.97479 18.8653L4.93733 19.0918H4.46194C4.06708 19.0918 3.96607 19.0713 3.86572 18.971C3.71873 18.824 3.71203 18.6846 3.84488 18.5378C3.9274 18.4466 4.03826 18.4273 4.47922 18.4273C4.94808 18.4273 5.01351 18.4402 5.01291 18.533ZM10.8742 18.533C10.8745 18.5911 10.9966 21.0175 11.1455 23.9249C11.2945 26.8323 11.4166 29.2722 11.4169 29.347L11.4174 29.4829H8.09967C5.77533 29.4829 4.77548 29.4633 4.7602 29.4176C4.74498 29.3719 5.87936 18.6028 5.91627 18.4424C5.9182 18.4341 7.0344 18.4273 8.39672 18.4273C10.7153 18.4273 10.8737 18.434 10.8742 18.533ZM13.2509 23.6379C13.4765 26.5038 13.6764 28.9913 13.6953 29.1657L13.7297 29.4829H13.0267C12.64 29.4829 12.3218 29.4761 12.3196 29.4678C12.3174 29.4595 12.1881 26.972 12.0322 23.94L11.7488 18.4273H12.2949H12.8409L13.2509 23.6379ZM15.5974 23.8947C15.9195 26.8851 16.1719 29.3659 16.1583 29.4074C16.1401 29.4624 15.9287 29.4829 15.3775 29.4829C14.6421 29.4829 14.6209 29.4792 14.5937 29.347C14.5785 29.2722 14.3875 26.9002 14.1695 24.0759C13.9514 21.2516 13.7577 18.8243 13.7391 18.6819L13.7051 18.4231L14.3584 18.4403L15.0116 18.4575L15.5974 23.8947ZM16.8246 18.5701C16.8937 18.6756 16.9032 18.7526 16.8608 18.864C16.7892 19.0525 16.6881 19.0918 16.2757 19.0918C15.9714 19.0918 15.9484 19.0817 15.9484 18.9483C15.9484 18.8694 15.9314 18.7199 15.9106 18.6161L15.8729 18.4273H16.3019C16.6864 18.4273 16.7407 18.4421 16.8246 18.5701ZM23.1376 19.5147V20.6021H22.0199H20.9023V19.5147V18.4273H22.0199H23.1376V19.5147ZM28.0311 19.5147V20.6021H26.9134H25.7958V19.5147V18.4273H26.9134H28.0311V19.5147ZM20.4466 22.4667C20.0404 22.7144 20.0263 22.7768 20.0263 24.3283C20.0263 25.6482 20.0334 25.738 20.1509 25.8953C20.2194 25.987 20.3505 26.1181 20.4422 26.1866C20.5993 26.3039 20.6896 26.3112 21.979 26.3112C23.2471 26.3112 23.3647 26.3021 23.5605 26.1883C23.9605 25.9558 23.9886 25.8234 23.9698 24.2572C23.9462 22.2882 24.015 22.354 21.9806 22.3544C20.772 22.3546 20.6112 22.3663 20.4466 22.4667ZM25.3892 22.4437C25.2818 22.4904 25.1392 22.6184 25.0722 22.7283C24.9594 22.9133 24.9504 23.0307 24.9504 24.3176C24.9504 26.3534 24.9088 26.3112 26.9134 26.3112C28.918 26.3112 28.8764 26.3534 28.8764 24.3176C28.8764 22.2912 28.9377 22.353 26.9315 22.3565C25.912 22.3583 25.5368 22.3795 25.3892 22.4437ZM23.1239 24.3327L23.1403 25.4352H22.0213H20.9023V24.3162V23.1972L22.0048 23.2136L23.1074 23.2301L23.1239 24.3327ZM28.0311 24.3176V25.4352H26.9134H25.7958V24.3176V23.1999H26.9134H28.0311V24.3176Z" fill="#5C2B78"/>
</svg>
