<svg width="23" height="31" viewBox="0 0 23 31" fill="none" xmlns="http://www.w3.org/2000/svg">
<path fill-rule="evenodd" clip-rule="evenodd" d="M10.08 0.218497C8.96405 0.355576 7.78896 0.64218 6.84044 1.00853C6.05707 1.31112 5.95373 1.39187 5.95373 1.70165C5.95373 1.96561 6.08379 2.15324 6.3051 2.2088C6.39481 2.23133 6.70053 2.14769 7.16845 1.97263C8.67249 1.41004 9.91906 1.17734 11.4298 1.17728C13.0258 1.17711 14.2179 1.39759 15.6846 1.96401C17.2785 2.57957 18.6362 3.4943 19.9668 4.84893C20.5568 5.44962 20.6782 5.54665 20.8395 5.54665C21.0979 5.54665 21.3164 5.32057 21.3164 5.05325C21.3164 4.79089 21.0631 4.4683 20.2449 3.68865C18.2929 1.82859 15.7663 0.612157 13.1398 0.267867C12.5254 0.187294 10.5882 0.156092 10.08 0.218497ZM4.3529 2.29273C3.22442 3.02537 1.40971 4.78865 1.28891 5.26984C1.19926 5.62711 1.53258 5.96385 1.88778 5.87466C1.97378 5.85307 2.1269 5.73965 2.22806 5.62262C3.17888 4.52245 3.78205 3.95491 4.67012 3.32484C5.24303 2.91832 5.33174 2.81799 5.33174 2.57668C5.33174 2.35024 5.27305 2.24673 5.09156 2.15288C4.84265 2.02412 4.7353 2.04447 4.3529 2.29273ZM9.82569 2.15559C7.77964 2.46744 5.82479 3.38223 4.23228 4.77307C3.00063 5.84871 1.95213 7.34897 1.32017 8.93995C1.03911 9.64747 1.11349 9.99512 1.56118 10.0668C1.87533 10.117 2.03017 9.93849 2.33529 9.17412C2.79596 8.02009 3.43269 7.0475 4.35786 6.08482C5.91875 4.46064 7.94875 3.42653 10.1619 3.12818C10.7951 3.04278 12.0745 3.04248 12.7113 3.12754C14.3649 3.34849 16.0325 4.0389 17.394 5.06629C17.8663 5.42273 18.7133 6.24597 19.1321 6.75583C19.7965 7.5645 20.4205 8.67676 20.7753 9.68421C21.0123 10.3572 21.3403 11.0009 21.5051 11.1163C21.6873 11.2439 21.9196 11.2325 22.1048 11.0869C22.3332 10.9072 22.3129 10.6216 22.0311 10.051C21.9051 9.79587 21.7558 9.44108 21.6993 9.26265C21.5287 8.72395 20.9922 7.64277 20.5933 7.03429C18.966 4.55159 16.5088 2.87868 13.5538 2.24159C12.7863 2.07614 10.6677 2.02725 9.82569 2.15559ZM9.962 4.0458C7.35449 4.48641 5.03859 6.0781 3.7154 8.3392C3.15523 9.29633 2.83017 10.162 2.60827 11.2879C2.43987 12.1422 2.42713 13.6141 2.58096 14.4445C2.78994 15.5725 3.50424 17.6136 3.7761 17.8596C3.96278 18.0286 4.28495 18.0364 4.44551 17.8758C4.65862 17.6627 4.64741 17.5167 4.36246 16.7963C3.98897 15.852 3.76176 15.1376 3.61088 14.4334C3.43092 13.5935 3.43163 12.257 3.61247 11.4045C3.9603 9.76461 4.66658 8.45262 5.83152 7.28244C8.7484 4.3524 13.3337 4.14849 16.561 6.80531C16.8788 7.06697 17.0103 7.13922 17.1683 7.13922C17.4408 7.13922 17.6594 6.92022 17.6594 6.64706C17.6594 6.41844 17.5891 6.3256 17.1286 5.94609C15.9203 4.95044 14.3464 4.26156 12.7229 4.01778C12.1484 3.93149 10.542 3.94783 9.962 4.0458ZM11.1053 5.95323C11.0002 6.03834 10.9674 6.12411 10.9674 6.31345C10.9674 6.63892 11.1214 6.76597 11.5708 6.81115C12.7691 6.93154 13.4195 7.0944 14.1204 7.44966C15.6473 8.22359 16.6691 9.41985 17.3065 11.1796C17.6801 12.2113 18.32 13.3487 19.0869 14.3442C19.5841 14.9895 21.3407 16.8007 21.5461 16.8798C21.7254 16.9488 22.0624 16.8437 22.1427 16.6938C22.1748 16.6337 22.2012 16.5003 22.2012 16.3975C22.2012 16.2359 22.0738 16.079 21.2636 15.2432C19.6028 13.5297 18.7528 12.2582 18.1832 10.6352C17.4606 8.57631 15.8596 6.95366 13.8393 6.23234C12.8108 5.86522 11.3928 5.72042 11.1053 5.95323ZM8.77477 6.33297C6.55342 7.23395 4.94168 9.20674 4.46686 11.6058C4.32742 12.3105 4.3299 13.6001 4.47211 14.2763C4.75281 15.6115 5.49802 17.4458 6.44825 19.1405C6.92225 19.9858 7.78743 21.3328 7.98031 21.5256C8.15484 21.7002 8.5137 21.6936 8.68358 21.5128C8.88796 21.2952 8.85316 21.0201 8.57003 20.6159C7.4744 19.0519 6.42372 17.0256 5.8485 15.3675C5.39155 14.0503 5.26952 13.2397 5.38518 12.2898C5.64159 10.1839 6.88073 8.39859 8.72333 7.48033C8.95042 7.36714 9.26893 7.22705 9.43114 7.16895C9.80298 7.03576 9.93251 6.8919 9.93251 6.61214C9.93251 6.3286 9.73957 6.13608 9.45686 6.1375C9.34538 6.13803 9.03842 6.22597 8.77477 6.33297ZM18.1143 7.67079C17.8349 7.89056 17.8482 8.09064 18.1782 8.63253C18.5783 9.28973 18.7228 9.59096 19.0175 10.3834C19.1563 10.7564 19.349 11.2209 19.4457 11.4156C19.8352 12.1991 20.6047 13.2886 21.2683 13.9961C21.5537 14.3005 21.6108 14.3353 21.8245 14.3353C22.1318 14.3353 22.3192 14.1513 22.3192 13.8496C22.3192 13.6788 22.2636 13.5752 22.0368 13.3226C20.9886 12.1556 20.401 11.2153 19.9605 9.99995C19.5502 8.86793 18.8679 7.66406 18.5953 7.5911C18.3674 7.53005 18.2734 7.54568 18.1143 7.67079ZM10.9041 7.72983C8.67491 7.96565 6.87241 9.56819 6.35553 11.7739C6.19698 12.4506 6.21143 13.488 6.38909 14.1878C6.81484 15.8645 8.07763 18.4253 9.39475 20.283C9.90284 20.9996 10.5971 21.8778 11.1872 22.5502C11.8532 23.3093 13.6016 25.0736 13.7782 25.165C14.1557 25.3601 14.5333 25.1483 14.5333 24.7414C14.5333 24.539 14.4525 24.4429 13.2778 23.2494C10.7371 20.6678 9.24741 18.5662 8.08801 15.9279C7.45346 14.4838 7.17099 13.3724 7.24578 12.6137C7.60086 9.00996 11.8661 7.41262 14.3858 9.93961C14.9478 10.5032 15.1762 10.8742 15.4844 11.724C15.8361 12.6939 16.2629 13.5313 16.4484 13.6159C16.6404 13.7034 16.7298 13.7044 16.9129 13.621C17.0658 13.5513 17.1876 13.3433 17.1876 13.1517C17.1876 13.0877 17.0712 12.8036 16.929 12.5203C16.7868 12.2372 16.5864 11.7665 16.4837 11.4746C15.9774 10.035 15.2712 9.12669 14.1108 8.42278C13.2156 7.87977 11.9902 7.61499 10.9041 7.72983ZM10.6139 9.68297C10.1177 9.79923 9.51437 10.1485 9.11328 10.5517C8.44569 11.2228 8.14075 11.9641 8.13933 12.9197C8.13833 13.5834 8.31787 14.2718 8.53087 14.4211C8.7133 14.5488 9.02356 14.5364 9.16424 14.3957C9.34225 14.2177 9.36514 14.0195 9.24735 13.6745C9.1771 13.4688 9.14212 13.2009 9.14495 12.8902C9.15079 12.2397 9.31117 11.841 9.75992 11.3613C10.6624 10.3966 12.0281 10.3381 13.0338 11.2211C13.3137 11.4669 13.4888 11.7823 13.7989 12.5997C14.3057 13.9355 15.03 15.2273 15.9793 16.4882C17.0548 17.9169 19.0157 19.8653 20.8947 21.3723C21.2895 21.6889 21.4278 21.7673 21.5917 21.7673C21.8672 21.7673 21.9997 21.6865 22.074 21.4736C22.1781 21.1747 22.0664 20.9971 21.4772 20.5254C20.0503 19.3827 17.922 17.3093 17.0611 16.2228C15.9771 14.8548 15.1475 13.3973 14.6481 11.9832C14.5407 11.679 14.3561 11.2809 14.2379 11.0984C13.8102 10.438 13.069 9.90228 12.3094 9.70438C11.9373 9.60747 10.9873 9.59544 10.6139 9.68297ZM0.854139 11.0174C0.502653 11.3057 0.471156 13.5264 0.795863 15.128C1.22279 17.2339 2.75744 20.5711 4.45406 23.083C5.69131 24.9149 7.6658 27.258 8.04171 27.3406C8.35132 27.4086 8.62972 27.1819 8.63297 26.8592C8.63503 26.6537 8.55198 26.5371 7.90493 25.8372C4.90263 22.5897 2.27047 17.7705 1.70333 14.4827C1.58985 13.8251 1.56059 12.6558 1.6358 11.7869C1.6847 11.222 1.68334 11.2124 1.53523 11.0643C1.35562 10.8847 1.0423 10.8631 0.854139 11.0174ZM10.726 11.6759C10.358 11.887 10.1287 12.208 10.0384 12.639C9.97981 12.9184 9.98494 13.0251 10.0722 13.3422C10.4379 14.67 11.5114 16.7636 12.6051 18.282C13.8648 20.0308 16.2612 22.4884 18.3377 24.161C19.6274 25.1999 20.0431 25.4833 20.2773 25.4833C20.6592 25.4833 20.9021 25.1033 20.728 24.778C20.6963 24.7188 20.3154 24.4026 19.8817 24.0755C17.8232 22.5228 15.4548 20.2594 14.0481 18.5005C12.9075 17.0745 11.6421 14.861 11.171 13.4678L10.9674 12.8658L11.0899 12.701C11.2287 12.5143 11.5483 12.4511 11.7124 12.5779C11.7669 12.6199 11.9086 12.9197 12.0274 13.2441C12.76 15.2432 13.9999 17.2218 15.6746 19.0638C16.3538 19.8108 16.5074 19.9011 16.8222 19.7382C17.021 19.6354 17.0696 19.5406 17.0696 19.255C17.0696 19.0849 17.0013 18.9802 16.6395 18.5962C14.9586 16.8121 13.7001 14.848 12.9675 12.8656C12.5758 11.806 12.2348 11.5035 11.4327 11.5046C11.09 11.5051 10.9755 11.5328 10.726 11.6759ZM17.3324 14.4211C17.0849 14.6685 17.1326 14.8981 17.5432 15.4341C18.2972 16.4185 19.7669 17.9253 21.11 19.0906C21.5956 19.5119 21.6822 19.5506 21.9452 19.4638C22.1768 19.3873 22.2602 19.258 22.2602 18.9747C22.2602 18.7501 22.3186 18.8141 21.11 17.7148C20.253 16.9353 19.0637 15.7024 18.5795 15.0916C17.9778 14.3325 17.916 14.2763 17.6826 14.2763C17.5431 14.2763 17.4306 14.3228 17.3324 14.4211ZM9.19255 15.4238C8.97614 15.6402 9.00881 15.8522 9.36938 16.5712C10.1163 18.0605 11.0331 19.4421 12.1705 20.7925C13.7677 22.6889 16.1522 24.9195 18.2733 26.5015C18.9152 26.9803 18.9985 27.0256 19.1823 26.9958C19.4817 26.9472 19.6059 26.8067 19.6059 26.5166C19.6059 26.2332 19.5924 26.2181 18.8096 25.6282C16.2029 23.6638 13.3624 20.852 11.8999 18.7884C11.34 17.9984 10.7853 17.0936 10.3401 16.2444C10.1382 15.8594 9.91953 15.4848 9.85406 15.4117C9.68931 15.2281 9.38266 15.2337 9.19255 15.4238ZM4.65343 18.6479C4.24431 18.88 4.28259 19.1362 4.88376 20.1892C6.20424 22.5021 7.54813 24.2579 9.60809 26.3618C11.2916 28.0811 13.3519 29.9377 13.7404 30.0854C14.1488 30.2407 14.548 29.7975 14.3454 29.4137C14.3028 29.3329 13.9095 28.9641 13.4716 28.5941C10.057 25.7101 7.47605 22.7238 5.78669 19.7027C5.5419 19.2648 5.29287 18.8467 5.23342 18.7736C5.1053 18.6161 4.81888 18.554 4.65343 18.6479ZM0.732455 19.5834C0.446029 19.8698 0.535448 20.134 1.5104 21.8826C2.96247 24.4868 4.52183 26.551 6.90196 29.0197C7.36009 29.4949 7.63472 29.7343 7.75098 29.7598C8.10948 29.8386 8.44811 29.5046 8.36129 29.1579C8.33651 29.059 7.99859 28.6621 7.51776 28.1671C7.07649 27.7129 6.51361 27.1157 6.26688 26.8399C4.63025 25.0111 2.92902 22.5104 1.8531 20.3517C1.68328 20.011 1.48946 19.6726 1.42233 19.5996C1.2629 19.4263 0.898142 19.4177 0.732455 19.5834ZM17.7411 20.2002C17.503 20.304 17.3955 20.5816 17.4988 20.8258C17.6053 21.0778 19.0988 22.3969 20.3891 23.3787C20.8174 23.7047 20.9456 23.7727 21.1309 23.7727C21.4204 23.7727 21.6114 23.5823 21.6114 23.2936C21.6114 23.0409 21.5641 22.9809 21.0805 22.6205C20.5271 22.2081 19.4953 21.3507 18.7938 20.7203C18.4599 20.4203 18.1631 20.1747 18.1343 20.1747C18.1055 20.1747 18.0466 20.1624 18.0034 20.1473C17.9602 20.1324 17.8422 20.1561 17.7411 20.2002ZM9.2247 22.1975C9.03247 22.2947 8.91515 22.5438 8.96605 22.7466C8.98805 22.8342 9.24628 23.1872 9.53991 23.531C10.2392 24.3499 12.4772 26.5887 13.4165 27.4091C14.2742 28.1581 15.5657 29.2073 15.7533 29.3075C16.1825 29.5366 16.6237 29.1121 16.4437 28.6431C16.4239 28.5915 16.1783 28.3681 15.8981 28.1468C14.2846 26.8727 12.5106 25.2443 11.2123 23.8455C10.7084 23.3026 10.1884 22.7271 10.0568 22.5665C9.70371 22.1355 9.51378 22.0513 9.2247 22.1975ZM1.63432 24.54C1.3003 24.6746 1.29687 25.0715 1.62553 25.5603C2.24499 26.4813 3.72466 28.3327 3.893 28.3973C4.21913 28.5224 4.58854 28.2839 4.58854 27.9482C4.58854 27.7236 4.60176 27.7436 3.79202 26.7434C3.48041 26.3586 2.99172 25.7162 2.70606 25.316C2.12684 24.5046 1.98209 24.3998 1.63432 24.54ZM15.1334 25.6788C15.009 25.8112 14.9662 26.0799 15.0392 26.2701C15.0792 26.3746 16.0073 27.1505 16.9164 27.8396C17.5097 28.2892 17.576 28.3244 17.7717 28.2931C18.0396 28.2502 18.1903 28.0685 18.1903 27.7882C18.1903 27.5371 18.124 27.4647 17.3876 26.9116C17.1246 26.7141 16.6338 26.3251 16.297 26.0474C15.7801 25.621 15.6517 25.5423 15.4731 25.5423C15.3283 25.5423 15.2212 25.5853 15.1334 25.6788ZM9.17598 27.9202C9.09322 28.0083 9.04774 28.1322 9.04774 28.2696C9.04774 28.4609 9.10337 28.5364 9.59335 29.0102C9.89346 29.3003 10.3512 29.727 10.6106 29.9584C11.0359 30.3376 11.1066 30.379 11.3289 30.379C11.5251 30.379 11.6005 30.3472 11.6977 30.2235C11.765 30.1381 11.82 29.9906 11.82 29.8957C11.82 29.6942 11.6853 29.5475 10.5366 28.4981C9.82297 27.8463 9.73473 27.7837 9.52935 27.7837C9.37033 27.7837 9.26657 27.8237 9.17598 27.9202Z" fill="#5C2B78"/>
</svg>
