<svg width="51" height="40" viewBox="0 0 51 40" fill="none" xmlns="http://www.w3.org/2000/svg">
<path fill-rule="evenodd" clip-rule="evenodd" d="M24.8936 0.0491629C20.8099 0.297377 16.7247 1.8775 13.501 4.45591C12.2132 5.48596 11.4753 6.18528 10.6215 7.1854C8.64321 9.50233 7.17156 12.4199 6.51274 15.3311L6.29271 16.303L3.83552 16.3514L1.37823 16.3998L1.05875 16.7164C0.787577 16.9852 0.739366 17.1024 0.740246 17.4912C0.741126 17.9332 0.841166 18.0924 3.57373 22.0015C5.41689 24.6382 6.49944 26.1012 6.67282 26.19C6.98292 26.3489 7.32518 26.3642 7.66931 26.2346C7.96904 26.1218 8.07094 25.9843 11.1851 21.4968C13.8869 17.6032 13.9089 17.5604 13.5297 16.9247C13.2212 16.4076 12.945 16.3514 10.7111 16.3514H8.68418L8.74432 15.9794C9.0376 14.163 10.2048 11.5892 11.6169 9.64518C15.0515 4.9168 21.4973 1.87692 26.9929 2.39359C31.8424 2.84954 35.8738 5.00658 39.5749 9.1257L40.1744 9.79286L40.6936 9.74338C41.3782 9.6783 41.7628 9.29343 41.7618 8.67488C41.7611 8.18581 41.662 8.02728 40.619 6.84712C37.7593 3.61113 33.5696 1.21828 29.2942 0.379405C28.3215 0.188523 26.236 -0.02841 25.6759 0.00306475C25.5146 0.0120714 25.1625 0.0328929 24.8936 0.0491629ZM20.6335 12.8898C20.1589 13.2056 19.974 13.7537 20.1792 14.2375C20.454 14.8857 20.6413 14.9411 22.7407 14.9956C24.5002 15.0412 24.6343 15.0581 25.0915 15.2914C25.3669 15.432 25.7196 15.7247 25.9081 15.9694L26.2398 16.3998L23.5574 16.4483C20.551 16.5025 20.4699 16.5207 20.1792 17.2064C19.9748 17.6884 20.159 18.2384 20.6297 18.5515C20.9552 18.768 21.0159 18.7726 23.5879 18.7726C25.0322 18.7726 26.2138 18.799 26.2138 18.8312C26.2138 19.0037 25.5482 19.6818 25.1532 19.9117C24.7092 20.1703 24.6514 20.178 22.7911 20.2252C20.7702 20.2766 20.6284 20.3089 20.2824 20.7983C20.0838 21.0788 20.093 21.6993 20.3007 22.0313C20.5958 22.5033 26.9612 28.3968 27.3319 28.5412C28.1578 28.8632 29.0031 28.09 28.8044 27.1943C28.7555 26.9739 28.1658 26.3612 26.4531 24.7515L24.1669 22.603L24.8237 22.4718C26.4533 22.1461 27.9943 20.8258 28.5148 19.3095L28.6933 18.7892L29.711 18.7567C30.7183 18.7244 30.7314 18.7209 31.0117 18.4102C31.3768 18.0051 31.4524 17.6864 31.2861 17.2534C31.0549 16.6519 30.7402 16.5014 29.6342 16.4636L28.6677 16.4304L28.5521 16.0762C28.4885 15.8813 28.3535 15.5585 28.2521 15.3588L28.0678 14.9956L29.2678 14.9952C30.293 14.9949 30.5141 14.9668 30.7868 14.8022C31.4671 14.3914 31.5666 13.5427 30.998 13.003L30.6994 12.7197L25.8345 12.6929L20.9697 12.6662L20.6335 12.8898ZM43.6501 13.882C43.5349 13.9619 42.1781 15.8403 40.6351 18.0562C37.572 22.4551 37.5431 22.5099 37.9676 23.1291C38.3472 23.6829 38.4704 23.7087 40.747 23.7102L42.812 23.7117L42.6755 24.297C41.4874 29.3901 37.9403 33.6555 32.9402 36.0043C28.2574 38.2041 23.6719 38.2865 18.982 36.2553C16.3611 35.12 14.2019 33.5097 11.9347 30.9993C11.3584 30.361 11.2668 30.2971 10.9291 30.2971C10.1438 30.2971 9.61828 30.8507 9.71636 31.5745C9.84232 32.5044 12.8317 35.3929 15.2612 36.9321C17.516 38.3606 20.407 39.4393 23.0644 39.8439C24.4293 40.0515 26.9009 40.0522 28.2674 39.8451C36.2589 38.6341 42.9707 32.6936 44.8057 25.2071C44.9745 24.5178 45.1277 23.8993 45.146 23.8327C45.1713 23.7401 45.7338 23.7117 47.5384 23.7117C49.5868 23.7117 49.9351 23.6899 50.1803 23.5464C50.5441 23.3336 50.7959 22.811 50.7296 22.4064C50.673 22.0606 45.4686 14.4513 44.9821 14.0029C44.648 13.6951 44.0039 13.6366 43.6501 13.882Z" fill="black"/>
</svg>
