<svg width="56" height="56" viewBox="0 0 56 56" fill="none" xmlns="http://www.w3.org/2000/svg">
<circle cx="28" cy="28" r="28" fill="#FFAB00" fill-opacity="0.1"/>
<path d="M30.2492 16.75C29.361 16.7511 28.4752 16.8397 27.6043 17.0144C28.0708 18.4876 28.1237 20.0606 27.7573 21.5618C27.3909 23.063 26.6193 24.4347 25.5266 25.5274C24.4339 26.62 23.0622 27.3917 21.561 27.7581C20.0598 28.1245 18.4868 28.0716 17.0136 27.6051C16.4682 30.3348 16.78 33.1663 17.9062 35.712C19.0325 38.2576 20.9181 40.3928 23.3048 41.8253C25.6916 43.2578 28.4628 43.9174 31.239 43.7139C34.0152 43.5103 36.6606 42.4536 38.8129 40.6884C40.9653 38.9231 42.5193 36.5357 43.2623 33.8531C44.0052 31.1704 43.9007 28.3237 42.9631 25.7027C42.0254 23.0818 40.3005 20.8147 38.0246 19.212C35.7486 17.6094 33.0328 16.7494 30.2492 16.75ZM36.9992 31.375H30.2492C29.9508 31.375 29.6647 31.2565 29.4537 31.0455C29.2427 30.8345 29.1242 30.5484 29.1242 30.25V23.5C29.1242 23.2016 29.2427 22.9155 29.4537 22.7045C29.6647 22.4935 29.9508 22.375 30.2492 22.375C30.5476 22.375 30.8337 22.4935 31.0447 22.7045C31.2557 22.9155 31.3742 23.2016 31.3742 23.5V29.125H36.9992C37.2976 29.125 37.5837 29.2435 37.7947 29.4545C38.0057 29.6655 38.1242 29.9516 38.1242 30.25C38.1242 30.5484 38.0057 30.8345 37.7947 31.0455C37.5837 31.2565 37.2976 31.375 36.9992 31.375Z" fill="#E6A070"/>
<path d="M26.875 19.5625C26.875 18.1162 26.4461 16.7024 25.6426 15.4999C24.8391 14.2974 23.6971 13.3601 22.3609 12.8066C21.0247 12.2532 19.5544 12.1084 18.1359 12.3905C16.7174 12.6727 15.4145 13.3691 14.3918 14.3918C13.3691 15.4145 12.6727 16.7174 12.3905 18.1359C12.1084 19.5544 12.2532 21.0247 12.8066 22.3609C13.3601 23.6971 14.2974 24.8391 15.4999 25.6426C16.7024 26.4461 18.1162 26.875 19.5625 26.875C21.5012 26.8726 23.3597 26.1014 24.7306 24.7306C26.1014 23.3597 26.8726 21.5012 26.875 19.5625ZM18.4375 16.75C18.4375 16.4516 18.556 16.1655 18.767 15.9545C18.978 15.7435 19.2641 15.625 19.5625 15.625C19.8609 15.625 20.147 15.7435 20.358 15.9545C20.569 16.1655 20.6875 16.4516 20.6875 16.75V19C20.6875 19.2984 20.569 19.5845 20.358 19.7955C20.147 20.0065 19.8609 20.125 19.5625 20.125C19.2641 20.125 18.978 20.0065 18.767 19.7955C18.556 19.5845 18.4375 19.2984 18.4375 19V16.75ZM18.4375 22.375C18.4375 22.1525 18.5035 21.935 18.6271 21.75C18.7507 21.565 18.9264 21.4208 19.132 21.3356C19.3376 21.2505 19.5638 21.2282 19.782 21.2716C20.0002 21.315 20.2007 21.4222 20.358 21.5795C20.5153 21.7368 20.6225 21.9373 20.6659 22.1555C20.7093 22.3738 20.687 22.6 20.6019 22.8055C20.5167 23.0111 20.3725 23.1868 20.1875 23.3104C20.0025 23.434 19.785 23.5 19.5625 23.5C19.2641 23.5 18.978 23.3815 18.767 23.1705C18.556 22.9595 18.4375 22.6734 18.4375 22.375Z" fill="#E6A070"/>
</svg>
