<svg width="56" height="56" viewBox="0 0 56 56" fill="none" xmlns="http://www.w3.org/2000/svg">
<circle cx="28" cy="28" r="28" fill="#FF5630" fill-opacity="0.1"/>
<path d="M41.5918 33.201C39.1787 30.7878 35.2659 30.7878 32.8528 33.201C30.4397 35.6141 30.4397 39.5268 32.8528 41.94C35.2659 44.3531 39.1787 44.3531 41.5918 41.94C44.0049 39.5268 44.0049 35.6141 41.5918 33.201ZM39.4363 38.3501C39.8323 38.7461 39.8323 39.3873 39.4363 39.7822C39.2383 39.9802 38.9796 40.0792 38.7197 40.0792C38.4598 40.0792 38.2011 39.9802 38.0031 39.7822L37.2246 39.0037L36.4449 39.7833C36.2469 39.9813 35.9882 40.0803 35.7283 40.0803C35.4684 40.0803 35.2097 39.9813 35.0117 39.7833C34.6157 39.3873 34.6157 38.7461 35.0117 38.3512L35.7913 37.5716L35.0117 36.792C34.6157 36.396 34.6157 35.7547 35.0117 35.3598C35.4077 34.965 36.0489 34.9638 36.4438 35.3598L37.2234 36.1395L38.0031 35.3598C38.3991 34.9638 39.0403 34.9638 39.4352 35.3598C39.8301 35.7558 39.8312 36.3971 39.4352 36.792L38.6556 37.5716L39.4363 38.3501Z" fill="#D18C8C"/>
<path d="M29.3557 37.5704C29.3557 35.4689 30.1747 33.4934 31.6608 32.0084C33.1458 30.5222 35.1213 29.7032 37.2228 29.7032C38.1273 29.7032 39.0048 29.8641 39.8339 30.1544V15.5012C39.8339 13.7057 38.3782 12.25 36.5827 12.25H15.8489C14.0489 12.25 12.5977 13.7125 12.5977 15.5012V37.0675C12.5977 38.8574 14.0478 40.3075 15.8377 40.3075H29.8529C29.5312 39.4424 29.3557 38.521 29.3557 37.5704ZM17.9504 18.2508H34.471C35.0302 18.2508 35.4835 18.7041 35.4835 19.2633C35.4835 19.8224 35.0302 20.2757 34.471 20.2757H17.9504C17.3913 20.2757 16.9379 19.8224 16.9379 19.2633C16.9379 18.7041 17.3913 18.2508 17.9504 18.2508ZM17.9504 25.264H34.471C35.0302 25.264 35.4835 25.7174 35.4835 26.2765C35.4835 26.8356 35.0302 27.289 34.471 27.289H17.9504C17.3913 27.289 16.9379 26.8356 16.9379 26.2765C16.9379 25.7174 17.3913 25.264 17.9504 25.264ZM26.9392 34.3011H17.9504C17.3913 34.3011 16.9379 33.8478 16.9379 33.2886C16.9379 32.7295 17.3913 32.2761 17.9504 32.2761H26.9392C27.4983 32.2761 27.9517 32.7295 27.9517 33.2886C27.9517 33.8478 27.4983 34.3011 26.9392 34.3011Z" fill="#D18C8C"/>
</svg>
