<svg width="56" height="56" viewBox="0 0 56 56" fill="none" xmlns="http://www.w3.org/2000/svg">
<circle cx="28" cy="28" r="28" fill="#36B37E" fill-opacity="0.1"/>
<path d="M31.0938 30.5312H24.9062C24.2849 30.5312 23.7812 31.0349 23.7812 31.6562V42.3438C23.7812 42.9651 24.2849 43.4688 24.9062 43.4688H31.0938C31.7151 43.4688 32.2188 42.9651 32.2188 42.3438V31.6562C32.2188 31.0349 31.7151 30.5312 31.0938 30.5312Z" fill="#87B87F"/>
<path d="M20.9688 33.9062H14.7812C14.1599 33.9062 13.6562 34.4099 13.6562 35.0312V42.3438C13.6562 42.9651 14.1599 43.4688 14.7812 43.4688H20.9688C21.5901 43.4688 22.0938 42.9651 22.0938 42.3438V35.0312C22.0938 34.4099 21.5901 33.9062 20.9688 33.9062Z" fill="#87B87F"/>
<path d="M41.2188 23.7812H35.0312C34.4099 23.7812 33.9062 24.2849 33.9062 24.9062V42.3438C33.9062 42.9651 34.4099 43.4688 35.0312 43.4688H41.2188C41.8401 43.4688 42.3438 42.9651 42.3438 42.3438V24.9062C42.3438 24.2849 41.8401 23.7812 41.2188 23.7812Z" fill="#87B87F"/>
<path d="M37.4978 13.1367L36.6637 15.0837C36.6111 15.2067 36.5235 15.3114 36.4119 15.385C36.3003 15.4587 36.1696 15.4979 36.0359 15.4979H34.3101C34.175 15.498 34.0429 15.5381 33.9305 15.6132C33.8182 15.6883 33.7306 15.795 33.6789 15.9199C33.6272 16.0448 33.6137 16.1821 33.6401 16.3147C33.6665 16.4472 33.7316 16.569 33.8271 16.6645L35.1199 17.9578C35.2033 18.0412 35.2637 18.1449 35.2952 18.2586C35.3267 18.3723 35.3282 18.4923 35.2996 18.6067L34.6887 21.0514C34.6562 21.1812 34.6626 21.3178 34.707 21.4441C34.7515 21.5704 34.8321 21.6808 34.9388 21.7617C35.0455 21.8426 35.1736 21.8903 35.3072 21.899C35.4408 21.9076 35.574 21.8768 35.6903 21.8104L37.7868 20.6119C37.89 20.5529 38.0068 20.5219 38.1257 20.5219C38.2446 20.5219 38.3614 20.5529 38.4646 20.6119L40.5612 21.8104C40.6774 21.8768 40.8106 21.9076 40.9442 21.899C41.0778 21.8903 41.2059 21.8426 41.3127 21.7617C41.4194 21.6808 41.5 21.5704 41.5444 21.4441C41.5889 21.3178 41.5952 21.1812 41.5627 21.0514L40.9519 18.6067C40.9233 18.4923 40.9248 18.3723 40.9563 18.2586C40.9877 18.1449 41.0481 18.0412 41.1315 17.9578L42.4243 16.6645C42.5198 16.5689 42.5849 16.4472 42.6112 16.3146C42.6376 16.1821 42.6241 16.0447 42.5724 15.9199C42.5207 15.795 42.4331 15.6883 42.3208 15.6132C42.2085 15.5381 42.0764 15.498 41.9412 15.4979H40.2155C40.0818 15.4979 39.951 15.4586 39.8394 15.385C39.7278 15.3114 39.6403 15.2066 39.5876 15.0837L38.7535 13.1367C38.7009 13.0138 38.6134 12.909 38.5017 12.8354C38.3901 12.7618 38.2594 12.7225 38.1257 12.7225C37.992 12.7225 37.8612 12.7618 37.7496 12.8354C37.638 12.909 37.5505 13.0138 37.4978 13.1367Z" fill="#87B87F"/>
<path d="M16.7507 29.1244C16.5146 29.1246 16.2843 29.0505 16.0926 28.9125C15.901 28.7745 15.7576 28.5797 15.6828 28.3557C15.6081 28.1316 15.6057 27.8898 15.6761 27.6643C15.7465 27.4389 15.8861 27.2413 16.0751 27.0997L19.8999 24.2306C20.2904 23.9403 20.7641 23.7837 21.2507 23.784C21.7373 23.7843 22.2108 23.9415 22.6009 24.2322L23.4354 24.8573L28.3721 20.4134C28.5939 20.2136 28.8859 20.1102 29.184 20.1258C29.4821 20.1414 29.7618 20.2748 29.9615 20.4966C30.1612 20.7184 30.2647 21.0105 30.2491 21.3086C30.2335 21.6066 30.1001 21.8863 29.8783 22.086L24.941 26.53C24.5269 26.9014 23.99 27.1067 23.4337 27.1063C22.9475 27.1078 22.4741 26.9504 22.0857 26.658L21.2502 26.0318L17.4253 28.8998C17.2309 29.0461 16.994 29.125 16.7507 29.1244Z" fill="#87B87F"/>
<path d="M29.125 25.75C28.8268 25.7496 28.5408 25.631 28.3299 25.4201C28.119 25.2092 28.0004 24.9232 28 24.625V22.375H25.75C25.4516 22.375 25.1655 22.2565 24.9545 22.0455C24.7435 21.8345 24.625 21.5484 24.625 21.25C24.625 20.9516 24.7435 20.6655 24.9545 20.4545C25.1655 20.2435 25.4516 20.125 25.75 20.125H29.125C29.4232 20.1254 29.7092 20.244 29.9201 20.4549C30.131 20.6658 30.2496 20.9518 30.25 21.25V24.625C30.2496 24.9232 30.131 25.2092 29.9201 25.4201C29.7092 25.631 29.4232 25.7496 29.125 25.75Z" fill="#87B87F"/>
</svg>
