<svg width="33" height="31" viewBox="0 0 33 31" fill="none" xmlns="http://www.w3.org/2000/svg">
<path fill-rule="evenodd" clip-rule="evenodd" d="M2.6713 0.232351C2.00086 0.394009 1.41016 0.883169 1.1034 1.53061L0.90625 1.94672V9.32036V16.694L1.1034 17.1101C1.34829 17.627 1.72204 17.9986 2.24975 18.2502L2.65593 18.4437H6.12404H9.59215L10.0078 18.2468C10.5352 17.9969 10.895 17.6371 11.1449 17.1096L11.3418 16.694V9.32036V1.94672L11.1449 1.53111C10.895 1.00365 10.5352 0.643838 10.0078 0.393946L9.59215 0.197045L6.24901 0.186422C4.41029 0.180548 2.80034 0.201232 2.6713 0.232351ZM2.66386 1.0074C2.53083 1.05482 2.31993 1.17455 2.1952 1.27335C1.95 1.46775 1.62487 2.03614 1.62487 2.27035V2.41539H6.13097H10.6371L10.5943 2.18105C10.4979 1.65434 10.0968 1.19849 9.5644 1.01065C9.18391 0.87642 3.03948 0.873545 2.66386 1.0074ZM1.62487 8.50801V13.8508H6.12404H10.6232V8.50801V3.16525H6.12404H1.62487V8.50801ZM5.46791 5.08108C4.74848 5.23468 3.89738 5.74158 3.46234 6.27567C2.90657 6.95792 2.6638 7.63661 2.6638 8.50801C2.6638 10.5252 4.30868 12.068 6.34275 11.9586C7.81754 11.8794 9.03994 10.897 9.47336 9.44265C9.62102 8.94724 9.62095 8.06959 9.47329 7.57068C9.12086 6.37984 8.15947 5.4467 6.96438 5.13539C6.62851 5.0479 5.76929 5.01672 5.46791 5.08108ZM5.24751 5.93205C4.52421 6.17863 3.97 6.67916 3.65256 7.37266C2.96718 8.86963 3.74029 10.6173 5.30263 11.1028C6.69893 11.5368 8.15266 10.8188 8.69169 9.42903C8.88709 8.92531 8.88709 8.09071 8.69169 7.58699C8.14448 6.17607 6.64506 5.45558 5.24751 5.93205ZM4.74929 6.53962C4.68055 6.60836 4.62431 6.72084 4.62431 6.78958C4.62431 7.05703 4.8359 7.16451 5.36224 7.16451C5.69455 7.16451 5.88889 7.19375 5.9715 7.25624C6.08086 7.33898 6.03287 7.34822 5.48353 7.34997C4.95919 7.35172 4.85683 7.36941 4.74929 7.47695C4.68055 7.54569 4.62431 7.65817 4.62431 7.72691C4.62431 7.79564 4.68055 7.90812 4.74929 7.97686C4.85683 8.0844 4.95925 8.10215 5.48353 8.1039L6.09279 8.10602L5.94526 8.22887C5.82784 8.32667 5.70349 8.35179 5.33599 8.35179C4.95756 8.35179 4.85171 8.37435 4.74929 8.47677C4.48484 8.74122 4.5164 8.7889 5.67849 9.87738C6.49647 10.6436 6.6365 10.7138 6.8739 10.4764C7.09873 10.2516 7.02631 10.1077 6.38568 9.50739L5.92876 9.07916L6.16465 8.96437C6.46722 8.8172 6.7168 8.57694 6.84272 8.31161C6.92733 8.13327 6.97463 8.10184 7.15803 8.10184C7.29051 8.10184 7.42205 8.0536 7.49878 7.97686C7.7548 7.72084 7.59908 7.41371 7.18478 7.35735C6.82428 7.30836 6.77492 7.16451 7.11866 7.16451C7.40236 7.16451 7.62376 7.00016 7.62376 6.78958C7.62376 6.72084 7.56752 6.60836 7.49878 6.53962C7.38212 6.42296 7.29051 6.41465 6.12404 6.41465C4.95756 6.41465 4.86596 6.42296 4.74929 6.53962ZM1.62487 15.4956C1.62487 16.5675 1.70541 16.8716 2.09191 17.258C2.56126 17.7274 2.54082 17.7251 6.12404 17.7251C9.71437 17.7251 9.67088 17.7302 10.1496 17.2515C10.5476 16.8535 10.6232 16.5731 10.6232 15.4956V14.6006H6.12404H1.62487V15.4956ZM4.94132 15.9526C4.87008 16.0431 4.81178 16.1377 4.81178 16.1628C4.81178 16.188 4.87008 16.2826 4.94132 16.3731L5.07079 16.5378H6.11891C7.05486 16.5378 7.17803 16.5255 7.27039 16.4235C7.40699 16.2726 7.4018 16.0201 7.25951 15.8913C7.16284 15.8039 6.9855 15.7879 6.10804 15.7879H5.07079L4.94132 15.9526Z" fill="#5C2B78"/>
<path fill-rule="evenodd" clip-rule="evenodd" d="M23.9799 12.1677C23.3095 12.3293 22.7188 12.8185 22.412 13.4659L22.2148 13.882V21.2557V28.6293L22.412 29.0454C22.6569 29.5623 23.0306 29.9339 23.5583 30.1855L23.9645 30.379H27.4326H30.9007L31.3163 30.1821C31.8438 29.9322 32.2036 29.5724 32.4535 29.0449L32.6504 28.6293V21.2557V13.882L32.4535 13.4664C32.2036 12.9389 31.8438 12.5791 31.3163 12.3292L30.9007 12.1323L27.5576 12.1217C25.7189 12.1159 24.1089 12.1365 23.9799 12.1677ZM23.9725 12.9427C23.8394 12.9901 23.6285 13.1099 23.5038 13.2086C23.2586 13.4031 22.9335 13.9714 22.9335 14.2057V14.3507H27.4396H31.9457L31.9029 14.1164C31.8065 13.5896 31.4054 13.1338 30.873 12.9459C30.4925 12.8117 24.3481 12.8088 23.9725 12.9427ZM22.9335 20.4433V25.7861H27.4326H31.9318V20.4433V15.1005H27.4326H22.9335V20.4433ZM26.7765 17.0164C26.0571 17.17 25.206 17.6769 24.7709 18.211C24.2152 18.8932 23.9724 19.5719 23.9724 20.4433C23.9724 22.4605 25.6173 24.0033 27.6513 23.8939C29.1261 23.8147 30.3485 22.8323 30.7819 21.378C30.9296 20.8825 30.9295 20.0049 30.7819 19.506C30.4295 18.3151 29.4681 17.382 28.273 17.0707C27.9371 16.9832 27.0779 16.952 26.7765 17.0164ZM26.5561 17.8674C25.8328 18.1139 25.2786 18.6145 24.9611 19.308C24.2758 20.8049 25.0489 22.5526 26.6112 23.0381C28.0075 23.4721 29.4613 22.7541 30.0003 21.3643C30.1957 20.8606 30.1957 20.026 30.0003 19.5223C29.4531 18.1114 27.9537 17.3909 26.5561 17.8674ZM26.0579 18.4749C25.9891 18.5437 25.9329 18.6561 25.9329 18.7249C25.9329 18.9923 26.1445 19.0998 26.6708 19.0998C27.0031 19.0998 27.1975 19.1291 27.2801 19.1915C27.3895 19.2743 27.3415 19.2835 26.7921 19.2853C26.2678 19.287 26.1654 19.3047 26.0579 19.4123C25.9891 19.481 25.9329 19.5935 25.9329 19.6622C25.9329 19.7309 25.9891 19.8434 26.0579 19.9122C26.1654 20.0197 26.2678 20.0375 26.7921 20.0392L27.4014 20.0413L27.2539 20.1642C27.1364 20.262 27.0121 20.2871 26.6446 20.2871C26.2662 20.2871 26.1603 20.3097 26.0579 20.4121C25.7934 20.6765 25.825 20.7242 26.9871 21.8127C27.8051 22.5789 27.9451 22.6491 28.1825 22.4117C28.4073 22.1869 28.3349 22.043 27.6943 21.4427L27.2374 21.0145L27.4732 20.8997C27.7758 20.7525 28.0254 20.5122 28.1513 20.2469C28.2359 20.0686 28.2832 20.0371 28.4666 20.0371C28.5991 20.0371 28.7306 19.9889 28.8074 19.9122C29.0634 19.6561 28.9077 19.349 28.4934 19.2927C28.1329 19.2437 28.0835 19.0998 28.4273 19.0998C28.711 19.0998 28.9324 18.9355 28.9324 18.7249C28.9324 18.6561 28.8761 18.5437 28.8074 18.4749C28.6907 18.3583 28.5991 18.35 27.4326 18.35C26.2662 18.35 26.1745 18.3583 26.0579 18.4749ZM22.9335 27.4309C22.9335 28.5028 23.014 28.8069 23.4005 29.1933C23.8699 29.6627 23.8494 29.6604 27.4326 29.6604C31.023 29.6604 30.9795 29.6655 31.4582 29.1868C31.8562 28.7888 31.9318 28.5084 31.9318 27.4309V26.5359H27.4326H22.9335V27.4309ZM26.2499 27.8879C26.1787 27.9784 26.1204 28.073 26.1204 28.0982C26.1204 28.1233 26.1787 28.2179 26.2499 28.3084L26.3794 28.4731H27.4275C28.3635 28.4731 28.4866 28.4608 28.579 28.3588C28.7156 28.2079 28.7104 27.9554 28.5681 27.8266C28.4714 27.7392 28.2941 27.7232 27.4166 27.7232H26.3794L26.2499 27.8879Z" fill="#5C2B78"/>
<path fill-rule="evenodd" clip-rule="evenodd" d="M15.6083 0.259765C15.4945 0.348373 13.949 2.69844 13.8746 2.89609C13.8479 2.96689 13.8477 3.08274 13.8742 3.15342C13.932 3.30801 16.5076 4.99327 16.6861 4.99327C16.8093 4.99327 17.0596 4.79049 17.0596 4.6907C17.0596 4.6617 16.9788 4.25721 16.8802 3.79174L16.7008 2.94546L17.052 2.90646C17.5534 2.85079 18.6781 2.97089 19.3717 3.15429C22.4992 3.98114 24.7551 6.64102 25.05 9.84968C25.1088 10.4894 25.1836 10.6328 25.4585 10.6328C25.785 10.6328 25.829 10.5266 25.7875 9.837C25.6394 7.37701 24.1746 4.91903 22.0192 3.5141C20.629 2.60796 19.16 2.1761 17.4083 2.15866L16.5385 2.15004L16.3402 1.25033C16.1988 0.608638 16.1088 0.326377 16.0265 0.266138C15.8822 0.16072 15.7385 0.158533 15.6083 0.259765ZM15.1849 2.20272C14.9615 2.54984 14.7788 2.85591 14.7788 2.88278C14.7788 2.9309 16.0712 3.81542 16.0998 3.78686C16.1251 3.76149 15.6688 1.65207 15.629 1.61083C15.6082 1.58914 15.4083 1.85553 15.1849 2.20272ZM6.24239 20.0597C6.12254 20.1795 6.1146 20.2344 6.15416 20.6689C6.39849 23.3505 7.79692 25.6933 9.99457 27.1026C11.3534 27.9741 13.0913 28.4587 14.7007 28.4151C15.1046 28.4041 15.435 28.4013 15.4349 28.4086C15.4341 28.5542 15.8342 30.224 15.8846 30.2847C15.9266 30.3353 16.0453 30.3623 16.1771 30.3511C16.3916 30.333 16.4263 30.2902 17.2569 29.0201C18.1304 27.6841 18.2236 27.4707 18.0125 27.2898C17.9524 27.2382 17.352 26.8402 16.6782 26.4053C15.3476 25.5462 15.1261 25.4634 14.9857 25.7716C14.9278 25.8986 14.9461 26.0835 15.0808 26.7343C15.1724 27.1774 15.2474 27.5706 15.2474 27.6082C15.2474 27.7113 14.0101 27.6933 13.312 27.5801C12.9865 27.5273 12.4686 27.3998 12.1612 27.2968C9.25996 26.3248 7.26758 23.8536 6.92745 20.8054C6.88296 20.4066 6.8171 20.1035 6.76054 20.0374C6.63426 19.8895 6.40255 19.8995 6.24239 20.0597ZM15.8723 26.8402C15.8723 26.8654 15.9753 27.3734 16.1013 27.9692L16.3304 29.0523L16.7574 28.4113C16.9922 28.0588 17.1844 27.7381 17.1844 27.6986C17.1845 27.6592 16.9244 27.4599 16.6065 27.2558C15.8804 26.7894 15.8723 26.7849 15.8723 26.8402Z" fill="#5C2B78"/>
</svg>
