<svg width="112" height="31" viewBox="0 0 112 31" fill="none" xmlns="http://www.w3.org/2000/svg">
<path d="M76.5673 23.7923V18.2942C76.5673 16.941 76.0597 16.2644 74.7913 16.2644C74.2837 16.2644 73.6919 16.3492 73.3533 16.4334V24.4689C73.3533 24.7226 73.0995 24.9764 72.8458 24.9764H70.9002C70.6465 24.9764 70.3927 24.7226 70.3927 24.4689V15.0802C70.3927 14.7417 70.6465 14.4884 70.9002 14.4036C72.1692 13.9808 73.4376 13.727 74.7908 13.727C77.8358 13.727 79.5275 15.334 79.5275 18.2947V24.5536C79.5275 24.8074 79.2737 25.0612 79.02 25.0612H77.8358C77.0749 25.0607 76.5673 24.4689 76.5673 23.7923ZM84.1799 20.4935L84.0952 21.2549C84.0952 22.27 84.7718 22.8619 85.8712 22.8619C86.7168 22.8619 87.4782 22.6081 88.3243 22.1853C88.409 22.1853 88.4933 22.1005 88.5781 22.1005C88.7471 22.1005 88.8318 22.1853 88.9166 22.2696C89.0013 22.3543 89.1704 22.6081 89.1704 22.6081C89.3394 22.8619 89.5089 23.1999 89.5089 23.4537C89.5089 23.8766 89.2551 24.2994 88.917 24.4689C87.9866 24.9764 86.8872 25.2302 85.703 25.2302C84.3498 25.2302 83.25 24.8917 82.4043 24.2151C81.5587 23.4537 81.0511 22.439 81.0511 21.1701V17.8714C81.0511 15.2493 82.7428 13.6423 85.6188 13.6423C88.4099 13.6423 90.0169 15.165 90.0169 17.8714V19.9012C90.0169 20.155 89.7631 20.4088 89.5093 20.4088H84.1808L84.1799 20.4935ZM84.0952 18.6327H87.3092V17.7871C87.3092 16.772 86.7173 16.0954 85.7022 16.0954C84.687 16.0954 84.0952 16.6872 84.0952 17.7871V18.6327ZM105.664 20.4935L105.579 21.2549C105.579 22.27 106.256 22.8619 107.355 22.8619C108.201 22.8619 108.962 22.6081 109.808 22.1853C109.893 22.1853 109.977 22.1005 110.062 22.1005C110.231 22.1005 110.316 22.1853 110.401 22.2696C110.485 22.3543 110.655 22.6081 110.655 22.6081C110.824 22.8619 110.993 23.1999 110.993 23.4537C110.993 23.8766 110.739 24.2994 110.401 24.4689C109.471 24.9764 108.371 25.2302 107.187 25.2302C105.834 25.2302 104.734 24.8917 103.888 24.2151C103.043 23.4537 102.535 22.439 102.535 21.1701V17.8714C102.535 15.2493 104.227 13.6423 107.103 13.6423C109.894 13.6423 111.501 15.165 111.501 17.8714V19.9012C111.501 20.155 111.247 20.4088 110.993 20.4088H105.665V20.4935H105.664ZM105.579 18.6327H108.793V17.7871C108.793 16.772 108.201 16.0954 107.186 16.0954C106.171 16.0954 105.579 16.6872 105.579 17.7871V18.6327ZM55.8445 25.0607H57.0287C57.2825 25.0607 57.5363 24.8069 57.5363 24.5532V18.2942C57.5363 15.4183 56.0136 13.7266 53.4762 13.7266C52.7149 13.7266 51.8692 13.8956 51.3616 14.0651V10.9354C51.3616 10.2588 50.7698 9.6665 50.0927 9.6665H48.9086C48.6548 9.6665 48.401 9.92028 48.401 10.1741V24.5532C48.401 24.8069 48.6548 25.0607 48.9086 25.0607H50.8541C51.1079 25.0607 51.3616 24.8069 51.3616 24.5532V16.6025C51.7845 16.4334 52.3768 16.3487 52.7996 16.3487C54.0685 16.3487 54.5756 16.9406 54.5756 18.3785V23.8766C54.6604 24.4689 55.1679 25.0607 55.8445 25.0607ZM68.6166 17.9557V21.0854C68.6166 23.7075 66.8406 25.3145 63.88 25.3145C61.004 25.3145 59.1433 23.7075 59.1433 21.0854V17.9557C59.1433 15.3336 60.9193 13.7266 63.88 13.7266C66.8406 13.7266 68.6166 15.334 68.6166 17.9557ZM65.6564 17.9557C65.6564 16.9406 65.0646 16.264 63.9647 16.264C62.8648 16.264 62.273 16.8558 62.273 17.9557V21.0854C62.273 22.1005 62.8648 22.6924 63.9647 22.6924C65.0646 22.6924 65.6564 22.1005 65.6564 21.0854V17.9557ZM46.7944 16.5182C46.7944 19.2251 44.7646 21.0858 42.0578 21.0858C41.3811 21.0858 40.7888 21.0011 40.197 20.7473V24.5536C40.197 24.8074 39.9432 25.0612 39.6894 25.0612H37.7439C37.4901 25.0612 37.2363 24.8074 37.2363 24.5536V11.1049C37.2363 10.7664 37.4901 10.513 37.7439 10.4283C39.0128 10.0055 40.2813 9.75169 41.6345 9.75169C44.6794 9.75169 46.794 11.6125 46.794 14.4884C46.7944 14.4879 46.7944 16.5182 46.7944 16.5182ZM43.7495 14.3189C43.7495 12.9657 42.8191 12.2891 41.5502 12.2891C40.7888 12.2891 40.2813 12.5429 40.2813 12.5429V18.1252C40.7888 18.379 41.0426 18.4637 41.6345 18.4637C42.9034 18.4637 43.8338 17.7024 43.8338 16.4339V14.3193H43.7495V14.3189ZM101.435 16.5182C101.435 19.2251 99.4051 21.0858 96.6982 21.0858C96.0216 21.0858 95.4293 21.0011 94.8374 20.7473V24.5536C94.8374 24.8074 94.5837 25.0612 94.3299 25.0612H92.3844C92.1306 25.0612 91.8768 24.8074 91.8768 24.5536V11.1049C91.8768 10.7664 92.1306 10.513 92.3844 10.4283C93.6533 10.0055 94.9217 9.75169 96.275 9.75169C99.3199 9.75169 101.434 11.6125 101.434 14.4884C101.435 14.4879 101.435 16.5182 101.435 16.5182ZM98.39 14.3189C98.39 12.9657 97.4596 12.2891 96.1907 12.2891C95.4293 12.2891 94.9217 12.5429 94.9217 12.5429V18.1252C95.4293 18.379 95.6831 18.4637 96.275 18.4637C97.5439 18.4637 98.4743 17.7024 98.4743 16.4339V14.3193H98.39V14.3189Z" fill="#5F259F"/>
<path d="M15.1404 30.2809C23.5023 30.2809 30.2809 23.5023 30.2809 15.1404C30.2809 6.77861 23.5023 0 15.1404 0C6.77861 0 0 6.77861 0 15.1404C0 23.5023 6.77861 30.2809 15.1404 30.2809Z" fill="#5F259F"/>
<path d="M22.0119 11.1892C22.0119 10.5973 21.5043 10.0898 20.9125 10.0898H18.8827L14.2307 4.76123C13.8079 4.25366 13.1313 4.08462 12.4547 4.25366L10.8477 4.76123C10.5939 4.84597 10.5092 5.18405 10.6787 5.35309L15.7534 10.1745H8.05564C7.80185 10.1745 7.63281 10.3436 7.63281 10.5973V11.443C7.63281 12.0349 8.14038 12.5424 8.73224 12.5424H9.91641V16.6025C9.91641 19.6474 11.5234 21.4239 14.2303 21.4239C15.0759 21.4239 15.753 21.3392 16.5986 21.0011V23.708C16.5986 24.4693 17.1905 25.0612 17.9518 25.0612H19.136C19.3898 25.0612 19.6436 24.8074 19.6436 24.5536V12.4581H21.5891C21.8429 12.4581 22.0119 12.2891 22.0119 12.0353V11.1892ZM16.5986 18.4633C16.0911 18.7171 15.4144 18.8018 14.9069 18.8018C13.5537 18.8018 12.8771 18.1252 12.8771 16.6025V12.5424H16.5986V18.4633Z" fill="white"/>
</svg>
