<svg width="21" height="31" viewBox="0 0 21 31" fill="none" xmlns="http://www.w3.org/2000/svg">
<path fill-rule="evenodd" clip-rule="evenodd" d="M2.02217 0.46098C1.4064 0.769063 0.870616 1.30126 0.587045 1.88654L0.412109 2.24761V15.2822V28.3168L0.631013 28.7323C0.957072 29.3515 1.41005 29.7972 2.027 30.1058L2.57305 30.379H10.334H18.0949L18.6409 30.1058C19.2579 29.7972 19.7108 29.3515 20.0369 28.7323L20.2558 28.3168V15.2822V2.24761L20.0369 1.83206C19.7108 1.21294 19.2579 0.767196 18.6409 0.458568L18.0949 0.185425H10.334H2.57305L2.02217 0.46098ZM2.78557 1.52196C2.39695 1.63238 2.03346 1.93284 1.8316 2.31049L1.6572 2.63671L1.63619 13.5118L1.6151 24.387H10.334H19.0528L19.0317 13.5118L19.0107 2.63671L18.8363 2.31049C18.6277 1.92015 18.2679 1.6323 17.8434 1.51643C17.4329 1.40429 3.1812 1.40951 2.78557 1.52196ZM7.37686 2.4957C6.888 2.68021 6.73952 3.30843 7.115 3.60375C7.31437 3.76064 7.40269 3.76507 10.334 3.76507C13.2652 3.76507 13.3535 3.76064 13.5529 3.60375C13.8372 3.38018 13.8392 2.93475 13.5572 2.6697L13.3565 2.48107L10.425 2.46636C8.81277 2.45827 7.44106 2.4715 7.37686 2.4957ZM9.97016 5.49653C9.70036 5.77683 9.47796 6.092 9.47796 6.1941C9.47796 6.20888 9.86316 6.22102 10.334 6.22102C10.8048 6.22102 11.19 6.20888 11.19 6.1941C11.19 6.04079 10.4616 5.1658 10.334 5.1658C10.309 5.1658 10.1452 5.31459 9.97016 5.49653ZM7.3946 6.27682C7.28285 6.75735 7.27001 7.18908 7.36744 7.18908C7.40503 7.18908 7.63148 7.07127 7.87069 6.92722C8.10983 6.78318 8.41309 6.62085 8.54452 6.56638C8.67596 6.51198 8.77183 6.42841 8.75759 6.38078C8.72218 6.26242 8.09987 5.96881 7.76424 5.91208L7.49016 5.86578L7.3946 6.27682ZM12.6568 5.97418C12.2737 6.07737 11.8903 6.29199 11.8903 6.40327C11.8903 6.43985 12.0041 6.51549 12.1432 6.5712C12.2824 6.627 12.5807 6.78878 12.8062 6.9308C13.0318 7.0729 13.2506 7.18908 13.2925 7.18908C13.3971 7.18908 13.3883 6.77151 13.2734 6.27697C13.1691 5.82843 13.1792 5.83341 12.6568 5.97418ZM9.18715 6.68435C8.55363 6.82201 7.91645 7.16745 7.33772 7.68712C6.7926 8.17668 6.80217 8.33379 7.35297 7.93809C9.23804 6.58381 11.4244 6.8361 12.2764 8.50608C12.4881 8.92117 12.6685 9.63173 12.6685 10.0509C12.6685 10.4392 12.7775 10.6909 12.9455 10.6909C13.1378 10.6909 13.2032 10.3652 13.1343 9.75032C12.949 8.09855 11.9336 6.92505 10.4527 6.65128C9.89514 6.54825 9.80254 6.55066 9.18715 6.68435ZM11.5791 6.70451C11.5791 6.73758 11.7043 6.83205 11.8573 6.91446C12.2552 7.1287 12.9455 7.90384 13.2164 8.44048C13.4934 8.9891 13.6774 9.72192 13.679 10.2824L13.6802 10.6909H14.1471H14.614V10.396C14.614 9.1333 13.5936 7.60183 12.307 6.93329C11.7523 6.64513 11.5791 6.59066 11.5791 6.70451ZM9.01976 7.5409C8.39052 7.71708 7.74385 8.09248 7.18091 8.60826C6.82746 8.93214 6.67649 9.12668 6.67649 9.2582C6.67649 9.54122 6.83431 9.49002 7.42487 9.01525C7.71949 8.77845 8.22041 8.45503 8.53799 8.29652C9.06069 8.03559 9.17516 8.0082 9.74417 8.00804C10.9805 8.00758 11.5615 8.59876 11.7499 10.0489C11.8327 10.6862 11.8349 10.6909 12.0588 10.6909C12.1828 10.6909 12.3031 10.642 12.326 10.5822C12.4031 10.3815 12.2007 9.26341 12.0134 8.85409C11.792 8.37076 11.3142 7.88564 10.8269 7.64977C10.3726 7.42985 9.58573 7.38238 9.01976 7.5409ZM5.78158 7.75794C5.61038 7.80323 5.46439 7.8426 5.45723 7.84548C5.40276 7.86735 5.69435 8.746 5.80586 8.89619C6.00928 9.17011 6.11067 9.17431 6.16849 8.91113C6.19643 8.78374 6.3572 8.48266 6.52576 8.24212C6.69424 8.00151 6.83213 7.77124 6.83213 7.73039C6.83213 7.63452 6.1839 7.65156 5.78158 7.75794ZM13.8358 7.72494C13.8358 7.76284 13.9731 7.99941 14.1408 8.25068C14.3085 8.50188 14.4703 8.80506 14.5003 8.92436C14.5628 9.17345 14.6619 9.16575 14.8621 8.89619C14.9728 8.74701 15.267 7.86198 15.2107 7.84735C14.4161 7.64074 13.8358 7.58907 13.8358 7.72494ZM9.04318 8.49355C8.82545 8.57145 8.47277 8.74709 8.25947 8.88397C7.76245 9.20295 6.52086 10.4603 6.52086 10.6448C6.52086 10.6701 6.64295 10.6909 6.79213 10.6909C7.02831 10.6909 7.14714 10.6072 7.71156 10.0427C8.70965 9.04466 9.50714 8.71611 10.2146 9.01167C10.5545 9.15376 10.8904 9.75709 10.6295 9.75709C10.578 9.75709 10.4263 9.65079 10.2922 9.52083C9.94666 9.18598 9.59492 9.14738 9.07174 9.38691C8.67822 9.56706 7.61031 10.4696 7.61031 10.622C7.61031 10.6599 7.75412 10.6909 7.92984 10.6909C8.1738 10.6909 8.28383 10.647 8.39527 10.5054C8.57729 10.274 9.21189 9.87055 9.49904 9.80355C9.80207 9.73289 10.1005 10.0363 10.1005 10.415C10.1005 10.6785 10.1128 10.6909 10.3729 10.6909C10.6397 10.6909 10.6452 10.6845 10.6452 10.3732C10.6452 9.96767 10.8293 9.99459 10.8639 10.4051C10.8867 10.6743 10.9037 10.6909 11.1557 10.6909C11.4197 10.6909 11.4234 10.6862 11.4234 10.3531C11.4234 9.64869 11.0857 8.92918 10.5983 8.59526C10.2431 8.35185 9.56371 8.30741 9.04318 8.49355ZM6.29588 9.64721C6.11472 9.87755 6.08787 10.0321 6.21534 10.1109C6.33884 10.1872 6.68661 9.82643 6.66031 9.64931C6.6256 9.41664 6.4779 9.41578 6.29588 9.64721ZM5.42167 9.97164C5.22705 10.1008 4.73103 10.5954 4.73103 10.6603C4.73103 10.6771 4.97616 10.6909 5.27576 10.6909H5.82049V10.386C5.82049 10.2183 5.84173 10.0257 5.86773 9.95802C5.93247 9.78939 5.6847 9.79693 5.42167 9.97164ZM14.8002 9.95802C14.8262 10.0257 14.8474 10.2183 14.8474 10.386V10.6909H15.3922H15.9369V10.9542C15.9369 11.1498 15.9759 11.2277 16.0886 11.2572C16.1721 11.279 16.312 11.4144 16.3996 11.558C16.5527 11.8091 16.5589 11.9342 16.5591 14.7608C16.5594 17.2187 16.5403 17.7392 16.4432 17.9272C16.1875 18.4215 16.5345 18.3949 10.334 18.3949C4.13339 18.3949 4.48038 18.4215 4.22475 17.9272C4.12763 17.7392 4.10856 17.2187 4.1088 14.7608C4.10903 11.9555 4.11627 11.8075 4.26482 11.5637C4.35058 11.4232 4.47299 11.2882 4.53695 11.2636C4.6273 11.2289 4.65321 11.0735 4.65321 10.5659C4.65321 9.82261 4.63135 9.8037 4.08592 10.0768C3.63667 10.3017 3.27754 10.6566 3.03155 11.1189L2.82448 11.508V14.7764V18.0448L3.03179 18.4375C3.29474 18.9357 3.66227 19.303 4.10848 19.5137C4.45587 19.6776 4.50598 19.6789 10.334 19.6789H16.2092L16.5637 19.5042C17.025 19.2769 17.3789 18.925 17.6361 18.4375L17.8434 18.0448V14.7764V11.508L17.6599 11.1578C17.4106 10.6819 17.0595 10.3248 16.6204 10.1003C16.0707 9.81942 15.9369 9.84363 15.9369 10.224C15.9369 10.5803 15.8409 10.6209 15.6583 10.3421C15.4195 9.97763 14.6808 9.64698 14.8002 9.95802ZM8.98747 10.3602C8.83237 10.4778 8.70413 10.5985 8.70257 10.6283C8.70102 10.6581 8.9449 10.6801 9.2445 10.6773C9.75071 10.6725 9.78923 10.6602 9.78923 10.5025C9.78923 10.1031 9.41415 10.0365 8.98747 10.3602ZM6.22491 11.6108C6.13091 11.9027 6.05395 12.1653 6.05395 12.1944C6.05395 12.3002 6.37137 12.244 6.41487 12.1306C6.43954 12.0664 6.52226 12.0138 6.59867 12.0138C6.67509 12.0138 6.75781 12.0664 6.78248 12.1306C6.80707 12.1948 6.91345 12.2473 7.01889 12.2473H7.21056L7.0143 11.6636C6.83454 11.129 6.80038 11.08 6.60692 11.08C6.41471 11.08 6.38055 11.1274 6.22491 11.6108ZM7.47001 11.6108C7.2613 12.2587 7.26145 12.2473 7.46199 12.2473C7.55747 12.2473 7.64113 12.1851 7.66416 12.097C7.70689 11.9337 7.91202 11.9607 8.02275 12.1442C8.08361 12.245 8.3885 12.2924 8.3885 12.201C8.3885 12.1755 8.31504 11.9129 8.22531 11.6173C8.07582 11.1254 8.04431 11.08 7.85147 11.08C7.65996 11.08 7.62557 11.1279 7.47001 11.6108ZM8.62195 11.6636V12.2473H8.97564C9.41111 12.2473 9.71141 11.9946 9.71141 11.6282C9.71141 11.2653 9.47469 11.08 9.01105 11.08H8.62195V11.6636ZM9.86705 11.6636C9.86705 12.2343 9.87141 12.2473 10.0616 12.2473C10.2259 12.2473 10.2561 12.2109 10.2561 12.0138C10.2561 11.8213 10.2879 11.7804 10.4372 11.7804C10.5941 11.7804 10.6137 11.8115 10.584 12.0138C10.5534 12.2224 10.5714 12.2473 10.7532 12.2473C10.9543 12.2473 10.9565 12.2411 10.9565 11.6636C10.9565 11.0861 10.9544 11.08 10.7529 11.08C10.5777 11.08 10.5544 11.1072 10.5865 11.2746C10.6176 11.4377 10.5939 11.4691 10.4399 11.4691C10.2957 11.4691 10.2561 11.4272 10.2561 11.2746C10.2561 11.1189 10.2172 11.08 10.0616 11.08C9.87141 11.08 9.86705 11.093 9.86705 11.6636ZM11.33 11.5275C11.2571 11.7771 11.1746 12.0411 11.1465 12.1143C11.1068 12.2178 11.1384 12.2473 11.2893 12.2473C11.4117 12.2473 11.4968 12.1948 11.5204 12.1046C11.5409 12.0261 11.6145 11.9619 11.684 11.9619C11.7534 11.9619 11.8306 12.0261 11.8555 12.1046C11.8836 12.1928 11.9751 12.2473 12.0954 12.2473C12.3092 12.2473 12.3121 12.2907 12.0471 11.508C11.9333 11.1717 11.8846 11.1159 11.6889 11.0963C11.4746 11.075 11.4552 11.0984 11.33 11.5275ZM12.5537 11.5622C12.4793 11.8275 12.4009 12.0902 12.3795 12.1459C12.354 12.2125 12.4071 12.2473 12.5344 12.2473C12.6568 12.2473 12.7419 12.1948 12.7655 12.1046C12.786 12.0261 12.8596 11.9619 12.929 11.9619C12.9985 11.9619 13.0757 12.0261 13.1006 12.1046C13.1289 12.1936 13.2202 12.2473 13.3435 12.2473C13.5011 12.2473 13.5299 12.2197 13.4855 12.1111C13.4549 12.0362 13.3604 11.7735 13.2755 11.5275C13.1374 11.1272 13.0983 11.08 12.9051 11.08C12.7066 11.08 12.6779 11.1195 12.5537 11.5622ZM13.6802 11.6636C13.6802 12.1954 13.694 12.2473 13.8358 12.2473C13.9499 12.2473 13.9914 12.1954 13.9914 12.0527C13.9914 11.8074 14.2045 11.7906 14.2389 12.0333C14.2549 12.1458 14.3264 12.2172 14.4389 12.2333C14.6342 12.261 14.6511 12.1995 14.5333 11.8895C14.4776 11.7429 14.4776 11.6522 14.5333 11.5965C14.7673 11.3625 14.4892 11.08 14.0248 11.08H13.6802V11.6636ZM8.93323 11.6636C8.93323 12.0416 8.94482 12.0548 9.17182 11.9333C9.35835 11.8334 9.37773 11.4292 9.19921 11.3607C8.9691 11.2724 8.93323 11.3131 8.93323 11.6636ZM13.9914 11.4237C13.9914 11.4914 14.0468 11.5469 14.1146 11.5469C14.252 11.5469 14.2281 11.3794 14.0839 11.3313C14.033 11.3143 13.9914 11.3559 13.9914 11.4237ZM11.6287 11.5858C11.6041 11.65 11.6179 11.7026 11.6593 11.7026C11.7008 11.7026 11.7347 11.65 11.7347 11.5858C11.7347 11.5216 11.7209 11.4691 11.7041 11.4691C11.6873 11.4691 11.6534 11.5216 11.6287 11.5858ZM12.8738 11.5858C12.8492 11.65 12.863 11.7026 12.9044 11.7026C12.9459 11.7026 12.9798 11.65 12.9798 11.5858C12.9798 11.5216 12.966 11.4691 12.9492 11.4691C12.9324 11.4691 12.8985 11.5216 12.8738 11.5858ZM6.52086 11.6247C6.52086 11.6675 6.55587 11.7026 6.59867 11.7026C6.64147 11.7026 6.67649 11.6675 6.67649 11.6247C6.67649 11.5819 6.64147 11.5469 6.59867 11.5469C6.55587 11.5469 6.52086 11.5819 6.52086 11.6247ZM7.76595 11.6247C7.76595 11.6675 7.80307 11.7026 7.84836 11.7026C7.89365 11.7026 7.90914 11.6675 7.88268 11.6247C7.85622 11.5819 7.81918 11.5469 7.80027 11.5469C7.78136 11.5469 7.76595 11.5819 7.76595 11.6247ZM5.69263 12.4801C5.29778 12.6394 5.27576 12.763 5.27576 14.819C5.27576 16.7043 5.27848 16.7362 5.45085 16.8971C5.71668 17.1452 5.97659 17.177 6.26795 16.9971C6.51595 16.8439 6.52086 16.8299 6.52086 16.2719V15.7029L7.02356 15.6168C8.08065 15.4357 8.62841 14.653 8.43169 13.6046C8.3541 13.1911 7.7563 12.6138 7.28184 12.4944C6.8645 12.3892 5.93831 12.3809 5.69263 12.4801ZM9.97405 12.5518C9.81662 12.6478 9.68838 12.8192 9.61032 13.0378C9.54402 13.2237 9.41446 13.5682 9.3224 13.8036C9.23034 14.0391 9.12521 14.3192 9.08871 14.4262C9.05229 14.5332 8.87984 14.9884 8.70545 15.4376C8.28445 16.5226 8.28586 16.8191 8.71308 17.04C9.08871 17.2342 9.57531 16.9698 9.67468 16.5175C9.72355 16.2948 9.72635 16.2938 10.3227 16.2938H10.9216L11.0753 16.6246C11.2836 17.073 11.5791 17.2158 11.9416 17.0428C12.2282 16.9062 12.3891 16.6026 12.3132 16.3419C12.2695 16.1922 12.1669 15.9164 11.6148 14.4651C10.9488 12.7142 10.9441 12.7043 10.6957 12.5529C10.3894 12.3661 10.2789 12.366 9.97405 12.5518ZM12.3183 12.4909C11.8124 12.7737 11.8452 13.1122 12.4721 14.0779L12.976 14.8542L12.9779 15.6402C12.9801 16.5653 13.0694 16.8783 13.3767 17.0372C13.6584 17.1828 13.9453 17.1163 14.1483 16.8583C14.2812 16.6892 14.3027 16.5417 14.3029 15.797L14.303 14.932L14.8474 14.1149C15.4136 13.2651 15.4834 13.0347 15.2676 12.7266C14.9336 12.2498 14.4417 12.3693 14.0155 13.0308C13.8525 13.2839 13.6964 13.4913 13.6688 13.4917C13.6412 13.4921 13.5094 13.3223 13.3761 13.1146C13.2427 12.9067 13.0728 12.6818 12.9984 12.6148C12.8088 12.4439 12.5022 12.3881 12.3183 12.4909ZM6.52086 14.0371C6.52086 14.3294 6.53479 14.3484 6.74879 14.3484C6.94551 14.3484 7.22122 14.1832 7.22122 14.0654C7.22122 13.8773 7.02901 13.7258 6.7905 13.7258C6.52778 13.7258 6.52086 13.7338 6.52086 14.0371ZM10.295 14.8931C10.2686 14.9359 10.2841 14.9709 10.3294 14.9709C10.3747 14.9709 10.4118 14.9359 10.4118 14.8931C10.4118 14.8503 10.3964 14.8153 10.3775 14.8153C10.3585 14.8153 10.3215 14.8503 10.295 14.8931ZM1.63378 26.8188C1.66351 27.7601 1.69432 27.977 1.83735 28.2539C2.03805 28.6423 2.39734 28.9313 2.82448 29.048C3.2605 29.1671 17.4074 29.1671 17.8434 29.048C18.2706 28.9313 18.6299 28.6423 18.8306 28.2539C18.9736 27.977 19.0044 27.7601 19.0341 26.8188L19.0692 25.7099H10.334H1.59868L1.63378 26.8188ZM9.4915 26.9794C9.24473 27.2421 9.26185 27.6743 9.52737 27.8831C9.6946 28.0147 9.84324 28.0444 10.334 28.0444C11.0881 28.0444 11.3456 27.888 11.3456 27.4298C11.3456 26.938 11.1207 26.7993 10.3231 26.7993C9.73133 26.7993 9.6427 26.8185 9.4915 26.9794Z" fill="#5C2B78"/>
</svg>
