<svg width="20" height="31" viewBox="0 0 20 31" fill="none" xmlns="http://www.w3.org/2000/svg">
<path d="M3.3601 30.379C2.60526 30.379 1.95908 30.1102 1.42154 29.5727C0.884003 29.0351 0.615234 28.3889 0.615234 27.6341V2.93029C0.615234 2.17545 0.884003 1.52927 1.42154 0.99173C1.95908 0.454193 2.60526 0.185425 3.3601 0.185425H17.0844C17.8393 0.185425 18.4855 0.454193 19.023 0.99173C19.5605 1.52927 19.8293 2.17545 19.8293 2.93029V27.6341C19.8293 28.3889 19.5605 29.0351 19.023 29.5727C18.4855 30.1102 17.8393 30.379 17.0844 30.379H3.3601ZM3.3601 26.2617V27.6341H17.0844V26.2617H3.3601ZM3.3601 23.5168H17.0844V7.0476H3.3601V23.5168ZM3.3601 4.30273H17.0844V2.93029H3.3601V4.30273Z" fill="#5C2B78"/>
<path d="M10.8175 20.772L6.71544 16.5022V15.2822H8.85034C9.38914 15.2822 9.85425 15.1069 10.2456 14.7561C10.637 14.4054 10.8734 13.9708 10.9547 13.4523H6.10547V12.2324H10.7717C10.5989 11.8765 10.3422 11.5843 10.0017 11.3555C9.66109 11.1268 9.27732 11.0124 8.85034 11.0124H6.10547V9.79248H13.4251V11.0124H11.4427C11.585 11.1852 11.7121 11.3733 11.8239 11.5766C11.9358 11.78 12.0222 11.9985 12.0832 12.2324H13.4251V13.4523H12.1899C12.1086 14.3164 11.7528 15.0408 11.1225 15.6253C10.4922 16.2099 9.73479 16.5022 8.85034 16.5022H8.40811L12.5102 20.772H10.8175Z" fill="#5C2B78"/>
</svg>
