<svg width="20" height="31" viewBox="0 0 20 31" fill="none" xmlns="http://www.w3.org/2000/svg">
<path fill-rule="evenodd" clip-rule="evenodd" d="M0.812494 0.304574C0.688084 0.381598 0.607176 0.492769 0.565997 0.643455C0.486832 0.932971 0.481546 29.5378 0.560653 29.8842C0.642722 30.2441 0.956303 30.4459 1.29794 30.3588C1.38674 30.3362 1.64091 30.1134 1.89327 29.8371C2.13547 29.5718 2.46578 29.2122 2.6273 29.038L2.92108 28.7211L3.58565 29.4585C4.66555 30.6568 4.72654 30.658 5.76149 29.4997C6.13919 29.077 6.46567 28.7384 6.48704 28.7474C6.50847 28.7564 6.84366 29.1132 7.23199 29.5404C8.24528 30.6551 8.272 30.655 9.28197 29.5382C9.66723 29.1122 10.0007 28.7567 10.0231 28.7481C10.0455 28.7394 10.3698 29.0747 10.7439 29.493C11.7809 30.6527 11.8154 30.6532 12.8414 29.5211C13.2274 29.0952 13.5607 28.7439 13.5819 28.7404C13.6031 28.737 13.9249 29.0725 14.2971 29.4861C15.3463 30.6521 15.4053 30.6525 16.439 29.5012C16.8179 29.0793 17.1446 28.7366 17.1651 28.7396C17.1856 28.7425 17.4899 29.0718 17.8413 29.4713C18.1927 29.8708 18.5664 30.2418 18.6717 30.2957C18.9099 30.4176 19.1446 30.373 19.3472 30.1673L19.4966 30.0156V15.2874V0.559236L19.378 0.406014C19.2287 0.213337 18.9055 0.142801 18.6883 0.255447C18.6019 0.30021 18.2227 0.67601 17.8457 1.0905C17.324 1.66387 17.1424 1.82912 17.0858 1.78147C17.045 1.74703 16.7297 1.40254 16.3852 1.01595C16.0407 0.629359 15.6838 0.281455 15.5919 0.242826C15.2617 0.103935 15.06 0.234746 14.3014 1.07965L13.6073 1.85254L13.2298 1.44855C11.9615 0.0917271 12.033 0.148699 11.6817 0.215637C11.5234 0.245774 11.3477 0.406309 10.7719 1.0468C10.3795 1.4834 10.0445 1.83402 10.0274 1.82594C10.0104 1.81792 9.67536 1.46052 9.28285 1.03176C8.32694 -0.0123078 8.21339 -0.0338933 7.53466 0.698952C7.32852 0.92153 7.00385 1.27191 6.81317 1.47762L6.46648 1.85165L5.99933 1.33018C4.74721 -0.0676281 4.68687 -0.0849672 3.93553 0.737935C3.69333 1.00315 3.36331 1.36244 3.20208 1.53636L2.909 1.85254L2.22132 1.09474C1.84309 0.677897 1.4784 0.304633 1.41085 0.265237C1.23155 0.160612 1.02281 0.174354 0.812494 0.304574ZM5.41875 2.5487C6.17863 3.39378 6.33905 3.49728 6.67081 3.3565C6.78465 3.3082 7.1408 2.97091 7.53018 2.54268C7.89592 2.1404 8.2113 1.804 8.23111 1.79503C8.25086 1.78607 8.59876 2.13568 9.00417 2.57205C9.81713 3.44691 9.94648 3.52411 10.2828 3.33498C10.3887 3.27547 10.7705 2.90061 11.1314 2.50205C11.4922 2.10342 11.8062 1.78495 11.8291 1.79433C11.852 1.80364 12.1756 2.14777 12.5482 2.55902C13.5707 3.68754 13.6223 3.68719 14.6469 2.54593C15.0242 2.12566 15.3503 1.78182 15.3715 1.78182C15.3927 1.78182 15.708 2.11593 16.0722 2.52428C16.4364 2.93264 16.8102 3.30649 16.9029 3.35515C17.2064 3.51456 17.4113 3.4209 17.8655 2.91512L18.2743 2.46006L18.2756 15.2732L18.2769 28.0864L17.8266 27.6141C17.1562 26.9112 17.0677 26.932 16.0965 28.0217C15.7183 28.446 15.3938 28.7932 15.3752 28.7932C15.3566 28.7932 15.0436 28.4598 14.6796 28.0524C13.6209 26.8675 13.5939 26.8666 12.5777 27.9845C12.1882 28.4131 11.8513 28.7712 11.8291 28.7805C11.8068 28.7897 11.481 28.4532 11.1049 28.0325C10.7288 27.612 10.3478 27.237 10.2581 27.1993C9.98191 27.0831 9.77439 27.1781 9.37641 27.6028C9.1733 27.8196 8.83707 28.1789 8.62926 28.4012L8.25149 28.8054L7.59192 28.0768C6.49872 26.8693 6.45202 26.8682 5.41573 28.0272C5.03698 28.4508 4.7108 28.7897 4.69088 28.7805C4.67095 28.7712 4.33484 28.4141 3.94389 27.9868C2.98212 26.9358 2.89152 26.9188 2.20372 27.6612L1.78338 28.1149L1.7839 15.2875L1.78443 2.46006L2.1932 2.91512C2.64891 3.4225 2.85208 3.51468 3.1591 3.35344C3.25354 3.30384 3.62868 2.92998 3.99268 2.52257C4.35668 2.11516 4.6713 1.78182 4.69186 1.78182C4.71237 1.78182 5.03948 2.12696 5.41875 2.5487ZM7.96097 6.49878C7.63206 6.63372 7.48203 7.14299 7.68468 7.43669C7.84417 7.66788 8.10896 7.73847 8.81721 7.73847C9.42317 7.73847 9.48549 7.7495 9.73385 7.90066L10.0003 8.06285L8.97809 8.09234C7.93234 8.12253 7.8638 8.13787 7.66441 8.38722C7.62549 8.43587 7.59279 8.59051 7.59181 8.73088C7.5903 8.9357 7.62346 9.0201 7.75972 9.15846L7.92949 9.33085H8.92617C9.98575 9.33085 10.0387 9.34836 9.71665 9.59264C9.57726 9.69839 9.44675 9.71803 8.7133 9.74368C7.87693 9.77294 7.86909 9.77447 7.73004 9.93866C7.51183 10.1964 7.53361 10.5676 7.78179 10.8181C8.35738 11.399 10.4647 13.3813 10.5718 13.4424C10.9778 13.6742 11.453 13.3351 11.4411 12.8222C11.4364 12.6206 11.3711 12.5407 10.5771 11.7658C9.87133 11.077 9.7382 10.9214 9.83026 10.8931C10.4339 10.7075 11.0388 10.1829 11.2522 9.66006L11.3866 9.33085H11.749C12.0518 9.33085 12.14 9.30637 12.2858 9.18181C12.5048 8.99468 12.5597 8.7583 12.4476 8.48571C12.338 8.21937 12.0955 8.09234 11.6969 8.09234C11.4179 8.09234 11.3766 8.07606 11.3165 7.94212C11.2794 7.8595 11.2491 7.78277 11.2491 7.77162C11.2491 7.76047 11.4438 7.74136 11.6819 7.72916C12.0619 7.70969 12.1356 7.68669 12.2855 7.5409C12.5022 7.33 12.5546 7.07847 12.435 6.82262C12.2625 6.45349 12.1799 6.44057 10.0206 6.4447C8.95527 6.44677 8.02846 6.47112 7.96097 6.49878ZM7.00757 18.1599C6.77896 18.3199 6.72256 18.4256 6.72059 18.6979C6.71908 18.9028 6.75224 18.9872 6.8885 19.1255L7.05827 19.2979H10.012C13.2819 19.2979 13.1507 19.3131 13.3146 18.9149C13.4272 18.6412 13.3308 18.3238 13.0896 18.1745C12.9128 18.065 12.7745 18.0598 10.0278 18.0596C7.41234 18.0594 7.13813 18.0685 7.00757 18.1599ZM4.30254 20.8549C4.02782 21.1339 4.02782 21.4134 4.30254 21.6924L4.50002 21.8929H9.99742C15.9686 21.8929 15.7337 21.9057 15.8843 21.5702C16.0095 21.2912 15.9703 21.0723 15.7562 20.8549L15.5587 20.6544H10.0294H4.50002L4.30254 20.8549ZM4.30254 23.5089C4.02782 23.7878 4.02782 24.0674 4.30254 24.3463L4.50002 24.5468H9.99742C15.9686 24.5468 15.7337 24.5597 15.8843 24.2241C15.9725 24.0276 15.9725 23.8276 15.8843 23.6311C15.7337 23.2955 15.9686 23.3083 9.99742 23.3083H4.50002L4.30254 23.5089Z" fill="#5C2B78"/>
</svg>
