<svg width="36" height="31" viewBox="0 0 36 31" fill="none" xmlns="http://www.w3.org/2000/svg">
<path fill-rule="evenodd" clip-rule="evenodd" d="M4.26848 0.227475C3.72994 0.392434 3.24503 0.791528 2.98538 1.28361L2.80214 1.63085L2.78413 10.7821L2.76612 19.9334L2.51124 19.9796C1.80468 20.1077 1.17595 20.5909 0.865613 21.2444C0.605963 21.791 0.610397 22.5546 0.876255 23.0961C1.09681 23.5451 1.55383 23.9923 2.00559 24.201L2.32459 24.3485L13.5981 24.3665L24.8717 24.3846V26.2794C24.8717 28.4286 24.9194 28.7515 25.3255 29.3455C25.6264 29.7856 26.2422 30.2115 26.7314 30.3178C26.9797 30.3717 28.1103 30.3888 30.4333 30.3737L33.7777 30.3519L34.2337 30.1273C34.7541 29.871 35.1036 29.5097 35.3692 28.9534L35.5483 28.5782V21.108V13.6378L35.3661 13.2492C35.1325 12.7508 34.6563 12.2762 34.1635 12.0506C33.844 11.9043 33.6458 11.8675 33.0436 11.8427L32.3119 11.8126L32.2928 6.78994L32.2737 1.76729L32.0954 1.39208C31.8818 0.942433 31.5138 0.563328 31.0866 0.352866L30.7728 0.198209L17.6061 0.186679C10.3644 0.180335 4.36249 0.198686 4.26848 0.227475ZM30.7988 1.19103C30.9358 1.26812 31.1243 1.44236 31.2174 1.57825L31.3868 1.82542L31.4051 6.82766L31.4235 11.8299H30.5373H29.6511L29.6321 7.57318C29.6138 3.49759 29.6075 3.31039 29.4831 3.17292L29.3531 3.02938H17.5273C5.79247 3.02938 5.70051 3.03041 5.56509 3.16583C5.43036 3.30056 5.42865 3.39321 5.42865 10.6701C5.42865 17.9471 5.43036 18.0397 5.56509 18.1745C5.70024 18.3096 5.79247 18.3109 15.2866 18.3109H24.8717V19.1296V19.9482H23.3345C21.7298 19.9482 21.4866 19.9848 21.1659 20.2749C20.979 20.4439 20.7784 20.867 20.7784 21.0922C20.7784 21.1991 20.7349 21.3461 20.6816 21.419C20.5884 21.5465 20.4623 21.552 17.2876 21.5685C14.7552 21.5816 13.952 21.5658 13.8248 21.5002C13.7041 21.4381 13.638 21.3207 13.5811 21.0675C13.4704 20.5746 13.2507 20.255 12.9089 20.0895C12.6228 19.951 12.5288 19.9482 8.13594 19.9482H3.6549V10.9055C3.6549 1.14751 3.63484 1.69211 4.00658 1.34501C4.09465 1.26287 4.24338 1.16504 4.33718 1.12758C4.44824 1.08331 9.04669 1.05814 17.5286 1.05527C30.5397 1.05097 30.5497 1.05111 30.7988 1.19103ZM28.7603 7.87308V11.8299H27.8795C26.5613 11.8299 25.9221 12.0811 25.3726 12.8151C24.9318 13.4039 24.911 13.5212 24.8853 15.565L24.8619 17.424H15.5887H6.31552V10.6701V3.91626H17.5379H28.7603V7.87308ZM14.6115 6.75003C14.4752 6.88633 14.4693 7.21659 14.6008 7.34812C14.6731 7.42037 14.9708 7.46 15.7094 7.49575C16.7779 7.54739 17.1552 7.64591 17.4901 7.96054C17.6747 8.13396 17.877 8.4533 17.9457 8.6798L17.9938 8.83848L16.391 8.78943L14.7882 8.74045L14.6111 8.91762C14.3988 9.12992 14.3853 9.32544 14.5703 9.51039C14.6989 9.63905 14.7977 9.64683 16.2985 9.64683C17.1741 9.64683 17.9102 9.66675 17.9346 9.69104C18.0242 9.78061 17.6056 10.4145 17.3358 10.5978C16.8996 10.8942 16.6634 10.943 15.6668 10.943C14.6215 10.943 14.4338 11.0046 14.4338 11.3474C14.4338 11.5448 14.6711 11.7916 17.3758 14.4079C18.3177 15.319 18.4672 15.3913 18.7268 15.0612C18.8046 14.9623 18.8692 14.8318 18.8704 14.7713C18.8716 14.7107 18.2231 14.0289 17.4294 13.2561L15.9861 11.8512L16.4209 11.8082C17.0421 11.7468 17.3031 11.6578 17.7634 11.3504C18.2137 11.0497 18.5981 10.5495 18.7711 10.0391L18.881 9.71505H19.4469C19.8878 9.71505 20.0434 9.68865 20.1509 9.59566C20.3649 9.41065 20.3909 9.2154 20.2289 9.00944C20.0939 8.83786 20.0544 8.82818 19.4881 8.82818H18.8898L18.8051 8.53824C18.7585 8.37874 18.6306 8.08709 18.5208 7.89014L18.3213 7.53198H19.2087C20.0052 7.53198 20.1102 7.51799 20.2326 7.39553C20.404 7.22416 20.406 7.04686 20.2387 6.84028L20.1083 6.67921L17.4147 6.65991C15.0167 6.64271 14.709 6.65261 14.6115 6.75003ZM33.885 12.9074C34.2773 13.1123 34.587 13.5155 34.6686 13.9277L34.7126 14.1494H30.2302H25.7477L25.7954 13.9277C25.8987 13.4482 26.2186 13.0564 26.6795 12.845C26.9321 12.7291 27.1974 12.7196 30.2363 12.7183L33.5202 12.7168L33.885 12.9074ZM34.6955 20.3234V25.6106H30.227H25.7585V20.3234V15.0363H30.227H34.6955V20.3234ZM28.1161 17.371C27.9731 17.5751 27.9823 17.7376 28.1463 17.9016C28.2618 18.0171 28.374 18.0381 28.8797 18.0384C29.6471 18.0389 29.958 18.1289 30.2579 18.4373L30.4999 18.6861L29.3515 18.7202C28.3159 18.751 28.1937 18.7674 28.1065 18.8868C28.0534 18.9596 28.0098 19.0842 28.0098 19.1637C28.0098 19.2432 28.0534 19.3677 28.1065 19.4406C28.1936 19.56 28.3159 19.5763 29.3476 19.6071L30.4921 19.6412L30.2686 19.8954C29.9893 20.2133 29.7258 20.2884 28.8902 20.2889C28.1689 20.2894 28.0098 20.3663 28.0098 20.7149C28.0098 20.9717 30.6769 23.5639 30.9412 23.5639C31.2148 23.5639 31.3754 23.4121 31.3754 23.1536C31.3754 22.9534 31.2763 22.8349 30.4772 22.0799C29.9831 21.6131 29.5789 21.2035 29.5789 21.1696C29.5789 21.1357 29.6634 21.1077 29.7665 21.1073C30.2776 21.1055 31.0199 20.5303 31.2842 19.9312L31.4273 19.6071H31.8228C32.2651 19.6071 32.4442 19.4857 32.4442 19.1859C32.4442 18.9217 32.2529 18.7988 31.8049 18.7753L31.4066 18.7543L31.2839 18.4303L31.1612 18.1062H31.6587C32.24 18.1062 32.4613 17.9839 32.4613 17.6628C32.4613 17.5418 32.4027 17.419 32.3087 17.3429C32.1694 17.2301 31.9859 17.2194 30.1892 17.2194C28.2339 17.2194 28.2216 17.2203 28.1161 17.371ZM12.6065 20.9545C12.6636 21.0201 12.7273 21.208 12.748 21.3719C12.7926 21.7244 13.0756 22.1114 13.4154 22.2847C13.6292 22.3937 13.9544 22.404 17.2005 22.404L20.7517 22.4042L21.0599 22.2087C21.3866 22.0015 21.5537 21.7309 21.6344 21.2785C21.6612 21.1284 21.7135 20.9673 21.7508 20.9204C21.8012 20.8567 22.2053 20.8351 23.345 20.8351H24.8717V22.1654V23.4957L13.7346 23.4942C3.03975 23.4928 2.58663 23.4877 2.32459 23.3664C1.80611 23.1264 1.54005 22.7168 1.54005 22.1588C1.54005 21.7825 1.66489 21.4757 1.92277 21.2179C2.31361 20.8272 2.1159 20.8407 7.51587 20.8378C12.1819 20.8353 12.5092 20.8428 12.6065 20.9545ZM34.6846 27.4748C34.6622 28.4835 34.6548 28.5304 34.4732 28.8045C34.3697 28.9608 34.1571 29.1733 34.0007 29.2768L33.7164 29.4651L30.3286 29.484L26.9409 29.5028L26.5725 29.3103C26.3035 29.1699 26.1486 29.0282 25.9983 28.7855C25.7973 28.4606 25.7922 28.4303 25.7707 27.4412L25.7487 26.4292H30.2282H34.7077L34.6846 27.4748ZM29.0096 27.7138C28.8681 27.8701 28.8657 28.0602 29.0029 28.256C29.1053 28.4021 29.1493 28.4076 30.2203 28.4076C31.2102 28.4076 31.3439 28.394 31.4444 28.2829C31.587 28.1253 31.5899 27.8359 31.4502 27.6962C31.3615 27.6075 31.151 27.589 30.2328 27.589C29.2438 27.589 29.1102 27.6026 29.0096 27.7138Z" fill="#5C2B78"/>
</svg>
