<svg width="48" height="48" viewBox="0 0 48 48" fill="none" xmlns="http://www.w3.org/2000/svg">
<g clip-path="url(#clip0_161_7763)">
<path d="M29.1562 26.8125C36.1351 26.8125 41.8125 21.1351 41.8125 14.1562C41.8125 7.17737 36.1351 1.5 29.1562 1.5C22.1774 1.5 16.5 7.17737 16.5 14.1562C16.5 21.1351 22.1774 26.8125 29.1562 26.8125Z" fill="black"/>
<path d="M30.8687 24L23.5833 16.4167V14.25H27.375C28.3319 14.25 29.158 13.9385 29.8531 13.3156C30.5483 12.6927 30.9681 11.9208 31.1125 11H22.5V8.83333H30.7875C30.4806 8.20139 30.0247 7.68229 29.4198 7.27604C28.8149 6.86979 28.1333 6.66667 27.375 6.66667H22.5V4.5H35.5V6.66667H31.9792C32.2319 6.97361 32.4576 7.30764 32.6562 7.66875C32.8549 8.02986 33.0083 8.41806 33.1167 8.83333H35.5V11H33.3062C33.1618 12.5347 32.5299 13.8212 31.4104 14.8594C30.291 15.8976 28.9458 16.4167 27.375 16.4167H26.5896L33.875 24H30.8687Z" fill="white"/>
<path d="M46.3605 28.6235C45.3717 28.2342 44.2456 28.4891 43.5205 29.2654C43.5319 29.2537 40.7585 32.1321 36.4592 36.7123C35.7843 37.4719 34.8563 37.9219 33.8438 38.0062C33.568 38.0984 22.7439 38.0626 22.4531 38.0626C21.6654 38.0626 21.0469 37.4437 21.0469 36.6563C21.0469 35.8686 21.6654 35.2501 22.4531 35.2501H32.4375C33.991 35.2501 35.25 33.9907 35.25 32.4376C35.25 30.8841 33.991 29.6251 32.4375 29.6251H24.5343L23.4657 28.6967C19.7391 25.4601 14.1984 25.4601 10.4718 28.6967L9.4032 29.6251H1.40625C0.629517 29.6251 0 30.2546 0 31.0313V42.2813C0 43.058 0.629517 43.6876 1.40625 43.6876H9.74048C10.5 43.9124 11.2592 44.2501 12.0751 44.5877C14.1562 45.4875 16.519 46.5001 19.8937 46.5001H33.8438C36.0571 46.5001 38.1409 45.4582 39.4688 43.6876L47.1562 33.5626C47.7188 32.8312 48 31.9593 48 31.0313C47.9996 29.9675 47.3492 29.0131 46.3605 28.6235Z" fill="black"/>
</g>
<defs>
<clipPath id="clip0_161_7763">
<rect width="48" height="48" fill="white"/>
</clipPath>
</defs>
</svg>
