<svg width="80" height="25" viewBox="0 0 80 25" fill="none" xmlns="http://www.w3.org/2000/svg">
<g clip-path="url(#clip0_3733_6818)">
<path d="M79.7324 7.37279C79.0033 5.30244 77.0241 3.8162 74.7064 3.8162H74.6543C73.1439 3.8162 71.7832 4.44574 70.8132 5.45171C69.8431 4.44574 68.4824 3.8162 66.972 3.8162H66.9264C65.5983 3.8162 64.3809 4.30296 63.4499 5.10125V4.69886C63.4173 4.28998 63.0853 3.97196 62.6686 3.97196H59.1009C58.6647 3.97196 58.3132 4.32243 58.3132 4.75727V24.0589C58.3132 24.4938 58.6647 24.8442 59.1009 24.8442H62.6686C63.0658 24.8442 63.3978 24.5457 63.4434 24.1693V10.3128C63.4434 10.2609 63.4434 10.222 63.4499 10.1765C63.5085 9.55997 63.9642 9.04725 64.6803 8.98884H65.3379C65.6374 9.0148 65.8913 9.11864 66.0866 9.28089C66.3991 9.52752 66.5684 9.90395 66.5684 10.3193L66.5814 24.1044C66.5814 24.5392 66.9329 24.8962 67.3691 24.8962H70.9368C71.36 24.8962 71.6986 24.5652 71.7181 24.1498V10.3063C71.7181 9.85203 71.9264 9.43666 72.2975 9.19652C72.4798 9.0797 72.7012 9.00182 72.9551 8.97586H73.6126C74.3874 9.04076 74.8496 9.62487 74.8496 10.3063L74.8626 24.0784C74.8626 24.5132 75.2142 24.8637 75.6504 24.8637H79.2181C79.6348 24.8637 79.9798 24.5392 80.0059 24.1303V9.02778C79.9863 8.17757 79.8757 7.78167 79.7324 7.37279ZM55.5918 4.02388H53.554V0.726895C53.554 0.720405 53.554 0.720405 53.554 0.713915C53.554 0.324507 53.235 0 52.8314 0C52.7858 0 52.7402 0.00649014 52.6947 0.0129803C50.4355 0.629543 50.8848 3.7513 46.7572 4.01739H46.36C46.3014 4.01739 46.2428 4.02388 46.1842 4.03686C45.8392 4.12124 45.5723 4.43276 45.5723 4.80919V8.36578C45.5723 8.80062 45.9238 9.15109 46.36 9.15109H48.5085L48.502 24.2212C48.502 24.6495 48.8535 25 49.2832 25H52.8119C53.2415 25 53.5931 24.6495 53.5931 24.2212V9.15109H55.5918C56.0215 9.15109 56.3796 8.79413 56.3796 8.36578V4.80919C56.3796 4.37435 56.028 4.02388 55.5918 4.02388Z" fill="#00BAF2"/>
<path d="M42.7669 4.02388H39.1992C38.7695 4.02388 38.4115 4.37435 38.4115 4.80919V12.1625C38.4049 12.6168 38.0339 12.9803 37.5781 12.9803H36.0872C35.625 12.9803 35.2474 12.6103 35.2474 12.1495L35.2344 4.80919C35.2344 4.37435 34.8828 4.02388 34.4466 4.02388H30.8789C30.4427 4.02388 30.0911 4.37435 30.0911 4.80919V12.8634C30.0911 15.9203 32.2786 18.1075 35.3516 18.1075C35.3516 18.1075 37.6562 18.1075 37.7279 18.1205C38.1445 18.1659 38.4635 18.5164 38.4635 18.9447C38.4635 19.3666 38.151 19.717 37.7344 19.7689C37.7148 19.7689 37.6953 19.7754 37.6758 19.7819L32.4609 19.8014C32.0247 19.8014 31.6732 20.1519 31.6732 20.5867V24.1368C31.6732 24.5716 32.0247 24.9221 32.4609 24.9221H38.2878C41.3607 24.9221 43.5482 22.7414 43.5482 19.6846V4.80919C43.5547 4.37435 43.2031 4.02388 42.7669 4.02388ZM22.4805 4.04335H17.5326C17.0964 4.04335 16.7383 4.37435 16.7383 4.77674V6.15914C16.7383 6.16563 16.7383 6.17861 16.7383 6.1851C16.7383 6.19808 16.7383 6.20457 16.7383 6.21755V8.11267C16.7383 8.54102 17.1159 8.89797 17.5781 8.89797H22.2917C22.6628 8.95639 22.9557 9.22897 23.0013 9.65083V10.1116C22.9622 10.514 22.6693 10.8061 22.3112 10.8385H19.9805C16.875 10.8385 14.668 12.8959 14.668 15.7775V19.9117C14.668 22.7804 16.569 24.8183 19.6484 24.8183H26.1133C27.2721 24.8183 28.2161 23.9421 28.2161 22.8647V9.37824C28.2161 6.10722 26.5234 4.04335 22.4805 4.04335ZM23.0469 18.8798V19.438C23.0469 19.4834 23.0404 19.5288 23.0339 19.5678C23.0273 19.6067 23.0143 19.6456 23.0013 19.6846C22.8906 19.9961 22.5781 20.2233 22.207 20.2233H20.7227C20.2604 20.2233 19.8828 19.8728 19.8828 19.438V18.7695C19.8828 18.763 19.8828 18.75 19.8828 18.7435V16.9587V16.4006V16.3941C19.8828 15.9657 20.2604 15.6153 20.7227 15.6153H22.207C22.6693 15.6153 23.0469 15.9657 23.0469 16.4006V18.8798ZM8.56771 4.01739H0.77474C0.345052 4.01739 0 4.36786 0 4.78972V8.27492C0 8.28141 0 8.2879 0 8.29439C0 8.31386 0 8.32684 0 8.33982V24.1044C0 24.5327 0.31901 24.8832 0.722656 24.8897H4.35547C4.79167 24.8897 5.14323 24.5392 5.14323 24.1044L5.15625 18.7046H8.56771C11.4193 18.7046 13.4115 16.7316 13.4115 13.8694V8.85903C13.4115 6.00337 11.4193 4.01739 8.56771 4.01739ZM8.25521 10.5335V12.7272C8.25521 13.188 7.88411 13.5644 7.42188 13.5644H5.16276V9.17056H7.42188C7.88411 9.17056 8.25521 9.5405 8.25521 10.0013V10.5335Z" fill="#20336B"/>
</g>
<defs>
<clipPath id="clip0_3733_6818">
<rect width="80" height="25" fill="white"/>
</clipPath>
</defs>
</svg>
