<svg width="39" height="31" viewBox="0 0 39 31" fill="none" xmlns="http://www.w3.org/2000/svg">
<path fill-rule="evenodd" clip-rule="evenodd" d="M19.0341 0.222535C15.9814 0.409897 12.9276 1.60264 10.5177 3.54892C9.55499 4.32644 9.00343 4.85431 8.36517 5.60924C6.88631 7.35815 5.78619 9.56044 5.2937 11.7579L5.12922 12.4916L3.29237 12.5281L1.45545 12.5647L1.21662 12.8036C1.01391 13.0065 0.977866 13.0949 0.978524 13.3885C0.979182 13.7221 1.05397 13.8423 3.09667 16.793C4.47451 18.7833 5.28375 19.8876 5.41336 19.9547C5.64517 20.0746 5.90103 20.0861 6.15828 19.9883C6.38234 19.9031 6.45851 19.7994 8.78646 16.4121C10.8062 13.473 10.8226 13.4407 10.5392 12.9609C10.3085 12.5705 10.1021 12.5281 8.43214 12.5281H6.91694L6.9619 12.2473C7.18113 10.8762 8.05368 8.93336 9.10928 7.46598C11.6768 3.89682 16.4953 1.6022 20.6034 1.9922C24.2287 2.33637 27.2423 3.96458 30.009 7.07385L30.4571 7.57746L30.8453 7.5401C31.357 7.49098 31.6445 7.20047 31.6438 6.73356C31.6433 6.36439 31.5692 6.24472 30.7895 5.3539C28.6518 2.91125 25.5198 1.10503 22.3237 0.471815C21.5967 0.327729 20.0376 0.16398 19.6189 0.187738C19.4983 0.194537 19.2352 0.210254 19.0341 0.222535ZM15.8496 9.91513C15.4947 10.1535 15.3566 10.5673 15.5099 10.9324C15.7153 11.4217 15.8553 11.4635 17.4248 11.5047C18.74 11.5391 18.8403 11.5519 19.1821 11.728C19.3879 11.8341 19.6516 12.0551 19.7925 12.2397L20.0405 12.5647L18.0353 12.6012C15.7879 12.6421 15.7273 12.6559 15.5099 13.1735C15.3571 13.5373 15.4948 13.9524 15.8467 14.1888C16.09 14.3522 16.1354 14.3557 18.0581 14.3557C19.1377 14.3557 20.021 14.3756 20.021 14.4C20.021 14.5302 19.5235 15.042 19.2282 15.2156C18.8963 15.4108 18.8531 15.4165 17.4624 15.4522C15.9518 15.491 15.8458 15.5154 15.587 15.8848C15.4387 16.0965 15.4455 16.5649 15.6007 16.8155C15.8213 17.1718 20.5797 21.6205 20.8569 21.7295C21.4743 21.9724 22.1061 21.3889 21.9576 20.7127C21.9211 20.5464 21.4802 20.0838 20.1999 18.8688L18.4909 17.247L18.9819 17.148C20.2 16.9021 21.3521 15.9055 21.7411 14.761L21.8746 14.3682L22.6353 14.3437C23.3883 14.3193 23.3981 14.3167 23.6076 14.0821C23.8806 13.7764 23.9371 13.5358 23.8128 13.209C23.64 12.7549 23.4047 12.6413 22.5779 12.6128L21.8554 12.5878L21.769 12.3204C21.7215 12.1733 21.6206 11.9296 21.5448 11.7788L21.407 11.5047L22.304 11.5044C23.0704 11.5042 23.2357 11.483 23.4395 11.3587C23.9481 11.0486 24.0225 10.408 23.5974 10.0006L23.3742 9.78676L19.7375 9.76651L16.1009 9.74634L15.8496 9.91513ZM33.0553 10.6641C32.9692 10.7244 31.955 12.1423 30.8015 13.8149C28.5117 17.1354 28.4902 17.1768 28.8075 17.6442C29.0912 18.0622 29.1833 18.0816 30.8852 18.0828L32.4289 18.0839L32.3268 18.5257C31.4387 22.3702 28.7871 25.5899 25.0493 27.3629C21.5487 29.0233 18.1209 29.0856 14.615 27.5523C12.6557 26.6954 11.0417 25.4798 9.34687 23.5849C8.916 23.1031 8.84758 23.0549 8.59508 23.0549C8.00807 23.0549 7.61521 23.4727 7.68854 24.0191C7.78269 24.721 10.0174 26.9014 11.8335 28.0632C13.5191 29.1415 15.6803 29.9558 17.6667 30.2611C18.687 30.4178 20.5347 30.4184 21.5562 30.2621C27.5302 29.3479 32.5475 24.8638 33.9192 19.2128C34.0454 18.6924 34.1599 18.2256 34.1736 18.1753C34.1925 18.1054 34.613 18.0839 35.9621 18.0839C37.4933 18.0839 37.7536 18.0675 37.937 17.9592C38.2089 17.7985 38.3972 17.4041 38.3476 17.0986C38.3053 16.8377 34.4148 11.0938 34.0511 10.7554C33.8014 10.523 33.3198 10.4788 33.0553 10.6641Z" fill="#5C2B78"/>
</svg>
