<svg width="21" height="20" viewBox="0 0 21 20" fill="none" xmlns="http://www.w3.org/2000/svg">
<path d="M3.83333 14.1667H10.5833C10.9167 15.5833 12.25 16.6667 13.8333 16.6667C15.4167 16.6667 16.6667 15.5833 17.0833 14.1667H17.1667C17.6667 14.1667 18 13.8333 18 13.3333C18 12.8333 17.6667 12.5 17.1667 12.5H17.0833C16.75 11.0833 15.4167 10 13.8333 10C12.25 10 11 11.0833 10.5833 12.5H3.83333C3.33333 12.5 3 12.8333 3 13.3333C3 13.8333 3.33333 14.1667 3.83333 14.1667ZM13.8333 11.6667C14.75 11.6667 15.5 12.4167 15.5 13.3333C15.5 14.25 14.75 15 13.8333 15C12.9167 15 12.1667 14.25 12.1667 13.3333C12.1667 12.4167 12.9167 11.6667 13.8333 11.6667Z" fill="white"/>
<path d="M3.83333 7.50004H3.91667C4.25 8.91671 5.58333 10 7.16667 10C8.75 10 10 8.91671 10.4167 7.50004H17.1667C17.6667 7.50004 18 7.16671 18 6.66671C18 6.16671 17.6667 5.83337 17.1667 5.83337H10.4167C10.0833 4.41671 8.75 3.33337 7.16667 3.33337C5.58333 3.33337 4.33333 4.41671 3.91667 5.83337H3.83333C3.33333 5.83337 3 6.16671 3 6.66671C3 7.16671 3.33333 7.50004 3.83333 7.50004ZM7.16667 5.00004C8.08333 5.00004 8.83333 5.75004 8.83333 6.66671C8.83333 7.58337 8.08333 8.33337 7.16667 8.33337C6.25 8.33337 5.5 7.58337 5.5 6.66671C5.5 5.75004 6.25 5.00004 7.16667 5.00004Z" fill="white"/>
</svg>
