<svg width="20" height="20" viewBox="0 0 20 20" fill="none" xmlns="http://www.w3.org/2000/svg">
<path d="M16.2813 2L15.9092 2.19491C15.9092 2.19491 15.2735 2.53378 14.5271 2.99225C13.7807 3.45072 12.9192 3.99779 12.3654 4.5515C11.526 5.39092 10.8151 6.45626 10.4695 6.94352L10.3455 6.81949L9.93798 6.42968L9.53045 6.81949L8.13068 8.23699L7.72315 8.64452L8.13068 9.03433L8.57364 9.4773L4.60465 13.4463L3.39978 14.0487L3.31119 14.2259L2.17719 16.5116L2 16.866L2.2835 17.1672L2.8505 17.7165L3.134 18L3.50609 17.8228L5.95127 16.6002L6.55371 15.3953L10.5227 11.4264L10.9657 11.8693L11.3555 12.2769L11.763 11.8693L13.1805 10.4695L13.5703 10.062L13.1805 9.65449L13.0565 9.53045C13.526 9.20266 14.5382 8.54485 15.4485 7.63455C16.6334 6.44961 17.8051 4.09081 17.8051 4.09081L18 3.71872L17.7165 3.4175L16.5825 2.2835L16.2813 2ZM16.0687 3.39978L16.6002 3.93134C16.3167 4.44297 15.3998 6.05316 14.6334 6.81949C13.6678 7.78516 11.887 9.03433 11.887 9.03433L11.32 9.40642L11.7984 9.90255L11.9579 10.062L11.3555 10.6645L11.3023 10.629L10.9125 10.2215L9.77852 9.08749L9.37099 8.69767L9.33555 8.64452L9.93798 8.04208L10.5759 8.67996L10.9657 8.11296C10.9657 8.11296 12.3145 6.23256 13.1805 5.36656C13.5725 4.97453 14.412 4.38981 15.1296 3.94906C15.6434 3.63455 15.8516 3.51938 16.0687 3.39978ZM9.37099 10.3101L9.68992 10.629L5.68549 14.6334L5.63234 14.7043L5.57918 14.7929L5.10078 15.7497L3.4175 16.5825L4.25028 14.8992L5.20709 14.4208L5.29568 14.3677L5.36656 14.3145L9.37099 10.3101Z" fill="white" stroke="white" stroke-width="0.3"/>
</svg>
