<svg width="20" height="20" viewBox="0 0 20 20" fill="none" xmlns="http://www.w3.org/2000/svg">
<g clip-path="url(#clip0_40_6600)">
<path d="M19.9343 3.84998C19.6509 3.14998 19.3093 3.33331 15.0009 3.33331C14.7799 3.33331 14.568 3.42111 14.4117 3.57739C14.2554 3.73367 14.1676 3.94563 14.1676 4.16664C14.1676 4.38766 14.2554 4.59962 14.4117 4.7559C14.568 4.91218 14.7799 4.99998 15.0009 4.99998H17.1593L10.8343 11.325L8.09261 8.57498C8.01514 8.49687 7.92297 8.43487 7.82142 8.39257C7.71987 8.35026 7.61095 8.32848 7.50094 8.32848C7.39093 8.32848 7.28201 8.35026 7.18046 8.39257C7.07891 8.43487 6.98674 8.49687 6.90927 8.57498L0.242607 15.2416C0.125083 15.3582 0.044932 15.5071 0.012374 15.6694C-0.0201841 15.8317 -0.00367449 16 0.0597978 16.1529C0.12327 16.3057 0.230829 16.4363 0.368763 16.5278C0.506696 16.6193 0.668753 16.6676 0.834274 16.6666C1.32594 16.6666 0.97594 16.8666 7.50094 10.3416L10.2426 13.0916C10.3201 13.1697 10.4122 13.2317 10.5138 13.2741C10.6153 13.3164 10.7243 13.3381 10.8343 13.3381C10.9443 13.3381 11.0532 13.3164 11.1548 13.2741C11.2563 13.2317 11.3485 13.1697 11.4259 13.0916L18.3343 6.17498V8.33331C18.3343 8.55432 18.4221 8.76628 18.5784 8.92256C18.7346 9.07884 18.9466 9.16664 19.1676 9.16664C19.3886 9.16664 19.6006 9.07884 19.7569 8.92256C19.9131 8.76628 20.0009 8.55432 20.0009 8.33331C20.0009 3.84164 20.0009 4.06664 19.9343 3.84998Z" fill="white"/>
</g>
<defs>
<clipPath id="clip0_40_6600">
<rect width="20" height="20" fill="white"/>
</clipPath>
</defs>
</svg>
