<svg width="20" height="20" viewBox="0 0 20 20" fill="none" xmlns="http://www.w3.org/2000/svg">
<path d="M3.67102 12.1025L6.50602 9.26746L8.86269 11.625L11.4935 8.99413L9.99936 7.49996H14.166V11.6666L12.6719 10.1725L8.86269 13.9816L6.50602 11.625L4.44352 13.6866C5.3797 15.0957 6.81654 16.0961 8.46288 16.4852C10.1092 16.8744 11.8419 16.623 13.3099 15.7822C14.7778 14.9414 15.8712 13.5739 16.3685 11.957C16.8657 10.34 16.7297 8.59446 15.9879 7.07407C15.2461 5.55368 13.9541 4.37215 12.3736 3.76891C10.7931 3.16568 9.04235 3.18585 7.47618 3.82535C5.91001 4.46485 4.64552 5.67584 3.93897 7.21292C3.23241 8.75001 3.13662 10.4982 3.67102 12.1033V12.1025ZM2.38936 13.4008L2.38102 13.3925L2.38436 13.3891C1.9093 12.3225 1.66453 11.1676 1.66602 9.99996C1.66602 5.39746 5.39686 1.66663 9.99936 1.66663C14.6019 1.66663 18.3327 5.39746 18.3327 9.99996C18.3327 14.6025 14.6019 18.3333 9.99936 18.3333C6.60769 18.3333 3.69102 16.3083 2.38936 13.4008Z" fill="white"/>
</svg>
