<svg width="20" height="20" viewBox="0 0 20 20" fill="none" xmlns="http://www.w3.org/2000/svg">
<g clip-path="url(#clip0_40_6635)">
<mask id="path-1-outside-1_40_6635" maskUnits="userSpaceOnUse" x="1" y="1" width="18" height="18" fill="black">
<rect fill="white" x="1" y="1" width="18" height="18"/>
<path d="M15.7143 13.4286C15.3107 13.4305 14.9154 13.5432 14.5714 13.7543L12.8057 11.9829C13.2166 11.4033 13.4373 10.7104 13.4373 10C13.4373 9.28958 13.2166 8.5967 12.8057 8.01714L14.5714 6.24571C14.9154 6.4568 15.3107 6.56946 15.7143 6.57143C16.1664 6.57143 16.6083 6.43737 16.9842 6.18622C17.36 5.93506 17.653 5.57808 17.826 5.16042C17.999 4.74276 18.0443 4.28318 17.9561 3.83979C17.8679 3.39641 17.6502 2.98913 17.3305 2.66947C17.0109 2.34981 16.6036 2.13212 16.1602 2.04392C15.7168 1.95573 15.2572 2.00099 14.8396 2.17399C14.4219 2.34699 14.0649 2.63996 13.8138 3.01584C13.5626 3.39172 13.4286 3.83364 13.4286 4.28572C13.4305 4.68929 13.5432 5.08459 13.7543 5.42857L11.9829 7.19429C11.4033 6.78343 10.7104 6.56275 10 6.56275C9.28958 6.56275 8.5967 6.78343 8.01714 7.19429L6.24571 5.42857C6.4568 5.08459 6.56946 4.68929 6.57143 4.28572C6.57143 3.83364 6.43737 3.39172 6.18622 3.01584C5.93506 2.63996 5.57808 2.34699 5.16042 2.17399C4.74276 2.00099 4.28318 1.95573 3.83979 2.04392C3.39641 2.13212 2.98913 2.34981 2.66947 2.66947C2.34981 2.98913 2.13212 3.39641 2.04392 3.83979C1.95573 4.28318 2.00099 4.74276 2.17399 5.16042C2.34699 5.57808 2.63996 5.93506 3.01584 6.18622C3.39172 6.43737 3.83364 6.57143 4.28572 6.57143C4.68929 6.56946 5.08459 6.4568 5.42857 6.24571L7.19429 8.01714C6.78343 8.5967 6.56275 9.28958 6.56275 10C6.56275 10.7104 6.78343 11.4033 7.19429 11.9829L5.42857 13.7543C5.08459 13.5432 4.68929 13.4305 4.28572 13.4286C3.83364 13.4286 3.39172 13.5626 3.01584 13.8138C2.63996 14.0649 2.34699 14.4219 2.17399 14.8396C2.00099 15.2572 1.95573 15.7168 2.04392 16.1602C2.13212 16.6036 2.34981 17.0109 2.66947 17.3305C2.98913 17.6502 3.39641 17.8679 3.83979 17.9561C4.28318 18.0443 4.74276 17.999 5.16042 17.826C5.57808 17.653 5.93506 17.36 6.18622 16.9842C6.43737 16.6083 6.57143 16.1664 6.57143 15.7143C6.56946 15.3107 6.4568 14.9154 6.24571 14.5714L8.01714 12.8057C8.5967 13.2166 9.28958 13.4373 10 13.4373C10.7104 13.4373 11.4033 13.2166 11.9829 12.8057L13.7543 14.5714C13.5432 14.9154 13.4305 15.3107 13.4286 15.7143C13.4286 16.1664 13.5626 16.6083 13.8138 16.9842C14.0649 17.36 14.4219 17.653 14.8396 17.826C15.2572 17.999 15.7168 18.0443 16.1602 17.9561C16.6036 17.8679 17.0109 17.6502 17.3305 17.3305C17.6502 17.0109 17.8679 16.6036 17.9561 16.1602C18.0443 15.7168 17.999 15.2572 17.826 14.8396C17.653 14.4219 17.36 14.0649 16.9842 13.8138C16.6083 13.5626 16.1664 13.4286 15.7143 13.4286ZM15.7143 3.14286C15.9403 3.14286 16.1613 3.20989 16.3492 3.33546C16.5372 3.46104 16.6836 3.63953 16.7701 3.84836C16.8566 4.05719 16.8793 4.28698 16.8352 4.50868C16.7911 4.73037 16.6822 4.93401 16.5224 5.09384C16.3626 5.25367 16.1589 5.36251 15.9372 5.40661C15.7156 5.45071 15.4858 5.42808 15.2769 5.34158C15.0681 5.25508 14.8896 5.10859 14.764 4.92065C14.6385 4.73271 14.5714 4.51175 14.5714 4.28572C14.5714 3.98261 14.6918 3.69192 14.9062 3.47759C15.1205 3.26327 15.4112 3.14286 15.7143 3.14286ZM3.14286 4.28572C3.14286 4.05968 3.20989 3.83872 3.33546 3.65078C3.46104 3.46284 3.63953 3.31635 3.84836 3.22985C4.05719 3.14335 4.28698 3.12072 4.50868 3.16482C4.73037 3.20891 4.93401 3.31776 5.09384 3.47759C5.25367 3.63742 5.36251 3.84106 5.40661 4.06275C5.45071 4.28445 5.42808 4.51424 5.34158 4.72307C5.25508 4.9319 5.10859 5.11039 4.92065 5.23597C4.73271 5.36154 4.51175 5.42857 4.28572 5.42857C3.98261 5.42857 3.69192 5.30816 3.47759 5.09384C3.26327 4.87951 3.14286 4.58882 3.14286 4.28572ZM4.28572 16.8571C4.05968 16.8571 3.83872 16.7901 3.65078 16.6645C3.46284 16.539 3.31635 16.3605 3.22985 16.1516C3.14335 15.9428 3.12072 15.713 3.16482 15.4913C3.20891 15.2696 3.31776 15.066 3.47759 14.9062C3.63742 14.7463 3.84106 14.6375 4.06275 14.5934C4.28445 14.5493 4.51424 14.5719 4.72307 14.6584C4.9319 14.7449 5.11039 14.8914 5.23597 15.0793C5.36154 15.2673 5.42857 15.4882 5.42857 15.7143C5.42857 16.0174 5.30816 16.3081 5.09384 16.5224C4.87951 16.7367 4.58882 16.8571 4.28572 16.8571ZM10 12.2857C9.54793 12.2857 9.10601 12.1517 8.73013 11.9005C8.35424 11.6493 8.06128 11.2924 7.88828 10.8747C7.71527 10.457 7.67001 9.99746 7.7582 9.55408C7.8464 9.11069 8.06409 8.70342 8.38376 8.38376C8.70342 8.06409 9.11069 7.8464 9.55408 7.7582C9.99746 7.67001 10.457 7.71527 10.8747 7.88828C11.2924 8.06128 11.6493 8.35424 11.9005 8.73013C12.1517 9.10601 12.2857 9.54793 12.2857 10C12.2857 10.6062 12.0449 11.1876 11.6162 11.6162C11.1876 12.0449 10.6062 12.2857 10 12.2857ZM15.7143 16.8571C15.4882 16.8571 15.2673 16.7901 15.0793 16.6645C14.8914 16.539 14.7449 16.3605 14.6584 16.1516C14.5719 15.9428 14.5493 15.713 14.5934 15.4913C14.6375 15.2696 14.7463 15.066 14.9062 14.9062C15.066 14.7463 15.2696 14.6375 15.4913 14.5934C15.713 14.5493 15.9428 14.5719 16.1516 14.6584C16.3605 14.7449 16.539 14.8914 16.6645 15.0793C16.7901 15.2673 16.8571 15.4882 16.8571 15.7143C16.8571 16.0174 16.7367 16.3081 16.5224 16.5224C16.3081 16.7367 16.0174 16.8571 15.7143 16.8571Z"/>
</mask>
<path d="M15.7143 13.4286C15.3107 13.4305 14.9154 13.5432 14.5714 13.7543L12.8057 11.9829C13.2166 11.4033 13.4373 10.7104 13.4373 10C13.4373 9.28958 13.2166 8.5967 12.8057 8.01714L14.5714 6.24571C14.9154 6.4568 15.3107 6.56946 15.7143 6.57143C16.1664 6.57143 16.6083 6.43737 16.9842 6.18622C17.36 5.93506 17.653 5.57808 17.826 5.16042C17.999 4.74276 18.0443 4.28318 17.9561 3.83979C17.8679 3.39641 17.6502 2.98913 17.3305 2.66947C17.0109 2.34981 16.6036 2.13212 16.1602 2.04392C15.7168 1.95573 15.2572 2.00099 14.8396 2.17399C14.4219 2.34699 14.0649 2.63996 13.8138 3.01584C13.5626 3.39172 13.4286 3.83364 13.4286 4.28572C13.4305 4.68929 13.5432 5.08459 13.7543 5.42857L11.9829 7.19429C11.4033 6.78343 10.7104 6.56275 10 6.56275C9.28958 6.56275 8.5967 6.78343 8.01714 7.19429L6.24571 5.42857C6.4568 5.08459 6.56946 4.68929 6.57143 4.28572C6.57143 3.83364 6.43737 3.39172 6.18622 3.01584C5.93506 2.63996 5.57808 2.34699 5.16042 2.17399C4.74276 2.00099 4.28318 1.95573 3.83979 2.04392C3.39641 2.13212 2.98913 2.34981 2.66947 2.66947C2.34981 2.98913 2.13212 3.39641 2.04392 3.83979C1.95573 4.28318 2.00099 4.74276 2.17399 5.16042C2.34699 5.57808 2.63996 5.93506 3.01584 6.18622C3.39172 6.43737 3.83364 6.57143 4.28572 6.57143C4.68929 6.56946 5.08459 6.4568 5.42857 6.24571L7.19429 8.01714C6.78343 8.5967 6.56275 9.28958 6.56275 10C6.56275 10.7104 6.78343 11.4033 7.19429 11.9829L5.42857 13.7543C5.08459 13.5432 4.68929 13.4305 4.28572 13.4286C3.83364 13.4286 3.39172 13.5626 3.01584 13.8138C2.63996 14.0649 2.34699 14.4219 2.17399 14.8396C2.00099 15.2572 1.95573 15.7168 2.04392 16.1602C2.13212 16.6036 2.34981 17.0109 2.66947 17.3305C2.98913 17.6502 3.39641 17.8679 3.83979 17.9561C4.28318 18.0443 4.74276 17.999 5.16042 17.826C5.57808 17.653 5.93506 17.36 6.18622 16.9842C6.43737 16.6083 6.57143 16.1664 6.57143 15.7143C6.56946 15.3107 6.4568 14.9154 6.24571 14.5714L8.01714 12.8057C8.5967 13.2166 9.28958 13.4373 10 13.4373C10.7104 13.4373 11.4033 13.2166 11.9829 12.8057L13.7543 14.5714C13.5432 14.9154 13.4305 15.3107 13.4286 15.7143C13.4286 16.1664 13.5626 16.6083 13.8138 16.9842C14.0649 17.36 14.4219 17.653 14.8396 17.826C15.2572 17.999 15.7168 18.0443 16.1602 17.9561C16.6036 17.8679 17.0109 17.6502 17.3305 17.3305C17.6502 17.0109 17.8679 16.6036 17.9561 16.1602C18.0443 15.7168 17.999 15.2572 17.826 14.8396C17.653 14.4219 17.36 14.0649 16.9842 13.8138C16.6083 13.5626 16.1664 13.4286 15.7143 13.4286ZM15.7143 3.14286C15.9403 3.14286 16.1613 3.20989 16.3492 3.33546C16.5372 3.46104 16.6836 3.63953 16.7701 3.84836C16.8566 4.05719 16.8793 4.28698 16.8352 4.50868C16.7911 4.73037 16.6822 4.93401 16.5224 5.09384C16.3626 5.25367 16.1589 5.36251 15.9372 5.40661C15.7156 5.45071 15.4858 5.42808 15.2769 5.34158C15.0681 5.25508 14.8896 5.10859 14.764 4.92065C14.6385 4.73271 14.5714 4.51175 14.5714 4.28572C14.5714 3.98261 14.6918 3.69192 14.9062 3.47759C15.1205 3.26327 15.4112 3.14286 15.7143 3.14286ZM3.14286 4.28572C3.14286 4.05968 3.20989 3.83872 3.33546 3.65078C3.46104 3.46284 3.63953 3.31635 3.84836 3.22985C4.05719 3.14335 4.28698 3.12072 4.50868 3.16482C4.73037 3.20891 4.93401 3.31776 5.09384 3.47759C5.25367 3.63742 5.36251 3.84106 5.40661 4.06275C5.45071 4.28445 5.42808 4.51424 5.34158 4.72307C5.25508 4.9319 5.10859 5.11039 4.92065 5.23597C4.73271 5.36154 4.51175 5.42857 4.28572 5.42857C3.98261 5.42857 3.69192 5.30816 3.47759 5.09384C3.26327 4.87951 3.14286 4.58882 3.14286 4.28572ZM4.28572 16.8571C4.05968 16.8571 3.83872 16.7901 3.65078 16.6645C3.46284 16.539 3.31635 16.3605 3.22985 16.1516C3.14335 15.9428 3.12072 15.713 3.16482 15.4913C3.20891 15.2696 3.31776 15.066 3.47759 14.9062C3.63742 14.7463 3.84106 14.6375 4.06275 14.5934C4.28445 14.5493 4.51424 14.5719 4.72307 14.6584C4.9319 14.7449 5.11039 14.8914 5.23597 15.0793C5.36154 15.2673 5.42857 15.4882 5.42857 15.7143C5.42857 16.0174 5.30816 16.3081 5.09384 16.5224C4.87951 16.7367 4.58882 16.8571 4.28572 16.8571ZM10 12.2857C9.54793 12.2857 9.10601 12.1517 8.73013 11.9005C8.35424 11.6493 8.06128 11.2924 7.88828 10.8747C7.71527 10.457 7.67001 9.99746 7.7582 9.55408C7.8464 9.11069 8.06409 8.70342 8.38376 8.38376C8.70342 8.06409 9.11069 7.8464 9.55408 7.7582C9.99746 7.67001 10.457 7.71527 10.8747 7.88828C11.2924 8.06128 11.6493 8.35424 11.9005 8.73013C12.1517 9.10601 12.2857 9.54793 12.2857 10C12.2857 10.6062 12.0449 11.1876 11.6162 11.6162C11.1876 12.0449 10.6062 12.2857 10 12.2857ZM15.7143 16.8571C15.4882 16.8571 15.2673 16.7901 15.0793 16.6645C14.8914 16.539 14.7449 16.3605 14.6584 16.1516C14.5719 15.9428 14.5493 15.713 14.5934 15.4913C14.6375 15.2696 14.7463 15.066 14.9062 14.9062C15.066 14.7463 15.2696 14.6375 15.4913 14.5934C15.713 14.5493 15.9428 14.5719 16.1516 14.6584C16.3605 14.7449 16.539 14.8914 16.6645 15.0793C16.7901 15.2673 16.8571 15.4882 16.8571 15.7143C16.8571 16.0174 16.7367 16.3081 16.5224 16.5224C16.3081 16.7367 16.0174 16.8571 15.7143 16.8571Z" fill="white"/>
<path d="M15.7143 13.4286C15.3107 13.4305 14.9154 13.5432 14.5714 13.7543L12.8057 11.9829C13.2166 11.4033 13.4373 10.7104 13.4373 10C13.4373 9.28958 13.2166 8.5967 12.8057 8.01714L14.5714 6.24571C14.9154 6.4568 15.3107 6.56946 15.7143 6.57143C16.1664 6.57143 16.6083 6.43737 16.9842 6.18622C17.36 5.93506 17.653 5.57808 17.826 5.16042C17.999 4.74276 18.0443 4.28318 17.9561 3.83979C17.8679 3.39641 17.6502 2.98913 17.3305 2.66947C17.0109 2.34981 16.6036 2.13212 16.1602 2.04392C15.7168 1.95573 15.2572 2.00099 14.8396 2.17399C14.4219 2.34699 14.0649 2.63996 13.8138 3.01584C13.5626 3.39172 13.4286 3.83364 13.4286 4.28572C13.4305 4.68929 13.5432 5.08459 13.7543 5.42857L11.9829 7.19429C11.4033 6.78343 10.7104 6.56275 10 6.56275C9.28958 6.56275 8.5967 6.78343 8.01714 7.19429L6.24571 5.42857C6.4568 5.08459 6.56946 4.68929 6.57143 4.28572C6.57143 3.83364 6.43737 3.39172 6.18622 3.01584C5.93506 2.63996 5.57808 2.34699 5.16042 2.17399C4.74276 2.00099 4.28318 1.95573 3.83979 2.04392C3.39641 2.13212 2.98913 2.34981 2.66947 2.66947C2.34981 2.98913 2.13212 3.39641 2.04392 3.83979C1.95573 4.28318 2.00099 4.74276 2.17399 5.16042C2.34699 5.57808 2.63996 5.93506 3.01584 6.18622C3.39172 6.43737 3.83364 6.57143 4.28572 6.57143C4.68929 6.56946 5.08459 6.4568 5.42857 6.24571L7.19429 8.01714C6.78343 8.5967 6.56275 9.28958 6.56275 10C6.56275 10.7104 6.78343 11.4033 7.19429 11.9829L5.42857 13.7543C5.08459 13.5432 4.68929 13.4305 4.28572 13.4286C3.83364 13.4286 3.39172 13.5626 3.01584 13.8138C2.63996 14.0649 2.34699 14.4219 2.17399 14.8396C2.00099 15.2572 1.95573 15.7168 2.04392 16.1602C2.13212 16.6036 2.34981 17.0109 2.66947 17.3305C2.98913 17.6502 3.39641 17.8679 3.83979 17.9561C4.28318 18.0443 4.74276 17.999 5.16042 17.826C5.57808 17.653 5.93506 17.36 6.18622 16.9842C6.43737 16.6083 6.57143 16.1664 6.57143 15.7143C6.56946 15.3107 6.4568 14.9154 6.24571 14.5714L8.01714 12.8057C8.5967 13.2166 9.28958 13.4373 10 13.4373C10.7104 13.4373 11.4033 13.2166 11.9829 12.8057L13.7543 14.5714C13.5432 14.9154 13.4305 15.3107 13.4286 15.7143C13.4286 16.1664 13.5626 16.6083 13.8138 16.9842C14.0649 17.36 14.4219 17.653 14.8396 17.826C15.2572 17.999 15.7168 18.0443 16.1602 17.9561C16.6036 17.8679 17.0109 17.6502 17.3305 17.3305C17.6502 17.0109 17.8679 16.6036 17.9561 16.1602C18.0443 15.7168 17.999 15.2572 17.826 14.8396C17.653 14.4219 17.36 14.0649 16.9842 13.8138C16.6083 13.5626 16.1664 13.4286 15.7143 13.4286ZM15.7143 3.14286C15.9403 3.14286 16.1613 3.20989 16.3492 3.33546C16.5372 3.46104 16.6836 3.63953 16.7701 3.84836C16.8566 4.05719 16.8793 4.28698 16.8352 4.50868C16.7911 4.73037 16.6822 4.93401 16.5224 5.09384C16.3626 5.25367 16.1589 5.36251 15.9372 5.40661C15.7156 5.45071 15.4858 5.42808 15.2769 5.34158C15.0681 5.25508 14.8896 5.10859 14.764 4.92065C14.6385 4.73271 14.5714 4.51175 14.5714 4.28572C14.5714 3.98261 14.6918 3.69192 14.9062 3.47759C15.1205 3.26327 15.4112 3.14286 15.7143 3.14286ZM3.14286 4.28572C3.14286 4.05968 3.20989 3.83872 3.33546 3.65078C3.46104 3.46284 3.63953 3.31635 3.84836 3.22985C4.05719 3.14335 4.28698 3.12072 4.50868 3.16482C4.73037 3.20891 4.93401 3.31776 5.09384 3.47759C5.25367 3.63742 5.36251 3.84106 5.40661 4.06275C5.45071 4.28445 5.42808 4.51424 5.34158 4.72307C5.25508 4.9319 5.10859 5.11039 4.92065 5.23597C4.73271 5.36154 4.51175 5.42857 4.28572 5.42857C3.98261 5.42857 3.69192 5.30816 3.47759 5.09384C3.26327 4.87951 3.14286 4.58882 3.14286 4.28572ZM4.28572 16.8571C4.05968 16.8571 3.83872 16.7901 3.65078 16.6645C3.46284 16.539 3.31635 16.3605 3.22985 16.1516C3.14335 15.9428 3.12072 15.713 3.16482 15.4913C3.20891 15.2696 3.31776 15.066 3.47759 14.9062C3.63742 14.7463 3.84106 14.6375 4.06275 14.5934C4.28445 14.5493 4.51424 14.5719 4.72307 14.6584C4.9319 14.7449 5.11039 14.8914 5.23597 15.0793C5.36154 15.2673 5.42857 15.4882 5.42857 15.7143C5.42857 16.0174 5.30816 16.3081 5.09384 16.5224C4.87951 16.7367 4.58882 16.8571 4.28572 16.8571ZM10 12.2857C9.54793 12.2857 9.10601 12.1517 8.73013 11.9005C8.35424 11.6493 8.06128 11.2924 7.88828 10.8747C7.71527 10.457 7.67001 9.99746 7.7582 9.55408C7.8464 9.11069 8.06409 8.70342 8.38376 8.38376C8.70342 8.06409 9.11069 7.8464 9.55408 7.7582C9.99746 7.67001 10.457 7.71527 10.8747 7.88828C11.2924 8.06128 11.6493 8.35424 11.9005 8.73013C12.1517 9.10601 12.2857 9.54793 12.2857 10C12.2857 10.6062 12.0449 11.1876 11.6162 11.6162C11.1876 12.0449 10.6062 12.2857 10 12.2857ZM15.7143 16.8571C15.4882 16.8571 15.2673 16.7901 15.0793 16.6645C14.8914 16.539 14.7449 16.3605 14.6584 16.1516C14.5719 15.9428 14.5493 15.713 14.5934 15.4913C14.6375 15.2696 14.7463 15.066 14.9062 14.9062C15.066 14.7463 15.2696 14.6375 15.4913 14.5934C15.713 14.5493 15.9428 14.5719 16.1516 14.6584C16.3605 14.7449 16.539 14.8914 16.6645 15.0793C16.7901 15.2673 16.8571 15.4882 16.8571 15.7143C16.8571 16.0174 16.7367 16.3081 16.5224 16.5224C16.3081 16.7367 16.0174 16.8571 15.7143 16.8571Z" stroke="white" stroke-width="0.4" mask="url(#path-1-outside-1_40_6635)"/>
</g>
<defs>
<clipPath id="clip0_40_6635">
<rect width="20" height="20" fill="white"/>
</clipPath>
</defs>
</svg>
