<svg width="110" height="31" viewBox="0 0 110 31" fill="none" xmlns="http://www.w3.org/2000/svg">
<path d="M31.0724 17.075C31.0724 9.85333 25.219 4 17.9974 4C15.2152 4 12.6397 4.87116 10.5203 6.35198L8.8221 4.24326C8.70808 6.12848 7.2303 7.64579 5.34811 7.80847L5.30098 7.81303L7.37473 9.45652C6.08548 11.2505 5.23865 13.3821 4.99539 15.6945L3.20898 15.4893C4.12423 16.5383 4.13488 18.0997 3.23179 19.1594L3.20898 19.1867L5.06229 18.9845C5.98666 25.3001 11.4249 30.15 17.9974 30.15C21.7846 30.15 25.1947 28.5384 27.5817 25.9644L28.1715 26.5391C28.1275 25.8124 28.6231 25.1632 29.3361 25.0127L29.3544 25.0081L28.6869 24.5992C30.1875 22.4707 31.0724 19.877 31.0724 17.0735V17.075Z" fill="url(#paint0_linear_119_1680)"/>
<path d="M4.61328 7.3828C6.65198 7.3828 8.30468 5.7301 8.30468 3.6914C8.30468 1.6527 6.65198 0 4.61328 0C2.57457 0 0.921875 1.6527 0.921875 3.6914C0.921875 5.7301 2.57457 7.3828 4.61328 7.3828Z" fill="url(#paint1_linear_119_1680)"/>
<path d="M1.69215 19.0742C2.62669 19.0742 3.38429 18.3166 3.38429 17.3821C3.38429 16.4475 2.62669 15.6899 1.69215 15.6899C0.757599 15.6899 0 16.4475 0 17.3821C0 18.3166 0.757599 19.0742 1.69215 19.0742Z" fill="url(#paint2_linear_119_1680)"/>
<path d="M29.8432 27.9957C30.5225 27.9957 31.0732 27.445 31.0732 26.7657C31.0732 26.0864 30.5225 25.5358 29.8432 25.5358C29.164 25.5358 28.6133 26.0864 28.6133 26.7657C28.6133 27.445 29.164 27.9957 29.8432 27.9957Z" fill="url(#paint3_linear_119_1680)"/>
<mask id="mask0_119_1680" style="mask-type:luminance" maskUnits="userSpaceOnUse" x="33" y="9" width="77" height="19">
<path d="M41.8773 13.788V16.4182C41.8773 18.1788 40.7674 19.1123 38.2482 19.1123H35.8795V22.3795C35.8795 23.0576 35.3991 23.4407 34.4398 23.4407C33.4804 23.4407 33 23.0591 33 22.3795V11.9408C33 11.3038 33.2706 11.1137 33.9897 11.1137H38.2482C40.7674 11.1137 41.8773 12.0472 41.8773 13.7865V13.788ZM38.9993 13.7667C38.9993 13.0872 38.6101 12.7694 37.859 12.7694H35.8795V17.4581H37.859C38.6086 17.4581 38.9993 17.1191 38.9993 16.4608V13.7667ZM51.5938 16.3969V22.4646C51.5938 23.0591 51.2335 23.4194 50.4536 23.4194C49.7633 23.4194 49.3741 23.1442 49.3133 22.6562V22.5711C48.9241 23.1442 48.0545 23.4407 46.7348 23.4407H46.4946C44.5759 23.4407 43.4053 22.8037 43.4053 21.1708V20.7467C43.4053 19.5167 44.0955 18.9435 45.5641 18.3916L48.4133 17.2879C48.8329 17.1389 49.0138 16.9701 49.0138 16.6508V16.3969C49.0138 15.8025 48.6839 15.6124 48.0241 15.6124H47.1544C46.4642 15.6124 46.1343 15.804 46.1343 16.3969V16.7573C46.1343 17.1176 45.8044 17.3304 45.0852 17.3304H44.7553C43.945 17.3304 43.5862 17.0765 43.5862 16.4608V16.0579C43.5862 14.7215 44.696 14.0632 47.1848 14.0632H48.0241C50.5129 14.0632 51.5923 14.7002 51.5923 16.3969H51.5938ZM49.0153 18.4555C48.8952 18.6045 48.7158 18.7094 48.4756 18.8158L46.6466 19.5577C46.1373 19.7706 45.9868 20.0245 45.9868 20.4487V21.107C45.9868 21.6801 46.3167 21.8915 46.9765 21.8915H47.9055C48.6246 21.8915 49.0153 21.6573 49.0153 21.107V18.4555ZM61.8486 15.4635L57.4107 27.1534C57.2009 27.684 56.7204 27.9379 56.1214 27.9379C55.2822 27.9379 54.5616 27.4286 54.9219 26.5802L56.2415 23.0804L53.3331 15.4635C53.0032 14.6364 53.6037 14.1271 54.5327 14.1271C55.2822 14.1271 55.6729 14.4661 55.8523 15.0393L57.6524 20.6615L59.4221 15.0393C59.5726 14.4661 59.9618 14.1271 60.6809 14.1271C61.6403 14.1271 62.18 14.6151 61.8501 15.4635H61.8486ZM67.5164 22.3795V12.1111C67.5164 11.4315 68.0561 11.0499 69.0155 11.0499C69.9748 11.0499 70.4857 11.4315 70.4857 12.1111V22.3795C70.4857 23.0576 69.9763 23.4407 69.0155 23.4407C68.0546 23.4407 67.5164 23.0591 67.5164 22.3795ZM82.3307 16.3969V22.3795C82.3307 22.9952 81.791 23.3981 80.8605 23.3981C79.93 23.3981 79.3903 22.9952 79.3903 22.3795V16.5034C79.3903 15.9302 79.0604 15.7189 78.4006 15.7189H77.5613C76.9015 15.7189 76.4819 15.9104 76.4819 16.5247V22.3795C76.4819 22.9952 75.9422 23.3981 75.0117 23.3981C74.0813 23.3981 73.5416 22.9952 73.5416 22.3795V15.1883C73.5416 14.5087 74.0813 14.1484 74.8612 14.1484C75.5803 14.1484 76.0608 14.4874 76.1201 14.9541V15.018C76.5093 14.3597 77.3789 14.0632 78.7898 14.0632H79.1501C81.1296 14.0632 82.3292 14.7002 82.3292 16.3969H82.3307ZM93.3973 10.6698V22.4449C93.3973 23.0393 92.9168 23.3997 92.0776 23.3997C91.2384 23.3997 90.8172 23.0393 90.7276 22.5726V22.5513C90.3976 23.1032 89.6785 23.4209 88.2387 23.4209H87.7583C85.7484 23.4209 84.6401 22.7839 84.6401 21.0872V16.3985C84.6401 14.7018 85.6602 14.0647 87.6093 14.0647H88.1186C89.4383 14.0647 90.1574 14.3612 90.4569 14.9344V10.6698C90.4569 9.9902 90.9967 9.62988 91.9271 9.62988C92.8576 9.62988 93.3973 9.9902 93.3973 10.6698ZM90.4569 16.4182C90.4569 15.8451 90.127 15.6337 89.4672 15.6337H88.3877C87.7583 15.6337 87.4284 15.8466 87.4284 16.4182V21.0857C87.4284 21.6801 87.7279 21.8702 88.3877 21.8702H89.4672C90.127 21.8702 90.4569 21.6786 90.4569 21.0857V16.4182ZM96.1248 12.4729V11.8572C96.1248 11.3479 96.6949 11.0088 97.5949 11.0088C98.495 11.0088 99.094 11.3479 99.094 11.8572V12.4729C99.094 13.0248 98.4935 13.3426 97.5949 13.3426C96.6964 13.3426 96.1248 12.9822 96.1248 12.4729ZM96.1552 22.3582V15.1867C96.1552 14.5284 96.6949 14.1468 97.6254 14.1468C98.5558 14.1468 99.0955 14.5284 99.0955 15.1867V22.3582C99.0955 23.0165 98.5558 23.3981 97.6254 23.3981C96.6949 23.3981 96.1552 23.0165 96.1552 22.3582ZM109.619 16.3969V22.4646C109.619 23.0591 109.259 23.4194 108.479 23.4194C107.789 23.4194 107.4 23.1442 107.339 22.6562V22.5711C106.95 23.1442 106.08 23.4407 104.76 23.4407H104.52C102.601 23.4407 101.431 22.8037 101.431 21.1708V20.7467C101.431 19.5167 102.121 18.9435 103.59 18.3916L106.439 17.2879C106.858 17.1389 107.039 16.9701 107.039 16.6508V16.3969C107.039 15.8025 106.709 15.6124 106.05 15.6124H105.18C104.49 15.6124 104.16 15.804 104.16 16.3969V16.7573C104.16 17.1176 103.83 17.3304 103.111 17.3304H102.781C101.971 17.3304 101.612 17.0765 101.612 16.4608V16.0579C101.612 14.7215 102.722 14.0632 105.21 14.0632H106.05C108.538 14.0632 109.618 14.7002 109.618 16.3969H109.619ZM107.041 18.4555C106.921 18.6045 106.741 18.7094 106.501 18.8158L104.672 19.5577C104.163 19.7706 104.012 20.0245 104.012 20.4487V21.107C104.012 21.6801 104.342 21.8915 105.002 21.8915H105.931C106.65 21.8915 107.041 21.6573 107.041 21.107V18.4555Z" fill="white"/>
</mask>
<g mask="url(#mask0_119_1680)">
<path d="M112.139 9.38354H29.3809V28.1507H112.139V9.38354Z" fill="url(#paint4_linear_119_1680)"/>
</g>
<path d="M18.0393 23.4407C17.2594 23.4407 16.8093 23.1655 16.4201 22.6349L12.1616 17.5433V22.381C12.1616 23.0591 11.7116 23.4422 10.8116 23.4422C9.91152 23.4422 9.3125 23.0606 9.3125 22.381V12.1126C9.3125 11.433 9.88263 11.0514 10.7523 11.0514C11.6219 11.0514 12.1616 11.433 12.1616 12.1126V17.034L16.3608 11.8785C16.75 11.3266 17.1712 11.0514 17.831 11.0514C18.9409 11.0514 19.5399 11.8146 18.9409 12.6432L15.1324 17.1404L19.1507 21.8291C19.8698 22.8052 19.0306 23.4422 18.0408 23.4422L18.0393 23.4407Z" fill="white"/>
<path d="M25.9255 11.9423V22.381C25.9255 23.0591 25.4162 23.4422 24.4553 23.4422C23.4945 23.4422 22.9563 23.0606 22.9563 22.381V14.2137L21.9361 15.4863C21.6959 15.7402 21.4557 15.8892 21.0665 15.8892C20.1376 15.8892 19.7772 15.1898 20.317 14.6166L22.8666 11.8162C23.2862 11.3707 23.7666 11.0104 24.6363 11.0104C25.5059 11.0104 25.9255 11.3707 25.9255 11.9439V11.9423Z" fill="white"/>
<defs>
<linearGradient id="paint0_linear_119_1680" x1="3.20898" y1="17.075" x2="31.0724" y2="17.075" gradientUnits="userSpaceOnUse">
<stop stop-color="#683886"/>
<stop offset="0.16" stop-color="#61357C"/>
<stop offset="0.43" stop-color="#4F2E63"/>
<stop offset="0.78" stop-color="#32233A"/>
<stop offset="0.99" stop-color="#1D1C1C"/>
</linearGradient>
<linearGradient id="paint1_linear_119_1680" x1="0.921875" y1="3.6914" x2="8.3062" y2="3.6914" gradientUnits="userSpaceOnUse">
<stop stop-color="#683886"/>
<stop offset="0.16" stop-color="#61357C"/>
<stop offset="0.43" stop-color="#4F2E63"/>
<stop offset="0.78" stop-color="#32233A"/>
<stop offset="0.99" stop-color="#1D1C1C"/>
</linearGradient>
<linearGradient id="paint2_linear_119_1680" x1="0" y1="17.3821" x2="3.38429" y2="17.3821" gradientUnits="userSpaceOnUse">
<stop stop-color="#683886"/>
<stop offset="0.16" stop-color="#61357C"/>
<stop offset="0.43" stop-color="#4F2E63"/>
<stop offset="0.78" stop-color="#32233A"/>
<stop offset="0.99" stop-color="#1D1C1C"/>
</linearGradient>
<linearGradient id="paint3_linear_119_1680" x1="28.6118" y1="26.7657" x2="0.152387" y2="26.7657" gradientUnits="userSpaceOnUse">
<stop stop-color="#683886"/>
<stop offset="0.16" stop-color="#61357C"/>
<stop offset="0.43" stop-color="#4F2E63"/>
<stop offset="0.78" stop-color="#32233A"/>
<stop offset="0.99" stop-color="#1D1C1C"/>
</linearGradient>
<linearGradient id="paint4_linear_119_1680" x1="70.7601" y1="9.05211" x2="70.7601" y2="28.0412" gradientUnits="userSpaceOnUse">
<stop stop-color="#683886"/>
<stop offset="0.16" stop-color="#61357C"/>
<stop offset="0.43" stop-color="#4F2E63"/>
<stop offset="0.78" stop-color="#32233A"/>
<stop offset="0.99" stop-color="#1D1C1C"/>
</linearGradient>
</defs>
</svg>
