<svg width="20" height="20" viewBox="0 0 20 20" fill="none" xmlns="http://www.w3.org/2000/svg">
<path fill-rule="evenodd" clip-rule="evenodd" d="M12.9993 1.66663C12.6457 1.66663 12.3066 1.8071 12.0565 2.05715C11.8065 2.3072 11.666 2.64634 11.666 2.99996V6.66663H7.99935C7.64573 6.66663 7.30659 6.8071 7.05654 7.05715C6.80649 7.3072 6.66601 7.64634 6.66601 7.99996V12.5H2.99935C2.64573 12.5 2.30659 12.6404 2.05654 12.8905C1.80649 13.1405 1.66602 13.4797 1.66602 13.8333V17C1.66602 17.3536 1.80649 17.6927 2.05654 17.9428C2.30659 18.1928 2.64573 18.3333 2.99935 18.3333H16.9993C17.353 18.3333 17.6921 18.1928 17.9422 17.9428C18.1922 17.6927 18.3327 17.3536 18.3327 17V2.99996C18.3327 2.64634 18.1922 2.3072 17.9422 2.05715C17.6921 1.8071 17.353 1.66663 16.9993 1.66663H12.9993ZM8.33268 8.33329H11.666V16.6666H8.33268V8.33329ZM16.666 16.6666H13.3327V3.33329H16.666V16.6666ZM6.66601 14.1666V16.6666H3.33268V14.1666H6.66601Z" fill="white"/>
</svg>
