<svg width="22" height="32" viewBox="0 0 22 32" fill="none" xmlns="http://www.w3.org/2000/svg">
<path fill-rule="evenodd" clip-rule="evenodd" d="M2.19089 0.292041C1.53827 0.618557 0.970435 1.1826 0.669899 1.80289L0.484497 2.18557V16V29.8144L0.716497 30.2548C1.06206 30.911 1.54215 31.3834 2.196 31.7105L2.77472 32H11H19.2252L19.8039 31.7105C20.4578 31.3834 20.9379 30.911 21.2834 30.2548L21.5154 29.8144V16V2.18557L21.2834 1.74515C20.9379 1.08899 20.4578 0.616578 19.8039 0.289485L19.2252 0H11H2.77472L2.19089 0.292041ZM2.99996 1.4165C2.58808 1.53353 2.20285 1.85196 1.98891 2.25221L1.80408 2.59794L1.78182 14.1237L1.75947 25.6495H11H20.2405L20.2181 14.1237L20.1958 2.59794L20.011 2.25221C19.7899 1.83852 19.4085 1.53344 18.9587 1.41064C18.5237 1.29179 3.41926 1.29732 2.99996 1.4165ZM7.86594 2.4485C7.34784 2.64404 7.19048 3.30986 7.58841 3.62285C7.79971 3.78911 7.89332 3.79381 11 3.79381C14.1066 3.79381 14.2002 3.78911 14.4115 3.62285C14.7128 3.3859 14.7149 2.91381 14.416 2.63291L14.2033 2.43299L11.0965 2.4174C9.38776 2.40882 7.93398 2.42285 7.86594 2.4485ZM10.6144 5.62887C10.3285 5.92594 10.0927 6.25996 10.0927 6.36817C10.0927 6.38384 10.501 6.3967 11 6.3967C11.4989 6.3967 11.9072 6.38384 11.9072 6.36817C11.9072 6.20569 11.1352 5.27835 11 5.27835C10.9735 5.27835 10.8 5.43604 10.6144 5.62887ZM7.88474 6.45583C7.76631 6.96511 7.7527 7.42268 7.85596 7.42268C7.8958 7.42268 8.1358 7.29781 8.38932 7.14515C8.64276 6.99249 8.96417 6.82045 9.10347 6.76272C9.24277 6.70507 9.34437 6.6165 9.32928 6.56602C9.29175 6.44058 8.63221 6.1294 8.2765 6.06928L7.98602 6.02021L7.88474 6.45583ZM13.4617 6.13509C13.0557 6.24445 12.6494 6.47192 12.6494 6.58985C12.6494 6.62862 12.77 6.70878 12.9175 6.76783C13.0649 6.82697 13.3811 6.99843 13.6201 7.14895C13.8592 7.29955 14.0911 7.42268 14.1355 7.42268C14.2464 7.42268 14.2371 6.98012 14.1153 6.456C14.0047 5.98062 14.0155 5.9859 13.4617 6.13509ZM9.78454 6.88775C9.11312 7.03365 8.43782 7.39975 7.82446 7.95051C7.24672 8.46936 7.25687 8.63588 7.84062 8.21649C9.83848 6.7812 12.1557 7.04858 13.0586 8.81847C13.283 9.25839 13.4742 10.0115 13.4742 10.4558C13.4742 10.8673 13.5897 11.134 13.7678 11.134C13.9716 11.134 14.0409 10.7889 13.9678 10.1372C13.7714 8.38656 12.6953 7.14285 11.1258 6.8527C10.5349 6.74351 10.4367 6.74606 9.78454 6.88775ZM12.3195 6.90911C12.3195 6.94416 12.4522 7.04429 12.6145 7.13163C13.0362 7.35868 13.7678 8.18021 14.0549 8.74895C14.3484 9.33039 14.5435 10.1071 14.5451 10.701L14.5464 11.134H15.0412H15.536V10.8214C15.536 9.48322 14.4546 7.86012 13.091 7.15159C12.5031 6.84619 12.3195 6.78845 12.3195 6.90911ZM9.60714 7.79555C8.94025 7.98227 8.25489 8.38012 7.65827 8.92676C7.28367 9.27002 7.12367 9.47621 7.12367 9.61559C7.12367 9.91555 7.29093 9.86128 7.91683 9.3581C8.22907 9.10713 8.75996 8.76437 9.09654 8.59637C9.65052 8.31983 9.77184 8.2908 10.3749 8.29064C11.6852 8.29014 12.3009 8.9167 12.5006 10.4536C12.5883 11.129 12.5907 11.134 12.828 11.134C12.9595 11.134 13.0869 11.0821 13.1112 11.0188C13.1929 10.8061 12.9784 9.62111 12.7798 9.1873C12.5453 8.67505 12.0389 8.16091 11.5224 7.91093C11.0409 7.67786 10.207 7.62755 9.60714 7.79555ZM6.17522 8.02557C5.99378 8.07357 5.83905 8.1153 5.83147 8.11835C5.77373 8.14153 6.08276 9.07274 6.20095 9.23192C6.41654 9.52223 6.524 9.52668 6.58528 9.24775C6.61489 9.11274 6.78528 8.79365 6.96392 8.53872C7.14248 8.28371 7.28862 8.03967 7.28862 7.99637C7.28862 7.89476 6.60161 7.91282 6.17522 8.02557ZM14.7113 7.9906C14.7113 8.03076 14.8568 8.28148 15.0346 8.54779C15.2123 8.81402 15.3838 9.13534 15.4155 9.26177C15.4818 9.52577 15.5868 9.51761 15.799 9.23192C15.9163 9.07381 16.2282 8.13583 16.1685 8.12033C15.3263 7.90136 14.7113 7.8466 14.7113 7.9906ZM9.63196 8.8052C9.4012 8.88775 9.02742 9.0739 8.80136 9.21897C8.2746 9.55703 6.95872 10.8896 6.95872 11.0852C6.95872 11.112 7.08813 11.134 7.24623 11.134C7.49654 11.134 7.62248 11.0453 8.22066 10.447C9.27848 9.38928 10.1237 9.04107 10.8734 9.35431C11.2337 9.50491 11.5897 10.1443 11.3132 10.1443C11.2586 10.1443 11.0978 10.0317 10.9557 9.89394C10.5895 9.53905 10.2167 9.49814 9.66223 9.752C9.24516 9.94293 8.11336 10.8995 8.11336 11.061C8.11336 11.1012 8.26578 11.134 8.452 11.134C8.71056 11.134 8.82718 11.0875 8.94528 10.9374C9.13819 10.6922 9.81076 10.2646 10.1151 10.1936C10.4362 10.1187 10.7525 10.4402 10.7525 10.8416C10.7525 11.1208 10.7656 11.134 11.0412 11.134C11.324 11.134 11.3299 11.1272 11.3299 10.7973C11.3299 10.3675 11.5249 10.396 11.5616 10.8311C11.5858 11.1164 11.6038 11.134 11.8709 11.134C12.1506 11.134 12.1546 11.129 12.1546 10.776C12.1546 10.0294 11.7967 9.26689 11.2801 8.91299C10.9036 8.65501 10.1836 8.60792 9.63196 8.8052ZM6.72029 10.0279C6.52829 10.272 6.49984 10.4358 6.63493 10.5193C6.76582 10.6002 7.13439 10.2178 7.10652 10.0301C7.06973 9.78351 6.9132 9.7826 6.72029 10.0279ZM5.79378 10.3717C5.58751 10.5086 5.06182 11.0328 5.06182 11.1015C5.06182 11.1194 5.32161 11.134 5.63914 11.134H6.21646V10.8109C6.21646 10.6332 6.23897 10.429 6.26652 10.3573C6.33514 10.1786 6.07254 10.1866 5.79378 10.3717ZM15.7334 10.3573C15.761 10.429 15.7835 10.6332 15.7835 10.8109V11.134H16.3608H16.9381V11.413C16.9381 11.6204 16.9794 11.7029 17.0989 11.7342C17.1873 11.7573 17.3356 11.9008 17.4285 12.053C17.5907 12.3191 17.5973 12.4517 17.5976 15.4474C17.5978 18.0524 17.5776 18.604 17.4747 18.8032C17.2038 19.3271 17.5715 19.299 11 19.299C4.42841 19.299 4.79617 19.3271 4.52524 18.8032C4.42231 18.604 4.40211 18.0524 4.40235 15.4474C4.4026 12.4743 4.41027 12.3174 4.56771 12.0591C4.6586 11.9101 4.78833 11.767 4.85613 11.7409C4.95188 11.7042 4.97934 11.5395 4.97934 11.0015C4.97934 10.2138 4.95617 10.1937 4.37811 10.4831C3.90198 10.7215 3.52136 11.0976 3.26066 11.5876L3.0412 12V15.4639V18.9278L3.26091 19.3441C3.53959 19.8721 3.92912 20.2614 4.40202 20.4846C4.77019 20.6584 4.8233 20.6598 11 20.6598H17.2268L17.6024 20.4746C18.0913 20.2337 18.4664 19.8607 18.739 19.3441L18.9587 18.9278V15.4639V12L18.7642 11.6289C18.5 11.1245 18.1279 10.746 17.6625 10.5081C17.08 10.2104 16.9381 10.236 16.9381 10.6392C16.9381 11.0167 16.8364 11.0598 16.6428 10.7644C16.3897 10.3781 15.6069 10.0276 15.7334 10.3573ZM9.57291 10.7835C9.40854 10.9082 9.27262 11.0361 9.27097 11.0676C9.26932 11.0992 9.5278 11.1226 9.84532 11.1196C10.3818 11.1145 10.4226 11.1014 10.4226 10.9344C10.4226 10.511 10.0251 10.4404 9.57291 10.7835ZM6.64507 12.1089C6.54545 12.4183 6.46388 12.6967 6.46388 12.7275C6.46388 12.8396 6.80029 12.78 6.84639 12.6598C6.87254 12.5918 6.96021 12.5361 7.0412 12.5361C7.12219 12.5361 7.20986 12.5918 7.236 12.6598C7.26206 12.7278 7.37481 12.7835 7.48656 12.7835H7.68969L7.48169 12.1649C7.29118 11.5983 7.25497 11.5464 7.04994 11.5464C6.84623 11.5464 6.81002 11.5966 6.64507 12.1089ZM7.96466 12.1089C7.74347 12.7956 7.74363 12.7835 7.95617 12.7835C8.05736 12.7835 8.14602 12.7176 8.17043 12.6242C8.21571 12.4511 8.43312 12.4798 8.55048 12.6742C8.61497 12.7811 8.9381 12.8313 8.9381 12.7344C8.9381 12.7075 8.86025 12.4291 8.76516 12.1159C8.60672 11.5945 8.57332 11.5464 8.36895 11.5464C8.16598 11.5464 8.12953 11.5971 7.96466 12.1089ZM9.18553 12.1649V12.7835H9.56037C10.0219 12.7835 10.3402 12.5157 10.3402 12.1274C10.3402 11.7428 10.0893 11.5464 9.5979 11.5464H9.18553V12.1649ZM10.5051 12.1649C10.5051 12.7697 10.5097 12.7835 10.7113 12.7835C10.8854 12.7835 10.9175 12.745 10.9175 12.5361C10.9175 12.332 10.9511 12.2887 11.1094 12.2887C11.2757 12.2887 11.2965 12.3216 11.265 12.5361C11.2325 12.7571 11.2516 12.7835 11.4442 12.7835C11.6574 12.7835 11.6598 12.7769 11.6598 12.1649C11.6598 11.5528 11.6575 11.5464 11.4439 11.5464C11.2583 11.5464 11.2336 11.5752 11.2676 11.7526C11.3006 11.9254 11.2755 11.9588 11.1122 11.9588C10.9595 11.9588 10.9175 11.9143 10.9175 11.7526C10.9175 11.5876 10.8762 11.5464 10.7113 11.5464C10.5097 11.5464 10.5051 11.5602 10.5051 12.1649ZM12.0555 12.0207C11.9784 12.2852 11.8909 12.565 11.8612 12.6426C11.819 12.7522 11.8526 12.7835 12.0124 12.7835C12.1422 12.7835 12.2324 12.7278 12.2574 12.6323C12.2791 12.5491 12.3572 12.4811 12.4307 12.4811C12.5044 12.4811 12.5862 12.5491 12.6126 12.6323C12.6423 12.7258 12.7393 12.7835 12.8668 12.7835C13.0934 12.7835 13.0965 12.8295 12.8156 12C12.695 11.6435 12.6434 11.5844 12.4359 11.5637C12.2089 11.5411 12.1883 11.5659 12.0555 12.0207ZM13.3525 12.0575C13.2736 12.3386 13.1906 12.617 13.1679 12.676C13.1408 12.7466 13.1972 12.7835 13.332 12.7835C13.4618 12.7835 13.552 12.7278 13.577 12.6323C13.5987 12.5491 13.6767 12.4811 13.7503 12.4811C13.824 12.4811 13.9058 12.5491 13.9322 12.6323C13.9621 12.7266 14.0589 12.7835 14.1896 12.7835C14.3566 12.7835 14.3871 12.7542 14.3401 12.6392C14.3077 12.5598 14.2075 12.2814 14.1175 12.0206C13.9712 11.5965 13.9297 11.5464 13.7249 11.5464C13.5146 11.5464 13.4842 11.5882 13.3525 12.0575ZM14.5464 12.1649C14.5464 12.7285 14.561 12.7835 14.7113 12.7835C14.8323 12.7835 14.8762 12.7285 14.8762 12.5773C14.8762 12.3173 15.1021 12.2995 15.1385 12.5567C15.1555 12.676 15.2312 12.7517 15.3505 12.7687C15.5575 12.798 15.5754 12.7329 15.4505 12.4043C15.3915 12.2489 15.3915 12.1528 15.4505 12.0938C15.6985 11.8458 15.4038 11.5464 14.9116 11.5464H14.5464V12.1649ZM9.51542 12.1649C9.51542 12.5655 9.52771 12.5795 9.76829 12.4507C9.96598 12.3449 9.98652 11.9165 9.79732 11.8439C9.55344 11.7503 9.51542 11.7935 9.51542 12.1649ZM14.8762 11.9107C14.8762 11.9824 14.935 12.0412 15.0068 12.0412C15.1525 12.0412 15.1271 11.8637 14.9742 11.8127C14.9203 11.7947 14.8762 11.8388 14.8762 11.9107ZM12.3722 12.0825C12.3461 12.1505 12.3607 12.2062 12.4046 12.2062C12.4485 12.2062 12.4845 12.1505 12.4845 12.0825C12.4845 12.0144 12.4699 11.9588 12.4521 11.9588C12.4343 11.9588 12.3983 12.0144 12.3722 12.0825ZM13.6918 12.0825C13.6657 12.1505 13.6803 12.2062 13.7242 12.2062C13.7681 12.2062 13.8041 12.1505 13.8041 12.0825C13.8041 12.0144 13.7895 11.9588 13.7717 11.9588C13.7539 11.9588 13.7179 12.0144 13.6918 12.0825ZM6.95872 12.1237C6.95872 12.1691 6.99584 12.2062 7.0412 12.2062C7.08656 12.2062 7.12367 12.1691 7.12367 12.1237C7.12367 12.0784 7.08656 12.0412 7.0412 12.0412C6.99584 12.0412 6.95872 12.0784 6.95872 12.1237ZM8.27831 12.1237C8.27831 12.1691 8.31765 12.2062 8.36565 12.2062C8.41365 12.2062 8.43006 12.1691 8.40202 12.1237C8.37398 12.0784 8.33472 12.0412 8.31468 12.0412C8.29464 12.0412 8.27831 12.0784 8.27831 12.1237ZM6.08095 13.0303C5.66248 13.1991 5.63914 13.3301 5.63914 15.5091C5.63914 17.5071 5.64202 17.5409 5.8247 17.7115C6.10643 17.9744 6.3819 18.0082 6.69068 17.8175C6.95353 17.6551 6.95872 17.6402 6.95872 17.0489V16.4459L7.49151 16.3546C8.61184 16.1627 9.19237 15.3332 8.98388 14.222C8.90165 13.7838 8.26809 13.172 7.76524 13.0454C7.32293 12.9339 6.34132 12.9251 6.08095 13.0303ZM10.6185 13.1062C10.4517 13.208 10.3158 13.3896 10.233 13.6214C10.1628 13.8183 10.0254 14.1835 9.92788 14.433C9.83031 14.6825 9.71889 14.9794 9.68021 15.0928C9.64161 15.2062 9.45885 15.6886 9.27402 16.1647C8.82784 17.3146 8.82932 17.6289 9.28211 17.863C9.68021 18.0688 10.1959 17.7886 10.3012 17.3092C10.353 17.0732 10.356 17.0722 10.988 17.0722H11.6228L11.7856 17.4227C12.0064 17.898 12.3196 18.0492 12.7038 17.866C13.0075 17.7212 13.1781 17.3994 13.0976 17.1231C13.0513 16.9645 12.9426 16.6722 12.3575 15.134C11.6516 13.2783 11.6466 13.2679 11.3833 13.1074C11.0587 12.9094 10.9416 12.9093 10.6185 13.1062ZM13.1031 13.0417C12.5668 13.3414 12.6016 13.7001 13.266 14.7236L13.8 15.5464L13.8021 16.3795C13.8044 17.3599 13.8991 17.6915 14.2247 17.86C14.5233 18.0144 14.8273 17.9438 15.0425 17.6703C15.1834 17.4912 15.2061 17.3348 15.2063 16.5456L15.2065 15.6289L15.7835 14.7629C16.3835 13.8623 16.4574 13.6181 16.2287 13.2915C15.8748 12.7862 15.3534 12.9128 14.9018 13.6139C14.729 13.8821 14.5636 14.1019 14.5343 14.1024C14.505 14.1028 14.3654 13.9229 14.2241 13.7027C14.0828 13.4824 13.9026 13.244 13.8238 13.173C13.6229 12.9919 13.2979 12.9328 13.1031 13.0417ZM6.95872 14.6804C6.95872 14.9902 6.97349 15.0103 7.20029 15.0103C7.40879 15.0103 7.70099 14.8353 7.70099 14.7104C7.70099 14.5111 7.49728 14.3505 7.2445 14.3505C6.96606 14.3505 6.95872 14.359 6.95872 14.6804ZM10.9587 15.5876C10.9307 15.633 10.9471 15.6701 10.9951 15.6701C11.0431 15.6701 11.0824 15.633 11.0824 15.5876C11.0824 15.5423 11.0661 15.5052 11.0461 15.5052C11.026 15.5052 10.9868 15.5423 10.9587 15.5876ZM1.77926 28.2268C1.81077 29.2244 1.84343 29.4543 1.99501 29.7478C2.20771 30.1594 2.5885 30.4657 3.0412 30.5894C3.5033 30.7156 18.4966 30.7156 18.9587 30.5894C19.4114 30.4657 19.7922 30.1594 20.0049 29.7478C20.1565 29.4543 20.1892 29.2244 20.2207 28.2268L20.2579 27.0515H11H1.74206L1.77926 28.2268ZM10.1071 28.397C9.84557 28.6755 9.86371 29.1335 10.1451 29.3548C10.3224 29.4943 10.4799 29.5258 11 29.5258C11.7992 29.5258 12.0721 29.36 12.0721 28.8744C12.0721 28.3532 11.8338 28.2062 10.9884 28.2062C10.3613 28.2062 10.2673 28.2266 10.1071 28.397Z" fill="#1ABC9C"/>
</svg>
