<svg width="25" height="32" viewBox="0 0 25 32" fill="none" xmlns="http://www.w3.org/2000/svg">
<path fill-rule="evenodd" clip-rule="evenodd" d="M11.0536 0.0350509C9.8709 0.180331 8.62551 0.484082 7.62024 0.872351C6.79 1.19304 6.68048 1.27862 6.68048 1.60694C6.68048 1.88669 6.81832 2.08554 7.05287 2.14443C7.14795 2.16831 7.47196 2.07967 7.96787 1.89413C9.5619 1.29788 10.883 1.05126 12.4842 1.0512C14.1756 1.05101 15.4391 1.28469 16.9936 1.885C18.6827 2.53739 20.1217 3.50684 21.532 4.94252C22.1573 5.57915 22.2859 5.68198 22.4569 5.68198C22.7307 5.68198 22.9623 5.44237 22.9623 5.15906C22.9623 4.881 22.6938 4.53912 21.8267 3.71282C19.7578 1.74147 17.0802 0.452263 14.2965 0.0873743C13.6454 0.00198144 11.5923 -0.031088 11.0536 0.0350509ZM4.98387 2.23339C3.78787 3.00986 1.86459 4.87863 1.73657 5.38861C1.64155 5.76725 1.99481 6.12414 2.37126 6.02962C2.46241 6.00674 2.62469 5.88653 2.7319 5.7625C3.73961 4.59651 4.37887 3.99501 5.32007 3.32724C5.92726 2.8964 6.02128 2.79007 6.02128 2.53432C6.02128 2.29434 5.95908 2.18463 5.76673 2.08517C5.50292 1.9487 5.38915 1.97027 4.98387 2.23339ZM10.7841 2.08804C8.61563 2.41855 6.54383 3.38807 4.85603 4.86212C3.5507 6.00211 2.43947 7.59213 1.7697 9.2783C1.47182 10.0281 1.55065 10.3966 2.02513 10.4726C2.35807 10.5258 2.52217 10.3366 2.84555 9.52648C3.33378 8.30341 4.00861 7.27263 4.98912 6.25235C6.64341 4.53099 8.79486 3.43501 11.1404 3.11882C11.8116 3.0283 13.1675 3.02799 13.8424 3.11813C15.5949 3.35231 17.3623 4.08402 18.8052 5.17288C19.3058 5.55064 20.2034 6.42314 20.6473 6.9635C21.3514 7.82056 22.0128 8.99937 22.3888 10.0671C22.64 10.7803 22.9876 11.4626 23.1622 11.5848C23.3554 11.7201 23.6015 11.7081 23.7978 11.5537C24.0399 11.3633 24.0184 11.0605 23.7197 10.4559C23.5862 10.1854 23.428 9.80941 23.3681 9.62031C23.1873 9.04938 22.6186 7.90351 22.1959 7.25863C20.4712 4.62739 17.8671 2.85439 14.7352 2.17919C13.9219 2.00384 11.6765 1.95201 10.7841 2.08804ZM10.9286 4.09134C8.16504 4.55831 5.71059 6.24523 4.30823 8.6416C3.71455 9.656 3.37004 10.5735 3.13486 11.7667C2.95639 12.6721 2.94288 14.2322 3.10592 15.1122C3.3274 16.3076 4.08444 18.4709 4.37256 18.7316C4.57041 18.9107 4.91186 18.9189 5.08202 18.7488C5.30788 18.5229 5.296 18.3681 4.994 17.6047C4.59817 16.6039 4.35737 15.8468 4.19746 15.1005C4.00673 14.2103 4.00748 12.7938 4.19915 11.8903C4.56779 10.1523 5.31632 8.76182 6.55095 7.52162C9.64235 4.41628 14.5019 4.20017 17.9223 7.01595C18.2592 7.29326 18.3985 7.36984 18.566 7.36984C18.8548 7.36984 19.0865 7.13773 19.0865 6.84823C19.0865 6.60593 19.012 6.50753 18.5239 6.10532C17.2433 5.0501 15.5753 4.32001 13.8547 4.06164C13.2457 3.97019 11.5433 3.9875 10.9286 4.09134ZM12.1403 6.11289C12.0289 6.20309 11.9941 6.29399 11.9941 6.49465C11.9941 6.8396 12.1574 6.97425 12.6337 7.02214C13.9036 7.14973 14.5929 7.32233 15.3357 7.69884C16.954 8.51908 18.037 9.78691 18.7124 11.652C19.1084 12.7454 19.7866 13.9508 20.5994 15.0059C21.1263 15.6898 22.988 17.6094 23.2058 17.6932C23.3958 17.7663 23.7529 17.6549 23.838 17.4961C23.8721 17.4323 23.9 17.291 23.9 17.182C23.9 17.0108 23.765 16.8445 22.9063 15.9586C21.1461 14.1426 20.2453 12.7951 19.6416 11.075C18.8758 8.89291 17.1791 7.17317 15.0378 6.4087C13.9478 6.01962 12.445 5.86615 12.1403 6.11289ZM9.67029 6.51535C7.31605 7.47023 5.60788 9.56105 5.10465 12.1036C4.95687 12.8505 4.95949 14.2173 5.11021 14.9339C5.40771 16.349 6.1975 18.293 7.20459 20.0891C7.70694 20.985 8.62389 22.4126 8.8283 22.617C9.01328 22.8019 9.39361 22.795 9.57365 22.6034C9.79026 22.3727 9.75337 22.0812 9.45331 21.6528C8.29213 19.9952 7.17858 17.8477 6.56896 16.0904C6.08467 14.6944 5.95533 13.8353 6.07792 12.8285C6.34966 10.5967 7.66294 8.70455 9.61578 7.73135C9.85646 7.61139 10.194 7.46292 10.3659 7.40134C10.76 7.26019 10.8973 7.10772 10.8973 6.81122C10.8973 6.51072 10.6928 6.30668 10.3932 6.30818C10.275 6.30874 9.94973 6.40195 9.67029 6.51535ZM19.5686 7.93321C19.2725 8.16613 19.2866 8.37817 19.6363 8.95248C20.0604 9.649 20.2135 9.96826 20.5258 10.8081C20.6729 11.2035 20.8771 11.6957 20.9797 11.902C21.3924 12.7325 22.208 13.8871 22.9113 14.637C23.2138 14.9596 23.2743 14.9964 23.5008 14.9964C23.8265 14.9964 24.0251 14.8015 24.0251 14.4817C24.0251 14.3007 23.9662 14.1908 23.7257 13.9231C22.6148 12.6863 21.9921 11.6897 21.5252 10.4017C21.0904 9.20197 20.3673 7.92608 20.0784 7.84875C19.8368 7.78405 19.7372 7.80062 19.5686 7.93321ZM11.927 7.99578C9.56446 8.24571 7.65412 9.94413 7.10632 12.2818C6.93828 12.999 6.9536 14.0984 7.14189 14.8402C7.59311 16.6171 8.93145 19.3312 10.3274 21.2999C10.8659 22.0594 11.6016 22.9902 12.227 23.7029C12.9329 24.5074 14.7859 26.3772 14.9731 26.474C15.3731 26.6809 15.7733 26.4564 15.7733 26.0252C15.7733 25.8106 15.6877 25.7088 14.4427 24.4439C11.75 21.7078 10.1712 19.4805 8.94245 16.6843C8.26994 15.1538 7.97056 13.9759 8.04983 13.1718C8.42616 9.3525 12.9465 7.65959 15.617 10.3378C16.2127 10.9351 16.4547 11.3283 16.7813 12.2289C17.1541 13.2568 17.6064 14.1444 17.8031 14.234C18.0065 14.3267 18.1012 14.3278 18.2953 14.2394C18.4574 14.1655 18.5864 13.9451 18.5864 13.742C18.5864 13.6742 18.4631 13.3731 18.3124 13.0729C18.1616 12.7728 17.9493 12.274 17.8404 11.9646C17.3039 10.4389 16.5554 9.47622 15.3255 8.73019C14.3768 8.15469 13.0781 7.87407 11.927 7.99578ZM11.6195 10.0658C11.0936 10.189 10.4541 10.5592 10.0291 10.9865C9.32153 11.6977 8.99834 12.4834 8.99684 13.4961C8.99578 14.1995 9.18607 14.9292 9.4118 15.0873C9.60515 15.2227 9.93397 15.2096 10.0831 15.0605C10.2717 14.8718 10.296 14.6618 10.1711 14.2962C10.0967 14.0781 10.0596 13.7942 10.0626 13.4649C10.0688 12.7755 10.2388 12.3529 10.7144 11.8445C11.6708 10.8221 13.1183 10.7601 14.1841 11.6959C14.4808 11.9564 14.6663 12.2907 14.995 13.157C15.5321 14.5727 16.2998 15.9418 17.3058 17.2782C18.4457 18.7924 20.5239 20.8573 22.5154 22.4544C22.9338 22.79 23.0804 22.8731 23.254 22.8731C23.546 22.8731 23.6865 22.7875 23.7652 22.5618C23.8756 22.2451 23.7571 22.0568 23.1327 21.5569C21.6204 20.3459 19.3648 18.1483 18.4524 16.9969C17.3035 15.5471 16.4243 14.0023 15.895 12.5036C15.7812 12.1812 15.5856 11.7593 15.4603 11.5659C15.007 10.8659 14.2215 10.2982 13.4164 10.0885C13.022 9.98576 12.0152 9.97301 11.6195 10.0658ZM1.27578 11.4801C0.903268 11.7856 0.869886 14.1391 1.21402 15.8365C1.66649 18.0685 3.29296 21.6053 5.09108 24.2676C6.40236 26.209 8.49498 28.6923 8.89338 28.7798C9.22151 28.8519 9.51657 28.6116 9.52001 28.2697C9.5222 28.0519 9.43418 27.9283 8.74841 27.1865C5.5665 23.7447 2.77685 18.6372 2.17579 15.1527C2.05551 14.4557 2.0245 13.2165 2.10421 12.2956C2.15603 11.6969 2.15459 11.6867 1.99762 11.5298C1.80727 11.3394 1.4752 11.3165 1.27578 11.4801ZM11.7382 12.178C11.3482 12.4017 11.1053 12.7419 11.0095 13.1986C10.9474 13.4947 10.9529 13.6079 11.0454 13.9439C11.4329 15.3511 12.5707 17.57 13.7298 19.1793C15.0649 21.0327 17.6046 23.6373 19.8054 25.4101C21.1723 26.5111 21.6128 26.8114 21.861 26.8114C22.2658 26.8114 22.5232 26.4087 22.3386 26.0639C22.3051 26.0012 21.9014 25.6661 21.4418 25.3193C19.2601 23.6738 16.75 21.275 15.2591 19.4109C14.0503 17.8995 12.7092 15.5536 12.2099 14.0771L11.9941 13.439L12.1239 13.2644C12.2711 13.0665 12.6097 12.9995 12.7837 13.1339C12.8414 13.1784 12.9916 13.4961 13.1176 13.8399C13.8939 15.9587 15.208 18.0556 16.983 20.0079C17.7028 20.7996 17.8655 20.8952 18.1992 20.7226C18.4099 20.6137 18.4614 20.5132 18.4614 20.2105C18.4614 20.0302 18.389 19.9193 18.0056 19.5123C16.2241 17.6214 14.8903 15.5398 14.1139 13.4389C13.6988 12.3158 13.3373 11.9952 12.4873 11.9964C12.1241 11.9969 12.0027 12.0263 11.7382 12.178ZM18.7399 15.0874C18.4776 15.3496 18.5282 15.5929 18.9633 16.161C19.7624 17.2043 21.3201 18.8012 22.7435 20.0362C23.2582 20.4827 23.35 20.5238 23.6287 20.4318C23.8742 20.3507 23.9625 20.2137 23.9625 19.9135C23.9625 19.6754 24.0245 19.7432 22.7435 18.5781C21.8353 17.752 20.5748 16.4454 20.0617 15.798C19.424 14.9935 19.3584 14.9339 19.111 14.9339C18.9632 14.9339 18.844 14.9832 18.7399 15.0874ZM10.1131 16.1501C9.88371 16.3794 9.91835 16.6041 10.3005 17.3661C11.0921 18.9445 12.0637 20.4088 13.2692 21.84C14.9619 23.8498 17.4891 26.2139 19.7371 27.8906C20.4174 28.398 20.5057 28.446 20.7005 28.4144C21.0178 28.3629 21.1495 28.214 21.1495 27.9066C21.1495 27.6062 21.1351 27.5902 20.3055 26.965C17.5429 24.8831 14.5324 21.903 12.9824 19.716C12.3891 18.8787 11.8011 17.9198 11.3293 17.0198C11.1153 16.6118 10.8835 16.2147 10.8142 16.1373C10.6396 15.9426 10.3146 15.9486 10.1131 16.1501ZM5.30238 19.567C4.86879 19.8131 4.90936 20.0846 5.54649 21.2005C6.94597 23.6518 8.37027 25.5127 10.5535 27.7425C12.3377 29.5647 14.5212 31.5323 14.933 31.6888C15.3659 31.8534 15.7889 31.3837 15.5742 30.977C15.529 30.8913 15.1122 30.5004 14.6481 30.1084C11.0293 27.0518 8.29388 23.8869 6.50344 20.6849C6.24401 20.2209 5.98008 19.7778 5.91707 19.7003C5.78129 19.5333 5.47773 19.4675 5.30238 19.567ZM1.14682 20.5585C0.843256 20.8621 0.938025 21.1421 1.9713 22.9953C3.51025 25.7553 5.16291 27.943 7.68544 30.5594C8.17098 31.0631 8.46204 31.3167 8.58525 31.3438C8.96521 31.4273 9.3241 31.0733 9.23208 30.7059C9.20582 30.601 8.84768 30.1804 8.33808 29.6558C7.87042 29.1744 7.27385 28.5415 7.01236 28.2492C5.27781 26.3109 3.47481 23.6606 2.33451 21.3728C2.15453 21.0118 1.94911 20.6531 1.87797 20.5757C1.709 20.3921 1.32242 20.3829 1.14682 20.5585ZM19.173 21.2122C18.9207 21.3223 18.8068 21.6164 18.9163 21.8753C19.0292 22.1423 20.612 23.5404 21.9795 24.5809C22.4335 24.9264 22.5692 24.9985 22.7657 24.9985C23.0725 24.9985 23.2749 24.7967 23.2749 24.4907C23.2749 24.2229 23.2248 24.1593 22.7123 23.7773C22.1257 23.3402 21.0322 22.4316 20.2888 21.7635C19.9349 21.4455 19.6203 21.1852 19.5898 21.1852C19.5593 21.1852 19.4969 21.1722 19.4511 21.1562C19.4053 21.1403 19.2802 21.1655 19.173 21.2122ZM10.1471 23.3291C9.94341 23.4321 9.81908 23.6961 9.87302 23.911C9.89634 24.0038 10.17 24.3779 10.4812 24.7423C11.2224 25.6102 13.5942 27.983 14.5898 28.8525C15.4987 29.6463 16.8675 30.7582 17.0663 30.8644C17.5213 31.1072 17.9888 30.6573 17.7981 30.1603C17.7771 30.1055 17.5168 29.8688 17.2198 29.6343C15.5098 28.2839 13.6297 26.5581 12.2536 25.0757C11.7196 24.5003 11.1685 23.8903 11.029 23.7201C10.6548 23.2634 10.4535 23.1741 10.1471 23.3291ZM2.10264 25.8116C1.74863 25.9543 1.74501 26.375 2.09333 26.893C2.74984 27.8691 4.31805 29.8313 4.49646 29.8997C4.84209 30.0324 5.23361 29.7796 5.23361 29.4238C5.23361 29.1858 5.24762 29.207 4.38944 28.1469C4.05918 27.739 3.54126 27.0583 3.23851 26.6341C2.62463 25.7742 2.47122 25.6631 2.10264 25.8116ZM16.4093 27.0186C16.2775 27.159 16.2321 27.4437 16.3095 27.6453C16.3519 27.756 17.3356 28.5784 18.299 29.3087C18.9278 29.7852 18.9981 29.8225 19.2055 29.7893C19.4895 29.7438 19.6491 29.5513 19.6491 29.2542C19.6491 28.9881 19.5789 28.9114 18.7985 28.3252C18.5196 28.1158 17.9995 27.7036 17.6426 27.4092C17.0947 26.9574 16.9586 26.8739 16.7694 26.8739C16.6159 26.8739 16.5024 26.9196 16.4093 27.0186ZM10.0955 29.3941C10.0078 29.4875 9.9596 29.6188 9.9596 29.7645C9.9596 29.9671 10.0186 30.0472 10.5379 30.5493C10.8559 30.8568 11.3411 31.309 11.616 31.5542C12.0667 31.9561 12.1417 32 12.3772 32C12.5852 32 12.6651 31.9663 12.7681 31.8353C12.8394 31.7447 12.8977 31.5884 12.8977 31.4878C12.8977 31.2742 12.755 31.1188 11.5375 30.0066C10.7812 29.3157 10.6877 29.2494 10.47 29.2494C10.3015 29.2494 10.1915 29.2919 10.0955 29.3941Z" fill="#F39C12"/>
</svg>
