<svg width="21" height="32" viewBox="0 0 21 32" fill="none" xmlns="http://www.w3.org/2000/svg">
<path fill-rule="evenodd" clip-rule="evenodd" d="M0.762597 0.126278C0.630743 0.20791 0.544996 0.325732 0.501352 0.485433C0.417451 0.792272 0.411849 31.1084 0.495689 31.4757C0.582668 31.857 0.91501 32.0709 1.27708 31.9786C1.3712 31.9546 1.64057 31.7186 1.90804 31.4257C2.16473 31.1446 2.5148 30.7634 2.68599 30.5788L2.99734 30.2429L3.70166 31.0245C4.84618 32.2945 4.91081 32.2957 6.00769 31.0681C6.40799 30.6201 6.75399 30.2613 6.77665 30.2708C6.79936 30.2803 7.1546 30.6585 7.56617 31.1113C8.64008 32.2926 8.6684 32.2925 9.7388 31.1089C10.1471 30.6575 10.5006 30.2806 10.5243 30.2715C10.548 30.2624 10.8917 30.6177 11.2882 31.061C12.3872 32.2901 12.4238 32.2906 13.5112 31.0908C13.9203 30.6394 14.2735 30.2671 14.2959 30.2634C14.3184 30.2598 14.6595 30.6154 15.054 31.0538C16.166 32.2895 16.2285 32.2899 17.3241 31.0697C17.7255 30.6226 18.0718 30.2594 18.0935 30.2625C18.1153 30.2656 18.4378 30.6146 18.8102 31.038C19.1826 31.4614 19.5787 31.8546 19.6903 31.9118C19.9427 32.041 20.1915 31.9937 20.4062 31.7757L20.5646 31.6149V16.0055V0.396176L20.4388 0.233787C20.2806 0.0295823 19.9381 -0.045174 19.7079 0.0742111C19.6164 0.121653 19.2145 0.519936 18.8148 0.959223C18.262 1.5669 18.0695 1.74204 18.0095 1.69153C17.9662 1.65503 17.6321 1.28994 17.267 0.880217C16.9019 0.470494 16.5236 0.101776 16.4263 0.060835C16.0763 -0.0863649 15.8625 0.0522717 15.0585 0.947722L14.323 1.76685L13.9228 1.33869C12.5786 -0.0993035 12.6544 -0.0389234 12.2821 0.03202C12.1143 0.0639602 11.9281 0.2341 11.3179 0.912907C10.902 1.37563 10.5469 1.74723 10.5289 1.73866C10.5108 1.73016 10.1557 1.35138 9.73972 0.896968C8.72663 -0.209563 8.60629 -0.23244 7.88694 0.544251C7.66848 0.780146 7.32438 1.15149 7.12229 1.36951L6.75486 1.76592L6.25976 1.21324C4.93273 -0.268193 4.86877 -0.286569 4.07248 0.585567C3.81579 0.866653 3.46603 1.24743 3.29515 1.43176L2.98453 1.76685L2.25571 0.963724C1.85485 0.521936 1.46834 0.12634 1.39675 0.084587C1.20673 -0.0262974 0.985492 -0.0117337 0.762597 0.126278ZM5.64444 2.50467C6.44978 3.4003 6.6198 3.51 6.97141 3.3608C7.09206 3.30961 7.46952 2.95214 7.8822 2.49829C8.26982 2.07194 8.60407 1.71541 8.62506 1.70591C8.64599 1.69641 9.01471 2.06694 9.44437 2.52942C10.306 3.45662 10.4431 3.53844 10.7995 3.33799C10.9118 3.27492 11.3164 2.87763 11.6989 2.45522C12.0813 2.03275 12.414 1.69522 12.4383 1.70516C12.4626 1.71504 12.8055 2.07976 13.2004 2.5156C14.2841 3.71164 14.3388 3.71127 15.4248 2.50173C15.8246 2.05632 16.1701 1.69191 16.1926 1.69191C16.2151 1.69191 16.5493 2.046 16.9353 2.47879C17.3213 2.91158 17.7175 3.3078 17.8157 3.35936C18.1373 3.52831 18.3545 3.42906 18.8359 2.89301L19.2691 2.41072L19.2705 15.9905L19.2719 29.5703L18.7946 29.0697C18.0842 28.3247 17.9903 28.3468 16.961 29.5017C16.5602 29.9514 16.2162 30.3193 16.1966 30.3193C16.1769 30.3193 15.8452 29.966 15.4594 29.5343C14.3373 28.2785 14.3087 28.2775 13.2317 29.4623C12.8189 29.9165 12.4618 30.2961 12.4383 30.3059C12.4147 30.3157 12.0694 29.959 11.6707 29.5132C11.2722 29.0675 10.8684 28.6701 10.7733 28.6301C10.4806 28.507 10.2607 28.6076 9.83889 29.0578C9.62363 29.2875 9.26728 29.6683 9.04703 29.9038L8.64667 30.3323L7.94763 29.5601C6.78902 28.2803 6.73953 28.2792 5.64124 29.5075C5.23983 29.9564 4.89413 30.3157 4.87302 30.3059C4.8519 30.2961 4.49568 29.9176 4.08134 29.4648C3.06203 28.3508 2.966 28.3328 2.23705 29.1197L1.79157 29.6005L1.79213 16.0056L1.79268 2.41072L2.22591 2.89301C2.70888 3.43074 2.92421 3.52844 3.24959 3.35755C3.34968 3.30498 3.74728 2.90876 4.13305 2.47698C4.51882 2.04519 4.85227 1.69191 4.87406 1.69191C4.89579 1.69191 5.24248 2.05769 5.64444 2.50467ZM8.33876 6.69108C7.99017 6.83409 7.83117 7.37383 8.04594 7.6851C8.21497 7.93012 8.49561 8.00494 9.24622 8.00494C9.88844 8.00494 9.95449 8.01663 10.2177 8.17683L10.5001 8.34872L9.41673 8.37997C8.30841 8.41198 8.23578 8.42823 8.02445 8.6925C7.98321 8.74407 7.94856 8.90796 7.94751 9.05672C7.94591 9.2738 7.98106 9.36324 8.12547 9.50988L8.3054 9.69258H9.3617C10.4847 9.69258 10.5408 9.71115 10.1995 9.97005C10.0518 10.0821 9.91343 10.1029 9.1361 10.1301C8.24969 10.1611 8.24138 10.1627 8.09401 10.3368C7.86275 10.6099 7.88583 11.0033 8.14886 11.2688C8.75888 11.8845 10.9923 13.9853 11.1058 14.0501C11.5361 14.2958 12.0397 13.9364 12.0271 13.3928C12.0222 13.1791 11.9529 13.0944 11.1114 12.2732C10.3634 11.5432 10.2223 11.3784 10.3199 11.3483C10.9596 11.1516 11.6008 10.5957 11.8269 10.0415L11.9694 9.69258H12.3534C12.6744 9.69258 12.7679 9.66665 12.9224 9.53463C13.1544 9.3363 13.2127 9.08578 13.0938 8.79688C12.9777 8.51461 12.7207 8.37997 12.2982 8.37997C12.0025 8.37997 11.9587 8.36272 11.8951 8.22077C11.8557 8.1332 11.8236 8.05188 11.8236 8.04007C11.8236 8.02826 12.03 8.00801 12.2823 7.99507C12.685 7.97444 12.7631 7.95006 12.922 7.79555C13.1517 7.57203 13.2072 7.30545 13.0805 7.0343C12.8977 6.64308 12.8101 6.62939 10.5216 6.63376C9.39254 6.63595 8.41029 6.66177 8.33876 6.69108ZM7.32832 19.0499C7.08603 19.2194 7.02626 19.3315 7.02417 19.6201C7.02256 19.8372 7.05771 19.9266 7.20212 20.0733L7.38205 20.256H10.5125C13.978 20.256 13.839 20.2721 14.0127 19.85C14.132 19.56 14.0298 19.2236 13.7742 19.0654C13.5868 18.9493 13.4402 18.9438 10.5292 18.9436C7.7573 18.9434 7.46669 18.9531 7.32832 19.0499ZM4.46145 21.9061C4.17029 22.2018 4.17029 22.498 4.46145 22.7937L4.67074 23.0062H10.497C16.8255 23.0062 16.5765 23.0198 16.7361 22.6642C16.8688 22.3685 16.8273 22.1365 16.6004 21.9061L16.3911 21.6936H10.5309H4.67074L4.46145 21.9061ZM4.46145 24.7188C4.17029 25.0145 4.17029 25.3108 4.46145 25.6064L4.67074 25.8189H10.497C16.8255 25.8189 16.5765 25.8326 16.7361 25.4769C16.8296 25.2686 16.8296 25.0566 16.7361 24.8484C16.5765 24.4927 16.8255 24.5063 10.497 24.5063H4.67074L4.46145 24.7188Z" fill="#F1C40F"/>
</svg>
