<svg width="37" height="32" viewBox="0 0 37 32" fill="none" xmlns="http://www.w3.org/2000/svg">
<path fill-rule="evenodd" clip-rule="evenodd" d="M3.82925 0.0445665C3.25849 0.219394 2.74456 0.642365 2.46938 1.16388L2.27517 1.53191L2.25609 11.2307L2.237 20.9295L1.96688 20.9784C1.21804 21.1142 0.551695 21.6263 0.22279 22.3189C-0.0523941 22.8982 -0.0476944 23.7075 0.234069 24.2814C0.467824 24.7573 0.95218 25.2312 1.43097 25.4525L1.76906 25.6087L13.7171 25.6278L25.6651 25.647V27.6552C25.6651 29.933 25.7157 30.2751 26.1461 30.9047C26.465 31.3711 27.1177 31.8225 27.6361 31.9352C27.8993 31.9923 29.0975 32.0105 31.5594 31.9944L35.1039 31.9713L35.5873 31.7333C36.1388 31.4617 36.5092 31.0788 36.7907 30.4891L36.9805 30.0915V22.1743V14.2572L36.7874 13.8453C36.5399 13.3172 36.0351 12.8142 35.5129 12.5751C35.1742 12.42 34.9642 12.381 34.326 12.3547L33.5505 12.3228L33.5303 6.99965L33.5099 1.67651L33.321 1.27885C33.0946 0.802299 32.7046 0.400513 32.2519 0.177459L31.9193 0.0135486L17.9649 0.00132956C10.2899 -0.00539459 3.92888 0.0140548 3.82925 0.0445665ZM31.9468 1.06577C32.0921 1.14747 32.2918 1.33213 32.3905 1.47616L32.57 1.73811L32.5895 7.03964L32.6089 12.3412H31.6697H30.7305L30.7103 7.82976C30.691 3.51032 30.6843 3.31193 30.5524 3.16624L30.4147 3.01411H17.8814C5.44442 3.01411 5.34696 3.0152 5.20343 3.15872C5.06064 3.30151 5.05883 3.3997 5.05883 11.112C5.05883 18.8243 5.06064 18.9225 5.20343 19.0653C5.34667 19.2085 5.44442 19.2099 15.5066 19.2099H25.6651V20.0775V20.9452H24.036C22.3353 20.9452 22.0775 20.984 21.7376 21.2914C21.5395 21.4705 21.3269 21.9189 21.3269 22.1576C21.3269 22.2709 21.2808 22.4267 21.2243 22.504C21.1256 22.6391 20.9919 22.6449 17.6273 22.6624C14.9433 22.6763 14.0921 22.6596 13.9573 22.5901C13.8294 22.5242 13.7594 22.3998 13.6991 22.1315C13.5817 21.609 13.3489 21.2703 12.9866 21.0949C12.6834 20.9481 12.5837 20.9452 7.92809 20.9452H3.17896V11.3615C3.17896 1.01964 3.1577 1.59683 3.55168 1.22896C3.64502 1.1419 3.80264 1.03822 3.90206 0.998528C4.01977 0.951604 8.89333 0.924924 17.8827 0.921888C31.6723 0.917332 31.6829 0.917477 31.9468 1.06577ZM29.7864 8.1476V12.3412H28.8529C27.4558 12.3412 26.7784 12.6074 26.196 13.3853C25.7289 14.0093 25.7068 14.1337 25.6796 16.2997L25.6548 18.27H15.8267H5.99876V11.112V3.95405H17.8926H29.7864V8.1476ZM14.7911 6.95736C14.6467 7.10182 14.6404 7.45183 14.7798 7.59123C14.8564 7.6678 15.1719 7.70981 15.9547 7.7477C17.0871 7.80243 17.487 7.90683 17.8419 8.24029C18.0375 8.42409 18.2519 8.76254 18.3247 9.00258L18.3758 9.17076L16.6771 9.11877L14.9784 9.06686L14.7906 9.25463C14.5656 9.47964 14.5514 9.68686 14.7474 9.88287C14.8838 10.0192 14.9884 10.0275 16.579 10.0275C17.507 10.0275 18.2872 10.0486 18.313 10.0743C18.4079 10.1693 17.9643 10.8411 17.6784 11.0353C17.2161 11.3495 16.9657 11.4012 15.9095 11.4012C14.8017 11.4012 14.6028 11.4664 14.6028 11.8298C14.6028 12.039 14.8543 12.3006 17.7208 15.0734C18.7191 16.039 18.8775 16.1156 19.1526 15.7658C19.235 15.661 19.3035 15.5227 19.3048 15.4585C19.3061 15.3943 18.6188 14.6717 17.7775 13.8527L16.2479 12.3637L16.7087 12.3182C17.3671 12.2531 17.6437 12.1587 18.1316 11.8329C18.6088 11.5142 19.0162 10.9842 19.1996 10.4432L19.3161 10.0998H19.9158C20.3831 10.0998 20.5479 10.0718 20.6619 9.97325C20.8887 9.77716 20.9163 9.57023 20.7445 9.35195C20.6015 9.17011 20.5596 9.15984 19.9594 9.15984H19.3254L19.2356 8.85255C19.1862 8.68351 19.0506 8.37442 18.9343 8.16568L18.7228 7.78609H19.6633C20.5075 7.78609 20.6187 7.77127 20.7485 7.64148C20.9301 7.45986 20.9322 7.27194 20.7549 7.05301L20.6168 6.88231L17.762 6.86184C15.2205 6.84362 14.8944 6.85411 14.7911 6.95736ZM35.2177 13.4831C35.6335 13.7003 35.9617 14.1276 36.0482 14.5645L36.0948 14.7995H31.3442H26.5935L26.6441 14.5645C26.7536 14.0563 27.0926 13.641 27.5811 13.417C27.8488 13.2942 28.13 13.2841 31.3507 13.2827L34.8311 13.2811L35.2177 13.4831ZM36.0767 21.3428V26.9463H31.3409H26.605V21.3428V15.7394H31.3409H36.0767V21.3428ZM29.1036 18.2138C28.9521 18.4301 28.9619 18.6024 29.1356 18.7761C29.2581 18.8986 29.377 18.9208 29.9129 18.9211C30.7262 18.9216 31.0557 19.017 31.3736 19.3439L31.6301 19.6076L30.413 19.6437C29.3154 19.6763 29.1859 19.6937 29.0935 19.8202C29.0372 19.8974 28.991 20.0295 28.991 20.1137C28.991 20.1979 29.0372 20.33 29.0935 20.4072C29.1858 20.5337 29.3154 20.5511 30.4088 20.5837L31.6218 20.6198L31.385 20.8892C31.0889 21.2261 30.8097 21.3058 29.9241 21.3063C29.1596 21.3068 28.991 21.3883 28.991 21.7577C28.991 22.0299 31.8177 24.7772 32.0978 24.7772C32.3877 24.7772 32.5579 24.6164 32.5579 24.3423C32.5579 24.1301 32.4529 24.0045 31.606 23.2044C31.0824 22.7097 30.654 22.2756 30.654 22.2396C30.654 22.2037 30.7435 22.174 30.8528 22.1736C31.3944 22.1717 32.1812 21.5621 32.4613 20.9271L32.613 20.5837H33.0322C33.5008 20.5837 33.6907 20.455 33.6907 20.1373C33.6907 19.8572 33.488 19.727 33.0131 19.7021L32.591 19.6799L32.461 19.3364L32.3309 18.993H32.8582C33.4742 18.993 33.7088 18.8634 33.7088 18.523C33.7088 18.3948 33.6467 18.2646 33.5471 18.1839C33.3995 18.0644 33.205 18.0531 31.3008 18.0531C29.2285 18.0531 29.2155 18.054 29.1036 18.2138ZM12.6661 22.0116C12.7266 22.0812 12.7941 22.2803 12.8161 22.454C12.8633 22.8276 13.1632 23.2378 13.5234 23.4214C13.75 23.537 14.0946 23.5479 17.535 23.5479L21.2986 23.5481L21.6253 23.3409C21.9715 23.1213 22.1487 22.8345 22.2342 22.3551C22.2625 22.196 22.318 22.0252 22.3575 21.9755C22.411 21.908 22.8392 21.8851 24.0471 21.8851H25.6651V23.295V24.7049L13.8617 24.7033C2.52701 24.7018 2.04677 24.6965 1.76906 24.5678C1.21956 24.3135 0.937575 23.8794 0.937575 23.288C0.937575 22.8893 1.06989 22.564 1.34319 22.2908C1.75742 21.8768 1.54788 21.891 7.27093 21.8879C12.2161 21.8853 12.563 21.8933 12.6661 22.0116ZM36.0651 28.922C36.0414 29.9911 36.0335 30.0408 35.8411 30.3314C35.7314 30.497 35.5061 30.7222 35.3404 30.8319L35.039 31.0314L31.4485 31.0514L27.8581 31.0714L27.4677 30.8674C27.1826 30.7186 27.0184 30.5685 26.8592 30.3112C26.6461 29.9669 26.6407 29.9347 26.6179 28.8865L26.5946 27.8139H31.3422H36.0896L36.0651 28.922ZM30.0506 29.1753C29.9007 29.341 29.8981 29.5425 30.0435 29.75C30.152 29.9049 30.1987 29.9107 31.3338 29.9107C32.3829 29.9107 32.5245 29.8963 32.6311 29.7785C32.7822 29.6115 32.7853 29.3048 32.6372 29.1567C32.5432 29.0628 32.3201 29.0431 31.3469 29.0431C30.2988 29.0431 30.1572 29.0575 30.0506 29.1753Z" fill="#2ECC71"/>
</svg>
