<svg width="38" height="32" viewBox="0 0 38 32" fill="none" xmlns="http://www.w3.org/2000/svg">
<path fill-rule="evenodd" clip-rule="evenodd" d="M4.32925 0.0445665C3.75849 0.219394 3.24456 0.642365 2.96938 1.16388L2.77517 1.53191L2.75609 11.2307L2.737 20.9295L2.46688 20.9784C1.71804 21.1142 1.0517 21.6263 0.72279 22.3189C0.447606 22.8982 0.452306 23.7075 0.734069 24.2814C0.967824 24.7573 1.45218 25.2312 1.93097 25.4525L2.26906 25.6087L14.2171 25.6278L26.1651 25.647V27.6552C26.1651 29.933 26.2157 30.2751 26.6461 30.9047C26.965 31.3711 27.6177 31.8225 28.1361 31.9352C28.3993 31.9923 29.5975 32.0105 32.0594 31.9944L35.6039 31.9713L36.0873 31.7333C36.6388 31.4617 37.0092 31.0788 37.2907 30.4891L37.4805 30.0915V22.1743V14.2572L37.2874 13.8453C37.0399 13.3172 36.5351 12.8142 36.0129 12.5751C35.6742 12.42 35.4642 12.381 34.826 12.3547L34.0505 12.3228L34.0303 6.99965L34.0099 1.67651L33.821 1.27885C33.5946 0.802299 33.2046 0.400513 32.7519 0.177459L32.4193 0.0135486L18.4649 0.00132956C10.7899 -0.00539459 4.42888 0.0140548 4.32925 0.0445665ZM32.4468 1.06577C32.5921 1.14747 32.7918 1.33213 32.8905 1.47616L33.07 1.73811L33.0895 7.03964L33.1089 12.3412H32.1697H31.2305L31.2103 7.82976C31.191 3.51032 31.1843 3.31193 31.0524 3.16624L30.9147 3.01411H18.3814C5.94442 3.01411 5.84696 3.0152 5.70343 3.15872C5.56064 3.30151 5.55883 3.3997 5.55883 11.112C5.55883 18.8243 5.56064 18.9225 5.70343 19.0653C5.84667 19.2085 5.94442 19.2099 16.0066 19.2099H26.1651V20.0775V20.9452H24.536C22.8353 20.9452 22.5775 20.984 22.2376 21.2914C22.0395 21.4705 21.8269 21.9189 21.8269 22.1576C21.8269 22.2709 21.7808 22.4267 21.7243 22.504C21.6256 22.6391 21.4919 22.6449 18.1273 22.6624C15.4433 22.6763 14.5921 22.6596 14.4573 22.5901C14.3294 22.5242 14.2594 22.3998 14.1991 22.1315C14.0817 21.609 13.8489 21.2703 13.4866 21.0949C13.1834 20.9481 13.0837 20.9452 8.42809 20.9452H3.67896V11.3615C3.67896 1.01964 3.6577 1.59683 4.05168 1.22896C4.14502 1.1419 4.30264 1.03822 4.40206 0.998528C4.51977 0.951604 9.39333 0.924924 18.3827 0.921888C32.1723 0.917332 32.1829 0.917477 32.4468 1.06577ZM30.2864 8.1476V12.3412H29.3529C27.9558 12.3412 27.2784 12.6074 26.696 13.3853C26.2289 14.0093 26.2068 14.1337 26.1796 16.2997L26.1548 18.27H16.3267H6.49876V11.112V3.95405H18.3926H30.2864V8.1476ZM15.2911 6.95736C15.1467 7.10182 15.1404 7.45183 15.2798 7.59123C15.3564 7.6678 15.6719 7.70981 16.4547 7.7477C17.5871 7.80243 17.987 7.90683 18.3419 8.24029C18.5375 8.42409 18.7519 8.76254 18.8247 9.00258L18.8758 9.17076L17.1771 9.11877L15.4784 9.06686L15.2906 9.25463C15.0656 9.47964 15.0514 9.68686 15.2474 9.88287C15.3838 10.0192 15.4884 10.0275 17.079 10.0275C18.007 10.0275 18.7872 10.0486 18.813 10.0743C18.9079 10.1693 18.4643 10.8411 18.1784 11.0353C17.7161 11.3495 17.4657 11.4012 16.4095 11.4012C15.3017 11.4012 15.1028 11.4664 15.1028 11.8298C15.1028 12.039 15.3543 12.3006 18.2208 15.0734C19.2191 16.039 19.3775 16.1156 19.6526 15.7658C19.735 15.661 19.8035 15.5227 19.8048 15.4585C19.8061 15.3943 19.1188 14.6717 18.2775 13.8527L16.7479 12.3637L17.2087 12.3182C17.8671 12.2531 18.1437 12.1587 18.6316 11.8329C19.1088 11.5142 19.5162 10.9842 19.6996 10.4432L19.8161 10.0998H20.4158C20.8831 10.0998 21.0479 10.0718 21.1619 9.97325C21.3887 9.77716 21.4163 9.57023 21.2445 9.35195C21.1015 9.17011 21.0596 9.15984 20.4594 9.15984H19.8254L19.7356 8.85255C19.6862 8.68351 19.5506 8.37442 19.4343 8.16568L19.2228 7.78609H20.1633C21.0075 7.78609 21.1187 7.77127 21.2485 7.64148C21.4301 7.45986 21.4322 7.27194 21.2549 7.05301L21.1168 6.88231L18.262 6.86184C15.7205 6.84362 15.3944 6.85411 15.2911 6.95736ZM35.7177 13.4831C36.1335 13.7003 36.4617 14.1276 36.5482 14.5645L36.5948 14.7995H31.8442H27.0935L27.1441 14.5645C27.2536 14.0563 27.5926 13.641 28.0811 13.417C28.3488 13.2942 28.63 13.2841 31.8507 13.2827L35.3311 13.2811L35.7177 13.4831ZM36.5767 21.3428V26.9463H31.8409H27.105V21.3428V15.7394H31.8409H36.5767V21.3428ZM29.6036 18.2138C29.4521 18.4301 29.4619 18.6024 29.6356 18.7761C29.7581 18.8986 29.877 18.9208 30.4129 18.9211C31.2262 18.9216 31.5557 19.017 31.8736 19.3439L32.1301 19.6076L30.913 19.6437C29.8154 19.6763 29.6859 19.6937 29.5935 19.8202C29.5372 19.8974 29.491 20.0295 29.491 20.1137C29.491 20.1979 29.5372 20.33 29.5935 20.4072C29.6858 20.5337 29.8154 20.5511 30.9088 20.5837L32.1218 20.6198L31.885 20.8892C31.5889 21.2261 31.3097 21.3058 30.4241 21.3063C29.6596 21.3068 29.491 21.3883 29.491 21.7577C29.491 22.0299 32.3177 24.7772 32.5978 24.7772C32.8877 24.7772 33.0579 24.6164 33.0579 24.3423C33.0579 24.1301 32.9529 24.0045 32.106 23.2044C31.5824 22.7097 31.154 22.2756 31.154 22.2396C31.154 22.2037 31.2435 22.174 31.3528 22.1736C31.8944 22.1717 32.6812 21.5621 32.9613 20.9271L33.113 20.5837H33.5322C34.0008 20.5837 34.1907 20.455 34.1907 20.1373C34.1907 19.8572 33.988 19.727 33.5131 19.7021L33.091 19.6799L32.961 19.3364L32.8309 18.993H33.3582C33.9742 18.993 34.2088 18.8634 34.2088 18.523C34.2088 18.3948 34.1467 18.2646 34.0471 18.1839C33.8995 18.0644 33.705 18.0531 31.8008 18.0531C29.7285 18.0531 29.7155 18.054 29.6036 18.2138ZM13.1661 22.0116C13.2266 22.0812 13.2941 22.2803 13.3161 22.454C13.3633 22.8276 13.6632 23.2378 14.0234 23.4214C14.25 23.537 14.5946 23.5479 18.035 23.5479L21.7986 23.5481L22.1253 23.3409C22.4715 23.1213 22.6487 22.8345 22.7342 22.3551C22.7625 22.196 22.818 22.0252 22.8575 21.9755C22.911 21.908 23.3392 21.8851 24.5471 21.8851H26.1651V23.295V24.7049L14.3617 24.7033C3.02701 24.7018 2.54677 24.6965 2.26906 24.5678C1.71956 24.3135 1.43757 23.8794 1.43757 23.288C1.43757 22.8893 1.56989 22.564 1.84319 22.2908C2.25742 21.8768 2.04788 21.891 7.77093 21.8879C12.7161 21.8853 13.063 21.8933 13.1661 22.0116ZM36.5651 28.922C36.5414 29.9911 36.5335 30.0408 36.3411 30.3314C36.2314 30.497 36.0061 30.7222 35.8404 30.8319L35.539 31.0314L31.9485 31.0514L28.3581 31.0714L27.9677 30.8674C27.6826 30.7186 27.5184 30.5685 27.3592 30.3112C27.1461 29.9669 27.1407 29.9347 27.1179 28.8865L27.0946 27.8139H31.8422H36.5896L36.5651 28.922ZM30.5506 29.1753C30.4007 29.341 30.3981 29.5425 30.5435 29.75C30.652 29.9049 30.6987 29.9107 31.8338 29.9107C32.8829 29.9107 33.0245 29.8963 33.1311 29.7785C33.2822 29.6115 33.2853 29.3048 33.1372 29.1567C33.0432 29.0628 32.8201 29.0431 31.8469 29.0431C30.7988 29.0431 30.6572 29.0575 30.5506 29.1753Z" fill="#9B59B6"/>
</svg>
