<svg width="21" height="32" viewBox="0 0 21 32" fill="none" xmlns="http://www.w3.org/2000/svg">
<path d="M3.22733 32C2.42733 32 1.74248 31.7152 1.17278 31.1455C0.603086 30.5758 0.318237 29.8909 0.318237 29.0909V2.90909C0.318237 2.10909 0.603086 1.42424 1.17278 0.854546C1.74248 0.284849 2.42733 0 3.22733 0H17.7728C18.5728 0 19.2576 0.284849 19.8273 0.854546C20.397 1.42424 20.6819 2.10909 20.6819 2.90909V29.0909C20.6819 29.8909 20.397 30.5758 19.8273 31.1455C19.2576 31.7152 18.5728 32 17.7728 32H3.22733ZM3.22733 27.6364V29.0909H17.7728V27.6364H3.22733ZM3.22733 24.7273H17.7728V7.27273H3.22733V24.7273ZM3.22733 4.36364H17.7728V2.90909H3.22733V4.36364Z" fill="#3333CC"/>
<path d="M11.1304 21.8182L6.78294 17.2929V16H9.04557C9.61661 16 10.1095 15.8141 10.5244 15.4424C10.9392 15.0707 11.1897 14.6101 11.2759 14.0606H6.13647V12.7677H11.0819C10.8988 12.3906 10.6267 12.0808 10.2658 11.8384C9.90482 11.596 9.49809 11.4748 9.04557 11.4748H6.13647V10.1818H13.894V11.4748H11.793C11.9439 11.6579 12.0786 11.8572 12.1971 12.0727C12.3156 12.2882 12.4072 12.5199 12.4718 12.7677H13.894V14.0606H12.585C12.4988 14.9764 12.1217 15.7441 11.4536 16.3636C10.7856 16.9832 9.98294 17.2929 9.04557 17.2929H8.57688L12.9244 21.8182H11.1304Z" fill="#3333CC"/>
</svg>
