<svg width="34" height="32" viewBox="0 0 34 32" fill="none" xmlns="http://www.w3.org/2000/svg">
<path fill-rule="evenodd" clip-rule="evenodd" d="M2.049 0.049734C1.33844 0.221063 0.7124 0.739489 0.387291 1.42567L0.178345 1.86667V9.68147V17.4963L0.387291 17.9373C0.646835 18.485 1.04294 18.879 1.60223 19.1455L2.0327 19.3506H5.70831H9.38391L9.82439 19.1419C10.3834 18.8771 10.7647 18.4958 11.0296 17.9367L11.2383 17.4963V9.68147V1.86667L11.0296 1.4262C10.7647 0.867175 10.3834 0.485839 9.82439 0.220997L9.38391 0.0123155L5.84076 0.00105703C3.89203 -0.00516832 2.18575 0.0167529 2.049 0.049734ZM2.04111 0.871149C1.90012 0.921415 1.6766 1.04831 1.54441 1.15301C1.28454 1.35904 0.939956 1.96144 0.939956 2.20966V2.36338H5.71566H10.4914L10.446 2.11503C10.3439 1.5568 9.91876 1.07367 9.3545 0.874592C8.95125 0.732337 2.43921 0.72929 2.04111 0.871149ZM0.939956 8.82052V14.4829H5.70831H10.4767V8.82052V3.1581H5.70831H0.939956V8.82052ZM5.01292 5.18856C4.25045 5.35135 3.34844 5.88858 2.88736 6.45462C2.29834 7.17769 2.04105 7.89698 2.04105 8.82052C2.04105 10.9584 3.78434 12.5935 5.9401 12.4776C7.50313 12.3936 8.79866 11.3524 9.25801 9.81108C9.41451 9.28603 9.41444 8.35587 9.25795 7.82711C8.88442 6.56502 7.86552 5.57606 6.59893 5.24611C6.24296 5.15339 5.33233 5.12035 5.01292 5.18856ZM4.77934 6.09044C4.01276 6.35177 3.42539 6.88225 3.08896 7.61724C2.36258 9.20377 3.18194 11.056 4.83775 11.5706C6.3176 12.0305 7.8583 11.2695 8.42958 9.79664C8.63667 9.26278 8.63667 8.37825 8.42958 7.8444C7.84963 6.34906 6.26051 5.58546 4.77934 6.09044ZM4.25131 6.73437C4.17846 6.80722 4.11886 6.92642 4.11886 6.99927C4.11886 7.28273 4.3431 7.39664 4.90093 7.39664C5.25313 7.39664 5.45909 7.42763 5.54665 7.49386C5.66254 7.58154 5.61168 7.59134 5.02948 7.5932C4.47377 7.59505 4.36529 7.6138 4.25131 7.72777C4.17846 7.80062 4.11886 7.91983 4.11886 7.99268C4.11886 8.06553 4.17846 8.18474 4.25131 8.25759C4.36529 8.37157 4.47383 8.39037 5.02948 8.39223L5.67519 8.39448L5.51883 8.52468C5.39439 8.62833 5.2626 8.65495 4.87312 8.65495C4.47205 8.65495 4.35986 8.67886 4.25131 8.78741C3.97104 9.06768 4.00448 9.11821 5.23611 10.2718C6.10302 11.0838 6.25143 11.1583 6.50303 10.9067C6.74132 10.6684 6.66456 10.5159 5.9856 9.87969L5.50135 9.42584L5.75135 9.30418C6.07203 9.14821 6.33654 8.89357 6.46998 8.61237C6.55966 8.42336 6.60979 8.39004 6.80417 8.39004C6.94457 8.39004 7.08398 8.33892 7.1653 8.25759C7.43663 7.98626 7.2716 7.66075 6.83251 7.60101C6.45045 7.54909 6.39813 7.39664 6.76244 7.39664C7.06311 7.39664 7.29776 7.22246 7.29776 6.99927C7.29776 6.92642 7.23815 6.80722 7.1653 6.73437C7.04166 6.61072 6.94457 6.60191 5.70831 6.60191C4.47205 6.60191 4.37496 6.61072 4.25131 6.73437ZM0.939956 16.2262C0.939956 17.3622 1.02532 17.6845 1.43494 18.094C1.93237 18.5915 1.91071 18.589 5.70831 18.589C9.51345 18.589 9.46735 18.5944 9.97472 18.0871C10.3965 17.6653 10.4767 17.3682 10.4767 16.2262V15.2777H5.70831H0.939956V16.2262ZM4.45483 16.7105C4.37933 16.8064 4.31754 16.9067 4.31754 16.9333C4.31754 16.96 4.37933 17.0602 4.45483 17.1562L4.59205 17.3307H5.70288C6.69483 17.3307 6.82536 17.3177 6.92324 17.2096C7.06801 17.0496 7.06252 16.7821 6.91172 16.6456C6.80926 16.5529 6.62131 16.536 5.69135 16.536H4.59205L4.45483 16.7105Z" fill="#FF6B81"/>
<path fill-rule="evenodd" clip-rule="evenodd" d="M24.6324 12.6991C23.9219 12.8704 23.2958 13.3888 22.9707 14.075L22.7618 14.516V22.3308V30.1456L22.9707 30.5866C23.2303 31.1344 23.6264 31.5283 24.1857 31.7949L24.6161 32H28.2917H31.9673L32.4078 31.7913C32.9668 31.5265 33.3482 31.1451 33.613 30.5861L33.8217 30.1456V22.3308V14.516L33.613 14.0756C33.3482 13.5165 32.9668 13.1352 32.4078 12.8704L31.9673 12.6617L28.4242 12.6504C26.4755 12.6442 24.7692 12.6661 24.6324 12.6991ZM24.6245 13.5205C24.4836 13.5708 24.26 13.6977 24.1278 13.8024C23.868 14.0084 23.5234 14.6108 23.5234 14.859V15.0127H28.2991H33.0749L33.0294 14.7644C32.9273 14.2062 32.5022 13.723 31.9379 13.5239C31.5347 13.3817 25.0226 13.3786 24.6245 13.5205ZM23.5234 21.4699V27.1323H28.2917H33.0601V21.4699V15.8075H28.2917H23.5234V21.4699ZM27.5964 17.8379C26.8339 18.0007 25.9319 18.5379 25.4708 19.104C24.8818 19.827 24.6245 20.5463 24.6245 21.4699C24.6245 23.6077 26.3678 25.2428 28.5235 25.1269C30.0866 25.043 31.3821 24.0018 31.8414 22.4604C31.9979 21.9354 31.9979 21.0052 31.8414 20.4765C31.4679 19.2144 30.449 18.2254 29.1824 17.8955C28.8264 17.8027 27.9158 17.7697 27.5964 17.8379ZM27.3628 18.7398C26.5962 19.0011 26.0088 19.5316 25.6724 20.2666C24.946 21.8531 25.7654 23.7054 27.4212 24.22C28.901 24.6798 30.4417 23.9189 31.013 22.446C31.2201 21.9121 31.2201 21.0276 31.013 20.4938C30.4331 18.9984 28.8439 18.2348 27.3628 18.7398ZM26.8347 19.3837C26.7619 19.4566 26.7023 19.5758 26.7023 19.6486C26.7023 19.9321 26.9265 20.046 27.4844 20.046C27.8366 20.046 28.0425 20.077 28.1301 20.1432C28.246 20.2309 28.1951 20.2407 27.6129 20.2426C27.0572 20.2444 26.9487 20.2631 26.8347 20.3771C26.7619 20.45 26.7023 20.5692 26.7023 20.642C26.7023 20.7149 26.7619 20.8341 26.8347 20.9069C26.9487 21.0209 27.0573 21.0397 27.6129 21.0416L28.2586 21.0438L28.1023 21.174C27.9778 21.2777 27.846 21.3043 27.4566 21.3043C27.0555 21.3043 26.9433 21.3282 26.8347 21.4368C26.5545 21.717 26.5879 21.7676 27.8195 22.9212C28.6865 23.7332 28.8349 23.8076 29.0865 23.556C29.3248 23.3177 29.248 23.1653 28.569 22.529L28.0848 22.0752L28.3348 21.9535C28.6555 21.7976 28.92 21.5429 29.0534 21.2617C29.1431 21.0727 29.1932 21.0394 29.3876 21.0394C29.528 21.0394 29.6674 20.9883 29.7487 20.9069C30.0201 20.6356 29.855 20.3101 29.4159 20.2504C29.0339 20.1984 28.9816 20.046 29.3459 20.046C29.6465 20.046 29.8812 19.8718 29.8812 19.6486C29.8812 19.5758 29.8216 19.4566 29.7487 19.3837C29.6251 19.2601 29.528 19.2513 28.2917 19.2513C27.0555 19.2513 26.9584 19.2601 26.8347 19.3837ZM23.5234 28.8755C23.5234 30.0116 23.6088 30.3338 24.0184 30.7434C24.5158 31.2409 24.4941 31.2384 28.2917 31.2384C32.0969 31.2384 32.0508 31.2438 32.5582 30.7364C32.98 30.3146 33.0601 30.0175 33.0601 28.8755V27.927H28.2917H23.5234V28.8755ZM27.0383 29.3598C26.9628 29.4558 26.901 29.5561 26.901 29.5827C26.901 29.6093 26.9628 29.7096 27.0383 29.8055L27.1755 29.9801H28.2863C29.2783 29.9801 29.4088 29.9671 29.5067 29.8589C29.6514 29.699 29.646 29.4314 29.4952 29.2949C29.3927 29.2022 29.2047 29.1853 28.2748 29.1853H27.1755L27.0383 29.3598Z" fill="#FF6B81"/>
<path fill-rule="evenodd" clip-rule="evenodd" d="M15.76 0.0787875C15.6393 0.172698 14.0013 2.66337 13.9225 2.87284C13.8942 2.94788 13.894 3.07066 13.922 3.14557C13.9833 3.30941 16.7131 5.09549 16.9023 5.09549C17.0328 5.09549 17.298 4.88058 17.298 4.77482C17.298 4.74409 17.2125 4.3154 17.1079 3.82208L16.9178 2.92516L17.29 2.88384C17.8214 2.82483 19.0134 2.95212 19.7484 3.14649C23.0631 4.02281 25.454 6.84183 25.7666 10.2425C25.8289 10.9205 25.9082 11.0725 26.1995 11.0725C26.5455 11.0725 26.5921 10.9598 26.5481 10.229C26.3912 7.62185 24.8387 5.01681 22.5544 3.52783C21.0811 2.56747 19.5241 2.10977 17.6676 2.0913L16.7458 2.08216L16.5356 1.12862C16.3858 0.448533 16.2904 0.149386 16.2031 0.0855427C16.0503 -0.0261824 15.8979 -0.0285004 15.76 0.0787875ZM15.3112 2.13799C15.0745 2.50588 14.8807 2.83026 14.8807 2.85874C14.8807 2.90973 16.2505 3.84718 16.2808 3.81691C16.3076 3.79002 15.824 1.55439 15.7818 1.51068C15.7598 1.4877 15.548 1.77003 15.3112 2.13799ZM5.83366 21.0633C5.70664 21.1903 5.69823 21.2485 5.74015 21.709C5.9991 24.551 7.48119 27.0339 9.81033 28.5276C11.2505 29.4512 13.0924 29.9649 14.798 29.9187C15.2261 29.907 15.5763 29.904 15.5762 29.9118C15.5753 30.066 15.9994 31.8357 16.0528 31.9C16.0973 31.9538 16.2231 31.9823 16.3627 31.9705C16.5901 31.9512 16.6269 31.9059 17.5071 30.5598C18.433 29.1439 18.5317 28.9178 18.308 28.726C18.2443 28.6713 17.6079 28.2495 16.8939 27.7885C15.4836 26.8781 15.2489 26.7903 15.1 27.117C15.0388 27.2516 15.0581 27.4475 15.2008 28.1373C15.298 28.6068 15.3775 29.0236 15.3775 29.0635C15.3775 29.1727 14.0662 29.1537 13.3262 29.0337C12.9812 28.9777 12.4324 28.8426 12.1066 28.7335C9.03177 27.7033 6.92019 25.0842 6.55971 21.8537C6.51256 21.431 6.44275 21.1098 6.38282 21.0397C6.24897 20.883 6.0034 20.8936 5.83366 21.0633ZM16.0397 28.2495C16.0397 28.2762 16.1489 28.8147 16.2824 29.4461L16.5252 30.594L16.9778 29.9146C17.2266 29.541 17.4303 29.2011 17.4304 29.1593C17.4304 29.1175 17.1548 28.9063 16.8179 28.69C16.0483 28.1957 16.0397 28.1909 16.0397 28.2495Z" fill="#FF6B81"/>
</svg>
