<svg width="33" height="32" viewBox="0 0 33 32" fill="none" xmlns="http://www.w3.org/2000/svg">
<path fill-rule="evenodd" clip-rule="evenodd" d="M1.12204 0.072502C0.808306 0.156058 0.374005 0.537728 0.228725 0.857612C0.115332 1.10732 0.110722 1.65194 0.109762 15.0114C0.108993 24.5132 0.12993 28.9818 0.175838 29.1472C0.259907 29.4501 0.565448 29.8033 0.883666 29.9656C1.09041 30.0711 1.26271 30.0899 2.0217 30.0899C2.98833 30.0899 3.07342 30.0628 3.15755 29.7277C3.18508 29.618 3.15749 29.5122 3.07099 29.396C2.94703 29.2297 2.92321 29.2248 2.09687 29.1935C1.35382 29.1654 1.23864 29.1463 1.15905 29.0372C1.08151 28.9309 1.06839 26.9051 1.06839 15.0348V1.15656L1.21072 1.05693C1.33852 0.967355 2.89568 0.957239 16.5134 0.957239C31.5884 0.957239 31.6744 0.957943 31.8018 1.08529C31.926 1.20957 31.9298 1.2987 31.9298 4.08506C31.9298 5.92516 31.954 7.02599 31.997 7.14956C32.0618 7.33525 32.2798 7.48808 32.48 7.48808C32.5328 7.48808 32.6466 7.41733 32.733 7.33089L32.8902 7.17377V4.15946C32.8902 0.806837 32.8989 0.881558 32.4561 0.427088C32.0036 -0.0371777 33.2594 -0.00388322 16.4714 0.00341595C6.87712 0.00764179 1.27091 0.0328688 1.12204 0.072502ZM3.46943 2.79241C3.18822 2.94063 2.99268 3.13521 2.85496 3.40374C2.73791 3.63194 2.73311 3.86282 2.73311 9.24949C2.73311 15.4405 2.70584 15.0212 3.13873 15.4773C3.54121 15.9013 2.68234 15.8757 16.4991 15.8757C30.3159 15.8757 29.457 15.9013 29.8595 15.4773C30.2924 15.0212 30.2651 15.4405 30.2651 9.24885C30.2651 4.21011 30.2546 3.6192 30.1616 3.43512C30.0154 3.1459 29.8226 2.94902 29.5473 2.80784C29.3161 2.68926 28.9679 2.68605 16.4857 2.68855C4.91934 2.69086 3.64269 2.70104 3.46943 2.79241ZM29.236 3.75109C29.3679 3.91872 29.3687 3.95406 29.3687 9.2895C29.3687 14.5738 29.3667 14.6612 29.2406 14.7873C29.1135 14.9144 29.0272 14.9153 16.4991 14.9153C3.97096 14.9153 3.88472 14.9144 3.75756 14.7873C3.63155 14.6612 3.6295 14.5738 3.6295 9.2895C3.6295 3.95406 3.63033 3.91872 3.76223 3.75109L3.8949 3.58238H16.4991H29.1033L29.236 3.75109ZM9.44317 6.6326C9.15242 6.7533 9.19897 6.63401 8.33753 9.46532C7.82506 11.1498 7.68272 11.6946 7.73145 11.7857C7.82467 11.9599 8.13233 12.0981 8.42692 12.0981C8.73892 12.0981 8.81435 11.9992 8.97794 11.3759L9.09185 10.9419L9.89239 10.9597L10.6929 10.9776L10.8268 11.4582C11.0105 12.1176 11.0106 12.1177 11.4177 12.084C11.7737 12.0545 12.0812 11.8592 12.0812 11.6627C12.0812 11.505 10.6671 6.95255 10.5716 6.80298C10.4792 6.65815 10.1237 6.52613 9.8402 6.53131C9.75217 6.53291 9.57353 6.5785 9.44317 6.6326ZM14.1017 6.73402C13.9686 6.92399 13.9751 7.3136 14.1141 7.47995C14.2102 7.59501 14.308 7.61646 14.8024 7.63112L15.3786 7.64815L15.3944 9.76107C15.4097 11.8247 15.4133 11.8766 15.5455 11.986C15.6327 12.0582 15.7898 12.0981 15.9869 12.0981C16.184 12.0981 16.341 12.0582 16.4282 11.986C16.5605 11.8766 16.564 11.8247 16.5794 9.76107L16.5951 7.64815L17.1714 7.63112C17.6658 7.61646 17.7636 7.59501 17.8597 7.47995C17.9987 7.3136 18.0052 6.92399 17.8721 6.73402C17.7731 6.59271 17.7594 6.59169 15.9869 6.59169C14.2143 6.59169 14.2006 6.59271 14.1017 6.73402ZM20.9121 6.77884L20.7249 6.966V9.40399C20.7249 11.7566 20.7294 11.8465 20.853 11.97C21.0451 12.1622 21.6402 12.1355 21.8774 11.9242C21.8951 11.9084 21.9239 11.2309 21.9415 10.4184L21.9735 8.94119L22.3413 9.61624C22.7082 10.2899 22.7838 10.3693 23.0573 10.3693C23.2485 10.3693 23.3684 10.2278 23.7764 9.5202L24.1176 8.92871L24.118 10.3853C24.1184 11.7563 24.126 11.8495 24.2465 11.97C24.4298 12.1533 24.9987 12.1503 25.1977 11.9649L25.3406 11.8317L25.3218 9.36615L25.3029 6.90062L25.1233 6.74613C24.986 6.62806 24.8693 6.59169 24.6281 6.59169C24.2117 6.59169 24.0387 6.75387 23.5694 7.58412C23.3703 7.93627 23.1652 8.29169 23.1136 8.37391C23.0222 8.5197 23.0076 8.50241 22.5212 7.67005C21.9754 6.73588 21.8232 6.59259 21.3763 6.59201C21.1552 6.59175 21.0615 6.62947 20.9121 6.77884ZM10.1612 9.03198C10.3005 9.53864 10.4149 9.97479 10.4154 10.0012C10.416 10.0276 10.1685 10.0492 9.86537 10.0492C9.41999 10.0492 9.32087 10.032 9.3486 9.95981C9.36749 9.91064 9.49176 9.46526 9.62488 8.97001C9.75799 8.47481 9.87612 8.07893 9.88746 8.0902C9.89873 8.10153 10.0219 8.52533 10.1612 9.03198ZM32.113 9.59536L31.9618 9.71772L31.9298 19.3542C31.9122 24.6543 31.8834 29.0037 31.8658 29.0194C31.6818 29.1842 31.3194 29.1935 25.0902 29.1935C19.0271 29.1935 18.618 29.2005 18.4938 29.3056C18.2896 29.4784 18.2615 29.7139 18.421 29.9166L18.5573 30.0899H25.2141C31.6772 30.0899 31.878 30.0863 32.1145 29.9656C32.4328 29.8033 32.7383 29.4501 32.8224 29.1472C32.8678 28.9835 32.8897 25.8191 32.8899 19.3464L32.8902 9.78726L32.733 9.63013C32.5445 9.44157 32.3185 9.42889 32.113 9.59536ZM3.6295 18.4475C3.30776 18.5397 3.00862 18.7881 2.8538 19.0916C2.67145 19.4489 2.70366 20.0532 2.92199 20.3719C3.21063 20.7931 3.44721 20.8992 4.1528 20.9239C4.68596 20.9426 4.78232 20.9621 4.78392 21.052C4.78495 21.1103 4.54939 23.3766 4.26037 26.0882C3.9369 29.1229 3.7532 31.0905 3.7824 31.2061C3.85097 31.4773 4.25902 31.8576 4.5718 31.9419C4.76043 31.9926 6.58272 32.0083 10.8762 31.996C16.6311 31.9796 16.9266 31.9731 17.1567 31.8588C17.4904 31.6929 17.6695 31.4179 17.7001 31.0242C17.714 30.8449 17.4927 28.536 17.2083 25.8933C16.9239 23.2506 16.6912 21.0567 16.6912 21.0179C16.6912 20.9746 16.886 20.9387 17.1977 20.9245C17.6507 20.9039 17.7303 20.8805 17.95 20.7036C18.6958 20.103 18.6598 19.0825 17.8758 18.5969L17.5657 18.4048L10.7096 18.394C6.28109 18.387 3.77427 18.406 3.6295 18.4475ZM21.3951 18.5007C20.9123 18.7398 20.885 18.8458 20.885 20.4857C20.885 22.6273 20.8565 22.5988 22.9969 22.5984C24.5701 22.5981 24.6854 22.5708 24.9511 22.135C25.0681 21.9431 25.0784 21.8103 25.0786 20.4792C25.0788 19.081 25.0739 19.0247 24.9335 18.8145C24.6625 18.4088 24.5057 18.373 22.9979 18.3729C21.7831 18.3729 21.6284 18.3852 21.3951 18.5007ZM26.6475 18.4632C26.5419 18.5102 26.3834 18.6266 26.2954 18.7218L26.1353 18.8951L26.1161 20.4501L26.097 22.0051L26.2678 22.2081C26.5821 22.5816 26.6658 22.5987 28.1835 22.5987C29.4197 22.5987 29.5913 22.5857 29.8065 22.4759C30.251 22.2491 30.2769 22.1296 30.2536 20.4108C30.2331 18.8959 30.233 18.895 30.073 18.7218C29.7785 18.4028 29.6128 18.3726 28.1702 18.3753C27.2048 18.3772 26.7869 18.4012 26.6475 18.4632ZM4.97338 19.4453C4.973 19.5069 4.95481 19.6654 4.93298 19.7974L4.89328 20.0375H4.38945C3.97096 20.0375 3.86391 20.0158 3.75756 19.9095C3.60178 19.7537 3.59467 19.6059 3.73547 19.4503C3.82293 19.3537 3.94042 19.3332 4.40776 19.3332C4.90468 19.3332 4.97402 19.3469 4.97338 19.4453ZM11.1853 19.4453C11.1856 19.5069 11.315 22.0784 11.4729 25.1598C11.6308 28.2411 11.7602 30.827 11.7605 30.9063L11.761 31.0503H8.24482C5.78141 31.0503 4.72175 31.0296 4.70555 30.9811C4.68942 30.9326 5.89167 19.5192 5.93079 19.3492C5.93284 19.3405 7.11582 19.3332 8.55965 19.3332C11.0169 19.3332 11.1849 19.3404 11.1853 19.4453ZM13.7043 24.8556C13.9433 27.893 14.1552 30.5293 14.1753 30.7142L14.2117 31.0503H13.4666C13.0568 31.0503 12.7195 31.0431 12.7172 31.0343C12.7149 31.0256 12.5778 28.3892 12.4127 25.1758L12.1123 19.3332H12.691H13.2697L13.7043 24.8556ZM16.1911 25.1278C16.5325 28.2971 16.8 30.9263 16.7856 30.9703C16.7664 31.0286 16.5423 31.0503 15.9581 31.0503C15.1787 31.0503 15.1562 31.0464 15.1274 30.9063C15.1112 30.827 14.9088 28.3131 14.6778 25.3198C14.4467 22.3265 14.2414 19.754 14.2216 19.6031L14.1856 19.3288L14.878 19.347L15.5703 19.3652L16.1911 25.1278ZM17.4918 19.4847C17.565 19.5965 17.575 19.678 17.5301 19.7961C17.4542 19.9959 17.3471 20.0375 16.91 20.0375C16.5875 20.0375 16.5631 20.0268 16.5631 19.8855C16.5631 19.8019 16.5451 19.6434 16.5231 19.5333L16.4831 19.3332H16.9378C17.3453 19.3332 17.4029 19.349 17.4918 19.4847ZM24.1824 20.4857V21.6382H22.9979H21.8134V20.4857V19.3332H22.9979H24.1824V20.4857ZM29.3687 20.4857V21.6382H28.1842H26.9997V20.4857V19.3332H28.1842H29.3687V20.4857ZM21.3305 23.6143C20.8999 23.8768 20.885 23.943 20.885 25.5873C20.885 26.9862 20.8926 27.0814 21.017 27.248C21.0896 27.3453 21.2286 27.4842 21.3258 27.5568C21.4923 27.6811 21.588 27.6889 22.9546 27.6889C24.2985 27.6889 24.4232 27.6792 24.6306 27.5586C25.0546 27.3122 25.0844 27.1719 25.0645 25.5119C25.0395 23.4252 25.1124 23.4949 22.9562 23.4953C21.6754 23.4955 21.5049 23.508 21.3305 23.6143ZM26.5688 23.59C26.455 23.6394 26.3038 23.7752 26.2328 23.8916C26.1133 24.0877 26.1037 24.2121 26.1037 25.5759C26.1037 27.7336 26.0597 27.6889 28.1842 27.6889C30.3087 27.6889 30.2646 27.7336 30.2646 25.5759C30.2646 23.4283 30.3296 23.4938 28.2034 23.4975C27.1229 23.4995 26.7252 23.5219 26.5688 23.59ZM24.1679 25.592L24.1853 26.7605H22.9994H21.8134V25.5745V24.3886L22.9819 24.406L24.1504 24.4234L24.1679 25.592ZM29.3687 25.5759V26.7605H28.1842H26.9997V25.5759V24.3914H28.1842H29.3687V25.5759Z" fill="#E74C3C"/>
</svg>
