<svg width="41" height="32" viewBox="0 0 41 32" fill="none" xmlns="http://www.w3.org/2000/svg">
<path fill-rule="evenodd" clip-rule="evenodd" d="M19.8292 0.0393303C16.5939 0.237902 13.3573 1.502 10.8032 3.56473C9.78296 4.38877 9.1984 4.94822 8.52195 5.74832C6.95461 7.60186 5.78867 9.93591 5.26671 12.2648L5.09239 13.0424L3.14565 13.0811L1.19882 13.1199L0.945709 13.3731C0.730867 13.5881 0.692671 13.6819 0.693369 13.993C0.694066 14.3466 0.773324 14.4739 2.93824 17.6012C4.39851 19.7105 5.25618 20.881 5.39354 20.952C5.63922 21.0791 5.91039 21.0913 6.18302 20.9877C6.42049 20.8974 6.50122 20.7875 8.96845 17.1974C11.109 14.0826 11.1264 14.0483 10.826 13.5398C10.5816 13.1261 10.3628 13.0811 8.59292 13.0811H6.98707L7.03472 12.7836C7.26707 11.3304 8.19183 9.27132 9.31059 7.71614C12.0317 3.93344 17.1385 1.50154 21.4924 1.91488C25.3345 2.27963 28.5285 4.00526 31.4607 7.30056L31.9357 7.83429L32.3471 7.7947C32.8894 7.74264 33.1941 7.43475 33.1933 6.93991C33.1928 6.54865 33.1142 6.42182 32.2879 5.4777C30.0223 2.88891 26.7029 0.974623 23.3157 0.303524C22.5451 0.150819 20.8927 -0.022728 20.449 0.0024518C20.3212 0.00965709 20.0423 0.0263143 19.8292 0.0393303ZM16.4541 10.3118C16.0781 10.5645 15.9316 11.003 16.0942 11.39C16.3119 11.9085 16.4602 11.9529 18.1236 11.9965C19.5175 12.033 19.6238 12.0465 19.986 12.2332C20.2042 12.3456 20.4837 12.5798 20.633 12.7755L20.8958 13.1199L18.7706 13.1586C16.3887 13.202 16.3245 13.2166 16.0942 13.7651C15.9322 14.1507 16.0781 14.5907 16.4511 14.8412C16.7089 15.0144 16.7571 15.018 18.7948 15.018C19.939 15.018 20.8752 15.0392 20.8752 15.065C20.8752 15.203 20.3478 15.7455 20.0349 15.9294C19.6831 16.1363 19.6373 16.1424 18.1635 16.1802C16.5624 16.2212 16.4501 16.2471 16.1759 16.6386C16.0186 16.8631 16.0259 17.3595 16.1904 17.625C16.4242 18.0027 21.4673 22.7175 21.761 22.833C22.4154 23.0905 23.085 22.472 22.9277 21.7555C22.8889 21.5791 22.4217 21.0889 21.0647 19.8012L19.2535 18.0824L19.7738 17.9774C21.0649 17.7168 22.2858 16.6606 22.6982 15.4476L22.8396 15.0314L23.6459 15.0053C24.4439 14.9795 24.4543 14.9767 24.6764 14.7281C24.9657 14.4041 25.0256 14.1491 24.8938 13.8027C24.7106 13.3215 24.4613 13.2011 23.585 13.1709L22.8193 13.1444L22.7278 12.8609C22.6773 12.7051 22.5704 12.4468 22.4901 12.287L22.344 11.9965L23.2947 11.9962C24.107 11.9959 24.2822 11.9735 24.4982 11.8418C25.0372 11.5131 25.116 10.8342 24.6655 10.4024L24.429 10.1758L20.5747 10.1543L16.7205 10.1329L16.4541 10.3118ZM34.6893 11.1056C34.5981 11.1695 33.5231 12.6722 32.3006 14.445C29.8739 17.9641 29.851 18.0079 30.1873 18.5033C30.488 18.9463 30.5856 18.9669 32.3894 18.9682L34.0253 18.9693L33.9172 19.4376C32.9759 23.5121 30.1657 26.9244 26.2043 28.8035C22.4942 30.5633 18.8613 30.6292 15.1457 29.0042C13.0692 28.096 11.3586 26.8078 9.56238 24.7994C9.10574 24.2888 9.03322 24.2377 8.76562 24.2377C8.14348 24.2377 7.72713 24.6806 7.80483 25.2596C7.90462 26.0036 10.273 28.3144 12.1978 29.5457C13.9842 30.6885 16.2747 31.5515 18.38 31.8751C19.4614 32.0412 21.4196 32.0417 22.5022 31.8761C28.8336 30.9073 34.1511 26.1549 35.6049 20.1657C35.7387 19.6142 35.86 19.1195 35.8745 19.0662C35.8945 18.9921 36.3402 18.9693 37.7699 18.9693C39.3928 18.9693 39.6687 18.9519 39.863 18.8372C40.1512 18.6669 40.3507 18.2488 40.2982 17.9251C40.2534 17.6485 36.1301 11.5611 35.7446 11.2023C35.48 10.956 34.9696 10.9092 34.6893 11.1056Z" fill="#3498DB"/>
</svg>
